<svg width="110" height="55" viewBox="0 0 110 55" fill="none" xmlns="http://www.w3.org/2000/svg">
<mask id="mask0" mask-type="alpha" maskUnits="userSpaceOnUse" x="0" y="0" width="110" height="55">
<rect width="110" height="55" fill="#2C2D2E"/>
</mask>
<g mask="url(#mask0)">
<path d="M19.5047 7.62388C20.7923 7.62388 21.0196 7.43452 21.0196 6.33619C21.0196 4.17743 20.1485 2.20802 18.8229 1.26119C17.4595 0.314367 15.6416 0.0113815 11.4756 0.0113815C6.81716 0.0113815 4.84776 0.390112 3.29496 1.52631C1.93153 2.51101 1.28769 4.36679 1.28769 7.35877C1.28769 10.8431 2.08302 12.661 4.0903 13.6457C5.37798 14.2517 6.28694 14.4032 10.6045 14.6683C14.8084 14.9334 14.8084 14.9334 15.4144 15.1606C16.4369 15.5015 16.8157 16.2968 16.8157 17.9632C16.8157 19.7054 16.5506 20.6901 15.9067 21.1446C15.1871 21.7127 14.3918 21.8263 11.3998 21.8263C8.36996 21.8263 7.87761 21.7884 7.0444 21.3718C6.47631 21.0688 6.0597 20.3493 5.98395 19.6297C5.87034 17.5845 5.83246 17.5088 4.43116 17.5088H2.68899C1.43918 17.5088 1.17407 17.736 1.17407 18.7965C1.17407 20.2735 1.47705 21.7506 2.04515 22.7731C3.29496 25.1591 5.11287 25.7272 11.4377 25.7272C16.5506 25.7272 18.52 25.3106 20.0349 23.8336C21.1332 22.7353 21.5877 21.031 21.5877 17.8875C21.5877 14.6683 21.0575 13.1912 19.5047 12.1308C18.2927 11.2597 16.9293 10.9946 12.6118 10.7295C8.44571 10.5022 8.44571 10.5022 7.80187 10.3129C6.58993 9.93414 6.13545 9.10093 6.13545 7.28302C6.13545 4.40466 7.0444 3.83657 11.6649 3.83657C14.8084 3.83657 16.0203 4.36679 16.1718 5.7681C16.2854 7.51026 16.3991 7.66175 17.7625 7.62388H19.5047ZM27.4142 1.71567C27.49 0.46586 27.187 0.200747 25.9372 0.23862H24.6116C23.3618 0.200747 23.0967 0.46586 23.1346 1.71567V2.39739C23.0967 3.6472 23.3618 3.91231 24.6116 3.87444H25.9372C27.187 3.91231 27.49 3.6472 27.4142 2.39739V1.71567ZM27.4142 9.2903C27.4521 8.04049 27.187 7.77537 25.9372 7.81325H24.6116C23.3618 7.77537 23.0967 8.04049 23.1346 9.2903V24.0229C23.0967 25.2728 23.3618 25.5379 24.6116 25.5H25.9372C27.187 25.5379 27.4521 25.2728 27.4142 24.0229V9.2903ZM34.938 11.0325H40.2023C41.4521 11.0703 41.7173 10.8052 41.6794 9.55541V9.2903C41.7173 8.04049 41.4521 7.77537 40.2023 7.81325H34.938V5.35149C34.9758 4.10168 34.7107 3.83657 33.4609 3.87444H32.0975C30.8855 3.83657 30.6204 4.10168 30.6583 5.35149V7.81325H29.8251C28.5753 7.77537 28.3102 8.04049 28.348 9.2903V9.55541C28.3102 10.8052 28.5753 11.0703 29.8251 11.0325H30.6583V20.5007C30.6583 22.1672 30.734 22.811 31.1128 23.5306C31.8702 25.0834 33.3852 25.7272 36.2635 25.7272C38.6117 25.7272 40.0508 25.3864 40.9598 24.591C41.8687 23.8336 42.4368 22.1672 42.4368 20.3114C42.4368 18.8343 42.2854 18.6828 40.9219 18.6828H40.3159C39.0283 18.645 38.801 18.8722 38.801 20.2356C38.7632 21.8642 38.2708 22.4323 36.7559 22.4323C35.2788 22.4323 34.938 21.9399 34.938 19.8948V11.0325ZM47.5681 17.433H58.0589C59.2709 17.433 59.536 17.2437 59.536 16.3347C59.536 14.1002 59.3845 12.358 59.0815 11.4112C58.1725 8.60858 56.1653 7.58601 51.5826 7.58601C48.0225 7.58601 46.0531 8.1541 44.8033 9.51754C43.6671 10.8052 43.2505 12.6989 43.2505 16.5619C43.2505 24.0608 44.8412 25.7272 51.8856 25.7272C55.0669 25.7272 56.847 25.3485 58.021 24.3638C58.8921 23.6821 59.4981 22.2808 59.4981 20.9931C59.4981 20.0463 59.2709 19.8569 58.021 19.8569H56.6955C55.6729 19.819 55.3699 20.0084 55.2184 20.6901C55.1427 22.1293 54.3095 22.5459 51.5826 22.5459C48.3255 22.5459 47.5681 21.7127 47.5681 18.1147V17.433ZM55.3321 14.7819H47.6059C47.6438 13.2291 47.6817 12.7368 47.9089 12.1687C48.3634 11.0703 49.1966 10.7674 51.5069 10.7674C54.6882 10.7674 55.2563 11.2976 55.3321 14.1002V14.7819ZM74.982 12.661C76.1939 12.661 76.459 12.4716 76.459 11.6384C76.459 10.8431 76.2318 10.1235 75.8152 9.47967C74.8684 8.07836 73.0883 7.58601 69.0359 7.58601C62.749 7.58601 61.0826 8.68433 61.0826 12.8504C61.0826 17.2437 62.6354 18.1147 70.3993 18.1905C72.4066 18.2284 72.9368 18.6828 72.9368 20.3871C72.9368 22.2808 72.1794 22.7353 69.0359 22.7353C66.0818 22.7353 65.5516 22.4323 65.3622 20.8037C65.2865 20.0841 64.9456 19.8948 63.8852 19.9326H62.446C61.234 19.9326 60.9689 20.122 60.9689 21.031C60.9689 22.3565 61.5749 23.7578 62.4839 24.4396C63.7337 25.3864 65.3243 25.7272 68.8465 25.7272C72.5202 25.7272 74.3003 25.3485 75.5501 24.3259C76.6105 23.417 77.1786 21.9778 77.1786 20.0463C77.1786 18.1147 76.6484 16.7134 75.588 15.9181C74.6411 15.1985 73.6943 15.0091 69.8312 14.8576C66.9908 14.7062 66.6878 14.6683 66.2712 14.5547C65.5895 14.3653 65.2865 13.7593 65.2865 12.661C65.2865 10.8431 65.8167 10.5401 68.9602 10.5401C71.3083 10.5401 72.0658 10.8052 72.2173 11.6384C72.3309 12.5095 72.6339 12.6989 73.7322 12.661H74.982ZM103.505 19.7054C103.884 18.2662 103.997 17.0164 103.997 14.7819C103.997 13.9487 103.959 13.7972 103.732 13.57C103.505 13.3427 103.429 13.3049 102.52 13.3049H101.384C99.9448 13.3049 99.8691 13.3806 99.907 16.1453V16.6756L92.2187 10.0856C90.5144 8.68433 90.2872 8.26772 90.2872 6.7528C90.2872 4.59403 90.9689 4.13955 93.9987 4.13955C96.6877 4.13955 97.4831 4.6319 97.5209 6.33619C97.5209 8.11623 97.6724 8.3056 99.0359 8.26772H100.361C101.573 8.26772 101.838 8.07836 101.838 7.20728C101.838 1.94291 100.058 0.46586 93.8094 0.46586C87.7118 0.46586 85.8181 1.94291 85.8181 6.63918C85.8181 8.94944 86.1211 9.63116 87.9012 11.184C86.2348 11.4491 85.6288 11.6384 84.9471 12.1687C83.6594 13.1912 83.0913 14.8955 83.0913 17.736C83.0913 20.8037 83.773 22.9625 85.0986 24.0608C86.6514 25.3485 88.6965 25.7272 94.0745 25.7272C98.8086 25.7272 100.513 25.1213 101.838 23.0004L103.732 24.591C104.338 25.1213 104.452 25.197 104.755 25.197C105.133 25.197 105.209 25.1213 105.815 24.4017L106.194 23.9093C106.8 23.1897 106.8 23.1897 106.8 22.9246C106.8 22.5459 106.724 22.4323 106.042 21.8642L103.505 19.7054ZM98.7329 20.3493C97.4073 21.8642 96.9529 21.9778 93.014 21.9778C88.3178 21.9778 87.6361 21.3718 87.6361 17.433C87.6361 14.5547 88.2042 13.7215 90.4387 13.4185L98.7329 20.3493ZM3.74944 29.2386C2.49963 29.2007 2.23451 29.4659 2.27239 30.7157V53.0229C2.23451 54.2728 2.49963 54.5379 3.74944 54.5H15.4144C20.9438 54.5 22.8754 52.6821 22.8754 47.5692C22.8754 45.2211 22.4966 43.8198 21.5877 42.8351C21.0196 42.2291 20.6787 42.0397 19.0123 41.6231C18.9366 41.6231 18.7472 41.5474 18.5578 41.5095C21.5119 40.5248 22.2694 39.3886 22.2694 35.8664C22.2694 32.7987 21.5119 30.9808 19.8455 30.034C18.7851 29.4659 17.4216 29.2386 14.7326 29.2386H3.74944ZM7.12015 39.8431V33.2532H13.9752C15.3386 33.2532 15.8688 33.3289 16.3233 33.5183C17.1187 33.9349 17.4595 34.7302 17.4595 36.3588C17.4595 38.1009 17.1565 38.9341 16.3612 39.3886C15.7552 39.7295 15.0356 39.8431 12.9905 39.8431H7.12015ZM7.12015 50.4854V43.441H13.2556C15.5659 43.441 16.1718 43.4789 16.7399 43.744C17.7246 44.1985 18.0655 45.0696 18.0655 47.0769C18.0655 50.1067 17.4216 50.4854 12.3845 50.4854H7.12015ZM32.6747 36.586C28.9253 36.586 27.3346 36.9269 26.0848 38.0252C24.7214 39.2371 24.1912 41.1308 24.1912 44.9938C24.1912 49.3114 24.4563 50.9399 25.3274 52.3412C26.3878 54.0834 28.3951 54.7272 32.5611 54.7272C39.454 54.7272 40.8932 53.0987 40.8932 45.2211C40.8932 41.2065 40.4009 39.3129 39.0753 38.0631C37.9012 36.9647 36.2727 36.586 32.6747 36.586ZM32.5233 39.9188C36.0076 39.9188 36.5378 40.6384 36.5378 45.2968C36.5378 50.6369 36.0455 51.3944 32.4854 51.3944C29.0389 51.3944 28.5466 50.6748 28.5466 45.4862C28.5466 40.6384 29.0768 39.9188 32.5233 39.9188ZM48.0678 40.0325H53.3322C54.582 40.0703 54.8471 39.8052 54.8092 38.5554V38.2903C54.8471 37.0405 54.582 36.7754 53.3322 36.8132H48.0678V34.3515C48.1057 33.1017 47.8406 32.8366 46.5908 32.8744H45.2273C44.0154 32.8366 43.7503 33.1017 43.7881 34.3515V36.8132H42.9549C41.7051 36.7754 41.44 37.0405 41.4779 38.2903V38.5554C41.44 39.8052 41.7051 40.0703 42.9549 40.0325H43.7881V49.5007C43.7881 51.1672 43.8639 51.811 44.2426 52.5306C45.0001 54.0834 46.515 54.7272 49.3934 54.7272C51.7415 54.7272 53.1807 54.3864 54.0896 53.591C54.9986 52.8336 55.5667 51.1672 55.5667 49.3114C55.5667 47.8343 55.4152 47.6828 54.0518 47.6828H53.4458C52.1581 47.645 51.9309 47.8722 51.9309 49.2356C51.893 50.8642 51.4006 51.4323 49.8857 51.4323C48.4087 51.4323 48.0678 50.9399 48.0678 48.8948V40.0325ZM70.3529 41.661C71.5648 41.661 71.8299 41.4716 71.8299 40.6384C71.8299 39.8431 71.6027 39.1235 71.1861 38.4797C70.2393 37.0784 68.4592 36.586 64.4068 36.586C58.1199 36.586 56.4535 37.6843 56.4535 41.8504C56.4535 46.2437 58.0063 47.1147 65.7702 47.1905C67.7775 47.2284 68.3077 47.6828 68.3077 49.3871C68.3077 51.2808 67.5503 51.7353 64.4068 51.7353C61.4527 51.7353 60.9225 51.4323 60.7331 49.8037C60.6574 49.0841 60.3165 48.8948 59.2561 48.9326H57.8169C56.6049 48.9326 56.3398 49.122 56.3398 50.031C56.3398 51.3565 56.9458 52.7578 57.8548 53.4396C59.1046 54.3864 60.6952 54.7272 64.2174 54.7272C67.8911 54.7272 69.6712 54.3485 70.921 53.3259C71.9814 52.417 72.5495 50.9778 72.5495 49.0463C72.5495 47.1147 72.0193 45.7134 70.9589 44.9181C70.012 44.1985 69.0652 44.0091 65.2021 43.8576C62.3617 43.7062 62.0587 43.6683 61.6421 43.5547C60.9604 43.3653 60.6574 42.7593 60.6574 41.661C60.6574 39.8431 61.1876 39.5401 64.3311 39.5401C66.6792 39.5401 67.4367 39.8052 67.5882 40.6384C67.7018 41.5095 68.0048 41.6989 69.1031 41.661H70.3529Z" fill="#2C2D2E"/>
<path d="M107.724 44.2661H106.966V42.7661C106.966 41.5727 106.486 40.4281 105.632 39.5841C104.779 38.7402 103.621 38.2661 102.414 38.2661H96.3449V34.85C96.9234 34.5198 97.3756 34.0101 97.6312 33.4C97.8868 32.7899 97.9317 32.1134 97.7588 31.4755C97.5859 30.8376 97.2049 30.2739 96.675 29.8719C96.145 29.4699 95.4957 29.252 94.8277 29.252C94.1597 29.252 93.5104 29.4699 92.9804 29.8719C92.4505 30.2739 92.0695 30.8376 91.8966 31.4755C91.7237 32.1134 91.7686 32.7899 92.0242 33.4C92.2798 34.0101 92.7319 34.5198 93.3104 34.85V38.2661H87.2415C86.0343 38.2661 84.8765 38.7402 84.0229 39.5841C83.1693 40.4281 82.6898 41.5727 82.6898 42.7661V44.2661H81.9311C81.3275 44.2661 80.7487 44.5032 80.3219 44.9251C79.8951 45.3471 79.6553 45.9194 79.6553 46.5161C79.6553 47.1129 79.8951 47.6852 80.3219 48.1071C80.7487 48.5291 81.3275 48.7661 81.9311 48.7661H82.6898V50.2661C82.6898 51.4596 83.1693 52.6042 84.0229 53.4481C84.8765 54.292 86.0343 54.7661 87.2415 54.7661H102.414C103.621 54.7661 104.779 54.292 105.632 53.4481C106.486 52.6042 106.966 51.4596 106.966 50.2661V48.7661H107.724C108.328 48.7661 108.907 48.5291 109.334 48.1071C109.76 47.6852 110 47.1129 110 46.5161C110 45.9194 109.76 45.3471 109.334 44.9251C108.907 44.5032 108.328 44.2661 107.724 44.2661ZM105.448 50.2661C105.447 51.0615 105.127 51.824 104.559 52.3865C103.99 52.9489 103.218 53.2652 102.414 53.2661H87.2415C86.437 53.2652 85.6657 52.9489 85.0968 52.3864C84.5279 51.824 84.2079 51.0615 84.207 50.2661V42.7661C84.2079 41.9708 84.5279 41.2082 85.0968 40.6458C85.6657 40.0834 86.437 39.767 87.2415 39.7661H102.414C103.218 39.767 103.99 40.0834 104.559 40.6458C105.127 41.2082 105.447 41.9708 105.448 42.7661V50.2661ZM91.7932 46.5161C91.7932 46.9611 91.6597 47.3962 91.4097 47.7662C91.1596 48.1362 90.8041 48.4246 90.3883 48.5949C89.9724 48.7652 89.5148 48.8097 89.0733 48.7229C88.6319 48.6361 88.2263 48.4218 87.9081 48.1071C87.5898 47.7925 87.373 47.3915 87.2852 46.9551C87.1974 46.5186 87.2425 46.0662 87.4147 45.6551C87.587 45.244 87.8787 44.8926 88.2529 44.6453C88.6272 44.3981 89.0672 44.2661 89.5173 44.2661C90.1209 44.2661 90.6998 44.5032 91.1266 44.9251C91.5534 45.3471 91.7932 45.9194 91.7932 46.5161ZM102.414 46.5161C102.414 46.9611 102.28 47.3962 102.03 47.7662C101.78 48.1362 101.425 48.4246 101.009 48.5949C100.593 48.7652 100.136 48.8097 99.694 48.7229C99.2526 48.6361 98.847 48.4218 98.5288 48.1071C98.2105 47.7925 97.9937 47.3915 97.9059 46.9551C97.8181 46.5186 97.8632 46.0662 98.0354 45.6551C98.2077 45.244 98.4994 44.8926 98.8736 44.6453C99.2479 44.3981 99.6879 44.2661 100.138 44.2661C100.742 44.2661 101.32 44.5032 101.747 44.9251C102.174 45.3471 102.414 45.9194 102.414 46.5161Z" fill="#2C2D2E"/>
</g>
</svg>
