<svg width="110" height="55" viewBox="0 0 110 55" fill="none" xmlns="http://www.w3.org/2000/svg">
<mask id="mask0" mask-type="alpha" maskUnits="userSpaceOnUse" x="0" y="0" width="110" height="55">
<rect width="110" height="55" fill="white"/>
</mask>
<g mask="url(#mask0)">
<path d="M19.5044 7.62422C20.7921 7.62422 21.0193 7.43485 21.0193 6.33653C21.0193 4.17776 20.1483 2.20836 18.8227 1.26153C17.4593 0.314704 15.6414 0.0117188 11.4753 0.0117188C6.81693 0.0117188 4.84752 0.39045 3.29472 1.52664C1.93129 2.51134 1.28745 4.36713 1.28745 7.35911C1.28745 10.8434 2.08278 12.6613 4.09006 13.646C5.37775 14.252 6.2867 14.4035 10.6042 14.6686C14.8082 14.9337 14.8082 14.9337 15.4141 15.161C16.4367 15.5018 16.8154 16.2972 16.8154 17.9636C16.8154 19.7057 16.5503 20.6905 15.9065 21.1449C15.1869 21.713 14.3916 21.8266 11.3996 21.8266C8.36972 21.8266 7.87737 21.7888 7.04416 21.3722C6.47607 21.0692 6.05946 20.3496 5.98372 19.63C5.8701 17.5849 5.83222 17.5091 4.43092 17.5091H2.68875C1.43894 17.5091 1.17383 17.7363 1.17383 18.7968C1.17383 20.2738 1.47681 21.7509 2.04491 22.7735C3.29472 25.1595 5.11263 25.7276 11.4374 25.7276C16.5503 25.7276 18.5197 25.311 20.0346 23.8339C21.133 22.7356 21.5874 21.0313 21.5874 17.8878C21.5874 14.6686 21.0572 13.1916 19.5044 12.1311C18.2925 11.26 16.9291 10.9949 12.6115 10.7298C8.44547 10.5026 8.44547 10.5026 7.80163 10.3132C6.58969 9.93448 6.13521 9.10127 6.13521 7.28336C6.13521 4.405 7.04416 3.83691 11.6647 3.83691C14.8082 3.83691 16.0201 4.36713 16.1716 5.76844C16.2852 7.5106 16.3988 7.66209 17.7623 7.62422H19.5044Z" fill="white"/>
<path d="M27.414 1.71601C27.4897 0.466197 27.1868 0.201084 25.9369 0.238957H24.6114C23.3616 0.201084 23.0965 0.466197 23.1343 1.71601V2.39773C23.0965 3.64754 23.3616 3.91265 24.6114 3.87478H25.9369C27.1868 3.91265 27.4897 3.64754 27.414 2.39773V1.71601ZM27.414 9.29064C27.4519 8.04082 27.1868 7.77571 25.9369 7.81358H24.6114C23.3616 7.77571 23.0965 8.04082 23.1343 9.29064V24.0233C23.0965 25.2731 23.3616 25.5382 24.6114 25.5003H25.9369C27.1868 25.5382 27.4519 25.2731 27.414 24.0233V9.29064Z" fill="white"/>
<path d="M34.9377 11.0328H40.2021C41.4519 11.0707 41.717 10.8056 41.6791 9.55575V9.29064C41.717 8.04082 41.4519 7.77571 40.2021 7.81358H34.9377V5.35183C34.9756 4.10202 34.7105 3.83691 33.4607 3.87478H32.0972C30.8853 3.83691 30.6202 4.10202 30.6581 5.35183V7.81358H29.8249C28.575 7.77571 28.3099 8.04082 28.3478 9.29064V9.55575C28.3099 10.8056 28.575 11.0707 29.8249 11.0328H30.6581V20.5011C30.6581 22.1675 30.7338 22.8113 31.1125 23.5309C31.87 25.0837 33.3849 25.7276 36.2633 25.7276C38.6114 25.7276 40.0506 25.3867 40.9596 24.5914C41.8685 23.8339 42.4366 22.1675 42.4366 20.3117C42.4366 18.8347 42.2851 18.6832 40.9217 18.6832H40.3157C39.028 18.6453 38.8008 18.8725 38.8008 20.236C38.7629 21.8645 38.2706 22.4326 36.7556 22.4326C35.2786 22.4326 34.9377 21.9403 34.9377 19.8951V11.0328Z" fill="white"/>
<path d="M47.5678 17.4334H58.0587C59.2706 17.4334 59.5357 17.244 59.5357 16.335C59.5357 14.1005 59.3842 12.3584 59.0813 11.4115C58.1723 8.60892 56.165 7.58635 51.5824 7.58635C48.0223 7.58635 46.0529 8.15444 44.8031 9.51788C43.6669 10.8056 43.2503 12.6992 43.2503 16.5623C43.2503 24.0612 44.841 25.7276 51.8854 25.7276C55.0667 25.7276 56.8467 25.3488 58.0208 24.3641C58.8919 23.6824 59.4979 22.2811 59.4979 20.9934C59.4979 20.0466 59.2706 19.8572 58.0208 19.8572H56.6952C55.6727 19.8194 55.3697 20.0087 55.2182 20.6904C55.1424 22.1296 54.3092 22.5462 51.5824 22.5462C48.3253 22.5462 47.5678 21.713 47.5678 18.1151V17.4334ZM55.3318 14.7822H47.6057C47.6436 13.2294 47.6814 12.7371 47.9087 12.169C48.3632 11.0707 49.1964 10.7677 51.5066 10.7677C54.688 10.7677 55.2561 11.2979 55.3318 14.1005V14.7822Z" fill="white"/>
<path d="M74.9818 12.6613C76.1937 12.6613 76.4588 12.472 76.4588 11.6388C76.4588 10.8434 76.2316 10.1238 75.815 9.48C74.8681 8.0787 73.0881 7.58635 69.0357 7.58635C62.7487 7.58635 61.0823 8.68467 61.0823 12.8507C61.0823 17.244 62.6351 18.1151 70.3991 18.1908C72.4064 18.2287 72.9366 18.6832 72.9366 20.3875C72.9366 22.2811 72.1791 22.7356 69.0357 22.7356C66.0816 22.7356 65.5513 22.4326 65.362 20.8041C65.2862 20.0845 64.9454 19.8951 63.8849 19.933H62.4457C61.2338 19.933 60.9687 20.1224 60.9687 21.0313C60.9687 22.3569 61.5747 23.7582 62.4836 24.4399C63.7334 25.3867 65.3241 25.7276 68.8463 25.7276C72.52 25.7276 74.3 25.3488 75.5499 24.3263C76.6103 23.4173 77.1784 21.9781 77.1784 20.0466C77.1784 18.1151 76.6482 16.7138 75.5877 15.9184C74.6409 15.1988 73.6941 15.0095 69.831 14.858C66.9905 14.7065 66.6875 14.6686 66.2709 14.555C65.5892 14.3656 65.2862 13.7597 65.2862 12.6613C65.2862 10.8434 65.8165 10.5405 68.9599 10.5405C71.3081 10.5405 72.0655 10.8056 72.217 11.6388C72.3306 12.5099 72.6336 12.6992 73.7319 12.6613H74.9818Z" fill="white"/>
<path d="M103.505 19.7057C103.883 18.2666 103.997 17.0168 103.997 14.7822C103.997 13.949 103.959 13.7975 103.732 13.5703C103.505 13.3431 103.429 13.3052 102.52 13.3052H101.384C99.9446 13.3052 99.8688 13.3809 99.9067 16.1457V16.6759L92.2185 10.086C90.5142 8.68467 90.2869 8.26806 90.2869 6.75314C90.2869 4.59437 90.9687 4.13989 93.9985 4.13989C96.6875 4.13989 97.4828 4.63224 97.5207 6.33653C97.5207 8.11657 97.6722 8.30593 99.0356 8.26806H100.361C101.573 8.26806 101.838 8.0787 101.838 7.20761C101.838 1.94325 100.058 0.466197 93.8091 0.466197C87.7116 0.466197 85.8179 1.94325 85.8179 6.63952C85.8179 8.94978 86.1209 9.63149 87.9009 11.1843C86.2345 11.4494 85.6285 11.6388 84.9468 12.169C83.6591 13.1916 83.091 14.8959 83.091 17.7363C83.091 20.8041 83.7728 22.9628 85.0983 24.0612C86.6511 25.3488 88.6963 25.7276 94.0742 25.7276C98.8084 25.7276 100.513 25.1216 101.838 23.0007L103.732 24.5914C104.338 25.1216 104.451 25.1974 104.754 25.1974C105.133 25.1974 105.209 25.1216 105.815 24.402L106.194 23.9097C106.8 23.1901 106.8 23.1901 106.8 22.925C106.8 22.5462 106.724 22.4326 106.042 21.8645L103.505 19.7057ZM98.7327 20.3496C97.4071 21.8645 96.9526 21.9781 93.0138 21.9781C88.3175 21.9781 87.6358 21.3722 87.6358 17.4334C87.6358 14.555 88.2039 13.7218 90.4384 13.4188L98.7327 20.3496Z" fill="white"/>
<path d="M3.7492 29.239C2.49939 29.2011 2.23428 29.4662 2.27215 30.716V53.0233C2.23428 54.2731 2.49939 54.5382 3.7492 54.5003H15.4141C20.9436 54.5003 22.8751 52.6824 22.8751 47.5696C22.8751 45.2214 22.4964 43.8201 21.5874 42.8354C21.0194 42.2294 20.6785 42.0401 19.0121 41.6235C18.9363 41.6235 18.747 41.5477 18.5576 41.5099C21.5117 40.5252 22.2692 39.389 22.2692 35.8668C22.2692 32.799 21.5117 30.9811 19.8453 30.0343C18.7848 29.4662 17.4214 29.239 14.7324 29.239H3.7492ZM7.11991 39.8434V33.2535H13.9749C15.3384 33.2535 15.8686 33.3293 16.3231 33.5186C17.1184 33.9352 17.4593 34.7306 17.4593 36.3591C17.4593 38.1013 17.1563 38.9345 16.361 39.389C15.755 39.7298 15.0354 39.8434 12.9902 39.8434H7.11991ZM7.11991 50.4858V43.4414H13.2554C15.5656 43.4414 16.1716 43.4793 16.7397 43.7444C17.7244 44.1988 18.0652 45.0699 18.0652 47.0772C18.0652 50.1071 17.4214 50.4858 12.3843 50.4858H7.11991Z" fill="white"/>
<path d="M32.6745 36.5863C28.9251 36.5863 27.3344 36.9272 26.0846 38.0255C24.7212 39.2375 24.1909 41.1311 24.1909 44.9942C24.1909 49.3117 24.456 50.9403 25.3271 52.3416C26.3876 54.0837 28.3948 54.7276 32.5609 54.7276C39.4538 54.7276 40.893 53.099 40.893 45.2214C40.893 41.2069 40.4006 39.3132 39.0751 38.0634C37.901 36.9651 36.2725 36.5863 32.6745 36.5863ZM32.523 39.9192C36.0073 39.9192 36.5376 40.6388 36.5376 45.2972C36.5376 50.6373 36.0452 51.3947 32.4851 51.3947C29.0387 51.3947 28.5463 50.6751 28.5463 45.4865C28.5463 40.6388 29.0766 39.9192 32.523 39.9192Z" fill="white"/>
<path d="M48.0676 40.0328H53.3319C54.5817 40.0707 54.8469 39.8056 54.809 38.5557V38.2906C54.8469 37.0408 54.5817 36.7757 53.3319 36.8136H48.0676V34.3518C48.1054 33.102 47.8403 32.8369 46.5905 32.8748H45.2271C44.0151 32.8369 43.75 33.102 43.7879 34.3518V36.8136H42.9547C41.7049 36.7757 41.4398 37.0408 41.4776 38.2906V38.5557C41.4398 39.8056 41.7049 40.0707 42.9547 40.0328H43.7879V49.5011C43.7879 51.1675 43.8637 51.8113 44.2424 52.5309C44.9998 54.0837 46.5148 54.7276 49.3931 54.7276C51.7413 54.7276 53.1804 54.3867 54.0894 53.5914C54.9984 52.8339 55.5664 51.1675 55.5664 49.3117C55.5664 47.8347 55.415 47.6832 54.0515 47.6832H53.4456C52.1579 47.6453 51.9306 47.8725 51.9306 49.236C51.8928 50.8645 51.4004 51.4326 49.8855 51.4326C48.4084 51.4326 48.0676 50.9403 48.0676 48.8951V40.0328Z" fill="white"/>
<path d="M70.3527 41.6613C71.5646 41.6613 71.8297 41.472 71.8297 40.6388C71.8297 39.8434 71.6025 39.1238 71.1859 38.48C70.239 37.0787 68.459 36.5863 64.4066 36.5863C58.1196 36.5863 56.4532 37.6847 56.4532 41.8507C56.4532 46.244 58.006 47.1151 65.77 47.1908C67.7773 47.2287 68.3075 47.6832 68.3075 49.3875C68.3075 51.2811 67.55 51.7356 64.4066 51.7356C61.4525 51.7356 60.9222 51.4326 60.7329 49.8041C60.6571 49.0845 60.3163 48.8951 59.2558 48.933H57.8166C56.6047 48.933 56.3396 49.1224 56.3396 50.0313C56.3396 51.3569 56.9456 52.7582 57.8545 53.4399C59.1043 54.3867 60.695 54.7276 64.2172 54.7276C67.8909 54.7276 69.6709 54.3488 70.9208 53.3263C71.9812 52.4173 72.5493 50.9781 72.5493 49.0466C72.5493 47.1151 72.0191 45.7138 70.9586 44.9184C70.0118 44.1988 69.065 44.0095 65.2019 43.858C62.3614 43.7065 62.0584 43.6686 61.6418 43.555C60.9601 43.3656 60.6571 42.7597 60.6571 41.6613C60.6571 39.8434 61.1874 39.5405 64.3308 39.5405C66.679 39.5405 67.4364 39.8056 67.5879 40.6388C67.7015 41.5099 68.0045 41.6992 69.1028 41.6613H70.3527Z" fill="white"/>
<path d="M107.724 44.2668H106.965V42.7668C106.965 41.5734 106.486 40.4288 105.632 39.5849C104.778 38.741 103.621 38.2668 102.413 38.2668H96.3445V34.8507C96.923 34.5205 97.3751 34.0109 97.6307 33.4007C97.8863 32.7906 97.9312 32.1141 97.7583 31.4762C97.5854 30.8383 97.2044 30.2746 96.6745 29.8726C96.1445 29.4706 95.4952 29.2527 94.8272 29.2527C94.1592 29.2527 93.5099 29.4706 92.9799 29.8726C92.45 30.2746 92.069 30.8383 91.8961 31.4762C91.7232 32.1141 91.7681 32.7906 92.0237 33.4007C92.2794 34.0109 92.7315 34.5205 93.31 34.8507V38.2668H87.241C86.0338 38.2668 84.8761 38.741 84.0225 39.5849C83.1688 40.4288 82.6893 41.5734 82.6893 42.7668V44.2668H81.9307C81.3271 44.2668 80.7482 44.5039 80.3214 44.9259C79.8946 45.3478 79.6548 45.9201 79.6548 46.5168C79.6548 47.1136 79.8946 47.6859 80.3214 48.1078C80.7482 48.5298 81.3271 48.7668 81.9307 48.7668H82.6893V50.2668C82.6893 51.4603 83.1688 52.6049 84.0225 53.4488C84.8761 54.2927 86.0338 54.7668 87.241 54.7668H102.413C103.621 54.7668 104.778 54.2927 105.632 53.4488C106.486 52.6049 106.965 51.4603 106.965 50.2668V48.7668H107.724C108.327 48.7668 108.906 48.5298 109.333 48.1078C109.76 47.6859 110 47.1136 110 46.5168C110 45.9201 109.76 45.3478 109.333 44.9259C108.906 44.5039 108.327 44.2668 107.724 44.2668ZM105.448 50.2668C105.447 51.0622 105.127 51.8248 104.558 52.3872C103.989 52.9496 103.218 53.2659 102.413 53.2668H87.241C86.4365 53.2659 85.6652 52.9496 85.0963 52.3872C84.5275 51.8247 84.2075 51.0622 84.2065 50.2668V42.7668C84.2074 41.9715 84.5274 41.2089 85.0963 40.6465C85.6652 40.0841 86.4365 39.7677 87.241 39.7668H102.413C103.218 39.7677 103.989 40.0841 104.558 40.6465C105.127 41.2089 105.447 41.9715 105.448 42.7668V50.2668ZM91.7927 46.5168C91.7927 46.9619 91.6593 47.3969 91.4092 47.7669C91.1591 48.1369 90.8037 48.4253 90.3878 48.5956C89.9719 48.7659 89.5144 48.8104 89.0729 48.7236C88.6314 48.6368 88.2259 48.4225 87.9076 48.1078C87.5893 47.7932 87.3726 47.3923 87.2847 46.9558C87.1969 46.5193 87.242 46.0669 87.4143 45.6558C87.5865 45.2447 87.8782 44.8933 88.2525 44.646C88.6267 44.3988 89.0667 44.2668 89.5169 44.2668C90.1205 44.2668 90.6993 44.5039 91.1262 44.9259C91.553 45.3478 91.7927 45.9201 91.7927 46.5168ZM102.413 46.5168C102.413 46.9619 102.28 47.3969 102.03 47.7669C101.78 48.1369 101.424 48.4253 101.008 48.5956C100.593 48.7659 100.135 48.8104 99.6936 48.7236C99.2521 48.6368 98.8466 48.4225 98.5283 48.1078C98.21 47.7932 97.9932 47.3923 97.9054 46.9558C97.8176 46.5193 97.8627 46.0669 98.0349 45.6558C98.2072 45.2447 98.4989 44.8933 98.8732 44.646C99.2474 44.3988 99.6874 44.2668 100.138 44.2668C100.741 44.2668 101.32 44.5039 101.747 44.9259C102.174 45.3478 102.413 45.9201 102.413 46.5168Z" fill="white"/>
</g>
</svg>
