<svg width="150" height="49" viewBox="0 0 150 49" fill="none" xmlns="http://www.w3.org/2000/svg">
<path d="M46.92 31C46.36 31 46.08 30.72 46.08 30.16V18.28C46.08 17.72 46.36 17.44 46.92 17.44H54.28C54.54 17.44 54.7433 17.5167 54.89 17.67C55.0433 17.8167 55.12 18.02 55.12 18.28C55.12 18.84 54.84 19.12 54.28 19.12H47.76V23.32H51.78C52.34 23.32 52.62 23.6 52.62 24.16C52.62 24.72 52.34 25 51.78 25H47.76V30.16C47.76 30.72 47.48 31 46.92 31ZM57.0333 31C56.7466 31 56.5333 30.9333 56.3933 30.8C56.2599 30.66 56.1933 30.4467 56.1933 30.16V18.3C56.1933 18.0067 56.2599 17.7933 56.3933 17.66C56.5333 17.5267 56.7466 17.46 57.0333 17.46C57.3266 17.46 57.5399 17.5267 57.6733 17.66C57.8066 17.7933 57.8733 18.0067 57.8733 18.3V30.16C57.8733 30.4467 57.8066 30.66 57.6733 30.8C57.5399 30.9333 57.3266 31 57.0333 31ZM61.8731 31C61.3131 31 61.0331 30.72 61.0331 30.16V18.28C61.0331 17.72 61.3131 17.44 61.8731 17.44C62.1598 17.44 62.4398 17.6067 62.7131 17.94L70.7531 28.3H70.3331V18.28C70.3331 17.72 70.6131 17.44 71.1731 17.44C71.7331 17.44 72.0131 17.72 72.0131 18.28V30.16C72.0131 30.72 71.7331 31 71.1731 31C70.8731 31 70.5931 30.8333 70.3331 30.5L62.2931 20.14H62.7131V30.16C62.7131 30.72 62.4331 31 61.8731 31ZM76.0098 31C75.7232 31 75.5098 30.9333 75.3698 30.8C75.2365 30.66 75.1698 30.4467 75.1698 30.16V18.3C75.1698 18.0067 75.2365 17.7933 75.3698 17.66C75.5098 17.5267 75.7232 17.46 76.0098 17.46C76.3032 17.46 76.5165 17.5267 76.6498 17.66C76.7832 17.7933 76.8498 18.0067 76.8498 18.3V30.16C76.8498 30.4467 76.7832 30.66 76.6498 30.8C76.5165 30.9333 76.3032 31 76.0098 31ZM83.3997 31C82.2597 31 81.3697 30.77 80.7297 30.31C80.0964 29.85 79.6997 29.14 79.5397 28.18C79.513 27.8867 79.573 27.6667 79.7197 27.52C79.8664 27.3733 80.0797 27.3 80.3597 27.3C80.6397 27.3 80.843 27.3667 80.9697 27.5C81.103 27.6333 81.193 27.84 81.2397 28.12C81.3397 28.58 81.553 28.8967 81.8797 29.07C82.213 29.2367 82.7197 29.32 83.3997 29.32H86.2797C87.1397 29.32 87.723 29.1667 88.0297 28.86C88.343 28.5467 88.4997 27.9667 88.4997 27.12C88.4997 26.26 88.3397 25.6733 88.0197 25.36C87.6997 25.04 87.1197 24.88 86.2797 24.88H83.7997C82.5397 24.88 81.603 24.5733 80.9897 23.96C80.383 23.34 80.0797 22.4 80.0797 21.14C80.0797 19.8867 80.3797 18.9567 80.9797 18.35C81.5864 17.7433 82.5197 17.44 83.7797 17.44H86.1597C87.2197 17.44 88.0497 17.6567 88.6497 18.09C89.2564 18.5233 89.6397 19.1867 89.7997 20.08C89.8397 20.3667 89.7864 20.5867 89.6397 20.74C89.493 20.8867 89.273 20.96 88.9797 20.96C88.713 20.96 88.513 20.89 88.3797 20.75C88.2464 20.61 88.1597 20.4067 88.1197 20.14C88.013 19.7467 87.8097 19.48 87.5097 19.34C87.2097 19.1933 86.7597 19.12 86.1597 19.12H83.7797C82.9797 19.12 82.443 19.2633 82.1697 19.55C81.8964 19.83 81.7597 20.36 81.7597 21.14C81.7597 21.9267 81.8997 22.4667 82.1797 22.76C82.4597 23.0533 82.9997 23.2 83.7997 23.2H86.2797C87.593 23.2 88.5697 23.52 89.2097 24.16C89.8564 24.8 90.1797 25.7867 90.1797 27.12C90.1797 28.4467 89.8597 29.4267 89.2197 30.06C88.5797 30.6867 87.5997 31 86.2797 31H83.3997ZM93.6973 31C93.4773 31 93.2807 30.9167 93.1073 30.75C92.9407 30.5767 92.8573 30.38 92.8573 30.16V18.28C92.8573 18.06 92.9407 17.8667 93.1073 17.7C93.2807 17.5267 93.4773 17.44 93.6973 17.44C93.9173 17.44 94.1107 17.5267 94.2773 17.7C94.4507 17.8667 94.5373 18.06 94.5373 18.28V23.3H102.697V18.28C102.697 18.06 102.781 17.8667 102.947 17.7C103.114 17.5267 103.311 17.44 103.537 17.44C103.757 17.44 103.951 17.5267 104.117 17.7C104.291 17.8667 104.377 18.06 104.377 18.28V30.16C104.377 30.38 104.291 30.5767 104.117 30.75C103.951 30.9167 103.757 31 103.537 31C103.311 31 103.114 30.9167 102.947 30.75C102.781 30.5767 102.697 30.38 102.697 30.16V24.98H94.5373V30.16C94.5373 30.38 94.4507 30.5767 94.2773 30.75C94.1107 30.9167 93.9173 31 93.6973 31Z" fill="#2C2D2E"/>
<line x1="150" y1="0.5" x2="-4.37114e-08" y2="0.499987" stroke="#09203F"/>
<line x1="150" y1="48.5" x2="-4.37114e-08" y2="48.5" stroke="#09203F"/>
</svg>
