<svg width="149" height="48" viewBox="0 0 149 48" fill="none" xmlns="http://www.w3.org/2000/svg">
<path d="M34.1001 14.2091C36.4956 14.2091 36.9183 13.8557 36.9183 11.8056C36.9183 7.77614 35.2979 4.10015 32.832 2.33284C30.2956 0.565539 26.9137 0 19.1637 0C10.4978 0 6.83412 0.706921 3.94547 2.82769C1.4091 4.66568 0.211365 8.1296 0.211365 13.7143C0.211365 20.218 1.69092 23.6112 5.42502 25.4492C7.82049 26.5803 9.5114 26.863 17.5433 27.3579C25.3637 27.8527 25.3637 27.8527 26.491 28.2769C28.3933 28.9131 29.0978 30.3976 29.0978 33.5081C29.0978 36.7599 28.6047 38.5979 27.4069 39.4462C26.0683 40.5066 24.5887 40.7187 19.0228 40.7187C13.3864 40.7187 12.4705 40.648 10.9205 39.8704C9.86368 39.3049 9.08867 37.9617 8.94776 36.6186C8.7364 32.8012 8.66595 32.6598 6.05912 32.6598H2.81819C0.493184 32.6598 0 33.0839 0 35.0633C0 37.8203 0.563639 40.5773 1.62046 42.486C3.94547 46.9396 7.3273 48 19.0933 48C28.6047 48 32.2683 47.2224 35.0865 44.4654C37.1297 42.4153 37.9752 39.2342 37.9752 33.3667C37.9752 27.3579 36.9888 24.6009 34.1001 22.6215C31.8456 20.9956 29.3092 20.5007 21.2774 20.0059C13.5273 19.5817 13.5273 19.5817 12.3296 19.2283C10.075 18.5214 9.22958 16.9661 9.22958 13.5729C9.22958 8.20029 10.9205 7.13991 19.516 7.13991C25.3637 7.13991 27.6183 8.1296 27.9001 10.7452C28.1115 13.9971 28.3228 14.2798 30.8592 14.2091H34.1001Z" fill="#09203F"/>
<path d="M112.834 0.00634536C110.509 -0.0643459 110.016 0.430501 110.086 2.76334V44.401C110.016 46.7339 110.509 47.2287 112.834 47.158H134.534C144.821 47.158 148.414 43.7648 148.414 34.2214C148.414 29.8385 147.709 27.2228 146.018 25.3848C144.962 24.2538 144.327 23.9003 141.227 23.1227C141.087 23.1227 140.734 22.9813 140.382 22.9106C145.877 21.0726 147.287 18.9519 147.287 12.3775C147.287 6.65141 145.877 3.25819 142.777 1.49088C140.805 0.430502 138.268 0.00634536 133.266 0.00634536H112.834ZM119.105 19.8002V7.49972H131.857C134.393 7.49972 135.38 7.6411 136.225 7.99457C137.705 8.77218 138.339 10.2567 138.339 13.2965C138.339 16.5483 137.775 18.1035 136.296 18.9519C135.168 19.5881 133.83 19.8002 130.025 19.8002H119.105ZM119.105 39.6647V26.5159H130.518C134.816 26.5159 135.943 26.5866 137 27.0815C138.832 27.9298 139.466 29.5557 139.466 33.3024C139.466 38.9577 138.268 39.6647 128.898 39.6647H119.105Z" fill="#09203F"/>
<path d="M98.2163 28.0247H96.805V25.2249C96.805 22.9972 95.9129 20.8608 94.325 19.2856C92.737 17.7104 90.5832 16.8254 88.3375 16.8254H77.0475V10.4491C78.1237 9.83277 78.9648 8.8814 79.4403 7.74255C79.9159 6.60371 79.9993 5.34103 79.6777 4.15036C79.356 2.95969 78.6473 1.90756 77.6615 1.15715C76.6756 0.406745 75.4677 0 74.225 0C72.9823 0 71.7744 0.406745 70.7885 1.15715C69.8027 1.90756 69.094 2.95969 68.7724 4.15036C68.4507 5.34103 68.5342 6.60371 69.0097 7.74255C69.4852 8.8814 70.3264 9.83277 71.4025 10.4491V16.8254H60.1125C57.8668 16.8254 55.7131 17.7104 54.1251 19.2856C52.5371 20.8608 51.645 22.9972 51.645 25.2249V28.0247H50.2338C49.1109 28.0247 48.034 28.4672 47.2401 29.2548C46.4461 30.0424 46 31.1106 46 32.2245C46 33.3383 46.4461 34.4066 47.2401 35.1942C48.034 35.9818 49.1109 36.4242 50.2338 36.4242H51.645V39.2241C51.645 41.4517 52.5371 43.5882 54.1251 45.1634C55.7131 46.7386 57.8668 47.6236 60.1125 47.6236H88.3375C90.5832 47.6236 92.737 46.7386 94.325 45.1634C95.9129 43.5882 96.805 41.4517 96.805 39.2241V36.4242H98.2163C99.3391 36.4242 100.416 35.9818 101.21 35.1942C102.004 34.4066 102.45 33.3383 102.45 32.2245C102.45 31.1106 102.004 30.0424 101.21 29.2548C100.416 28.4672 99.3391 28.0247 98.2163 28.0247ZM93.9825 39.2241C93.9808 40.7087 93.3855 42.132 92.3273 43.1818C91.269 44.2315 89.8342 44.822 88.3375 44.8237H60.1125C58.6159 44.822 57.181 44.2315 56.1228 43.1817C55.0645 42.132 54.4692 40.7087 54.4675 39.2241V25.2249C54.4692 23.7403 55.0645 22.317 56.1227 21.2672C57.181 20.2174 58.6159 19.6269 60.1125 19.6253H88.3375C89.8342 19.6269 91.269 20.2174 92.3273 21.2672C93.3856 22.317 93.9809 23.7403 93.9825 25.2249V39.2241ZM68.58 32.2245C68.58 33.0551 68.3317 33.8671 67.8665 34.5577C67.4013 35.2484 66.7401 35.7867 65.9665 36.1045C65.1928 36.4224 64.3416 36.5056 63.5203 36.3435C62.699 36.1815 61.9446 35.7815 61.3525 35.1942C60.7604 34.6068 60.3572 33.8585 60.1938 33.0438C60.0305 32.2292 60.1143 31.3847 60.4348 30.6173C60.7552 29.8499 61.2979 29.194 61.9941 28.7325C62.6903 28.2711 63.5089 28.0247 64.3463 28.0247C65.4691 28.0247 66.546 28.4672 67.34 29.2548C68.1339 30.0424 68.58 31.1106 68.58 32.2245ZM88.3375 32.2245C88.3375 33.0551 88.0892 33.8671 87.624 34.5577C87.1588 35.2484 86.4976 35.7867 85.724 36.1045C84.9504 36.4224 84.0991 36.5056 83.2778 36.3435C82.4565 36.1815 81.7021 35.7815 81.11 35.1942C80.5179 34.6068 80.1147 33.8585 79.9514 33.0438C79.788 32.2292 79.8718 31.3847 80.1923 30.6173C80.5127 29.8499 81.0554 29.194 81.7516 28.7325C82.4479 28.2711 83.2664 28.0247 84.1038 28.0247C85.2266 28.0247 86.3035 28.4672 87.0975 29.2548C87.8915 30.0424 88.3375 31.1106 88.3375 32.2245Z" fill="#09203F"/>
</svg>
