<svg width="75" height="24" viewBox="0 0 75 24" fill="none" xmlns="http://www.w3.org/2000/svg">
<path d="M17.0501 7.10457C18.2478 7.10457 18.4592 6.92784 18.4592 5.9028C18.4592 3.88807 17.6489 2.05007 16.416 1.16642C15.1478 0.282769 13.4569 0 9.58186 0C5.24889 0 3.41706 0.353461 1.97274 1.41384C0.704548 2.33284 0.105682 4.0648 0.105682 6.85714C0.105682 10.109 0.845458 11.8056 2.71251 12.7246C3.91024 13.2901 4.7557 13.4315 8.77163 13.6789C12.6819 13.9264 12.6819 13.9264 13.2455 14.1384C14.1966 14.4566 14.5489 15.1988 14.5489 16.754C14.5489 18.38 14.3023 19.299 13.7035 19.7231C13.0341 20.2533 12.2944 20.3594 9.5114 20.3594C6.69321 20.3594 6.23525 20.324 5.46025 19.9352C4.93184 19.6524 4.54434 18.9809 4.47388 18.3093C4.3682 16.4006 4.33297 16.3299 3.02956 16.3299H1.4091C0.246592 16.3299 0 16.542 0 17.5317C0 18.9102 0.281819 20.2887 0.810231 21.243C1.97274 23.4698 3.66365 24 9.54663 24C14.3023 24 16.1342 23.6112 17.5433 22.2327C18.5648 21.2077 18.9876 19.6171 18.9876 16.6834C18.9876 13.6789 18.4944 12.3004 17.0501 11.3108C15.9228 10.4978 14.6546 10.2504 10.6387 10.0029C6.76366 9.79087 6.76366 9.79087 6.1648 9.61414C5.03752 9.26068 4.61479 8.48306 4.61479 6.78645C4.61479 4.10015 5.46025 3.56996 9.75799 3.56996C12.6819 3.56996 13.8091 4.0648 13.9501 5.37261C14.0557 6.99853 14.1614 7.13991 15.4296 7.10457H17.0501Z" fill="white"/>
<path d="M56.4171 0.00317268C55.2546 -0.032173 55.008 0.215251 55.0432 1.38167V22.2005C55.008 23.3669 55.2546 23.6144 56.4171 23.579H67.2671C72.4103 23.579 74.2069 21.8824 74.2069 17.1107C74.2069 14.9192 73.8546 13.6114 73.0092 12.6924C72.4808 12.1269 72.1637 11.9502 70.6137 11.5613C70.5433 11.5613 70.3671 11.4907 70.191 11.4553C72.9387 10.5363 73.6433 9.47593 73.6433 6.18874C73.6433 3.32571 72.9387 1.62909 71.3887 0.745442C70.4024 0.215251 69.1342 0.00317268 66.633 0.00317268H56.4171ZM59.5523 9.90008V3.74986H65.9285C67.1967 3.74986 67.6898 3.82055 68.1126 3.99728C68.8524 4.38609 69.1694 5.12836 69.1694 6.64824C69.1694 8.27416 68.8876 9.05177 68.1478 9.47593C67.5842 9.79404 66.9148 9.90008 65.0126 9.90008H59.5523ZM59.5523 19.8323V13.258H65.2592C67.408 13.258 67.9717 13.2933 68.5001 13.5407C69.416 13.9649 69.733 14.7778 69.733 16.6512C69.733 19.4789 69.1342 19.8323 64.4489 19.8323H59.5523Z" fill="white"/>
<path d="M49.1081 14.0124H48.4025V12.6125C48.4025 11.4986 47.9565 10.4304 47.1625 9.64279C46.3685 8.85519 45.2916 8.41272 44.1688 8.41272H38.5238V5.22455C39.0618 4.91638 39.4824 4.4407 39.7202 3.87128C39.9579 3.30185 39.9996 2.67052 39.8388 2.07518C39.678 1.47984 39.3237 0.953778 38.8307 0.578575C38.3378 0.203372 37.7338 0 37.1125 0C36.4912 0 35.8872 0.203372 35.3943 0.578575C34.9013 0.953778 34.547 1.47984 34.3862 2.07518C34.2254 2.67052 34.2671 3.30185 34.5049 3.87128C34.7426 4.4407 35.1632 4.91638 35.7013 5.22455V8.41272H30.0563C28.9334 8.41272 27.8565 8.85519 27.0625 9.64279C26.2686 10.4304 25.8225 11.4986 25.8225 12.6125V14.0124H25.1169C24.5555 14.0124 24.017 14.2336 23.62 14.6274C23.223 15.0212 23 15.5553 23 16.1122C23 16.6692 23.223 17.2033 23.62 17.5971C24.017 17.9909 24.5555 18.2121 25.1169 18.2121H25.8225V19.612C25.8225 20.7259 26.2686 21.7941 27.0625 22.5817C27.8565 23.3693 28.9334 23.8118 30.0563 23.8118H44.1688C45.2916 23.8118 46.3685 23.3693 47.1625 22.5817C47.9565 21.7941 48.4025 20.7259 48.4025 19.612V18.2121H49.1081C49.6696 18.2121 50.208 17.9909 50.605 17.5971C51.002 17.2033 51.225 16.6692 51.225 16.1122C51.225 15.5553 51.002 15.0212 50.605 14.6274C50.208 14.2336 49.6696 14.0124 49.1081 14.0124ZM46.9913 19.612C46.9904 20.3543 46.6928 21.066 46.1636 21.5909C45.6345 22.1158 44.9171 22.411 44.1688 22.4119H30.0563C29.3079 22.411 28.5905 22.1158 28.0614 21.5909C27.5323 21.066 27.2346 20.3543 27.2337 19.612V12.6125C27.2346 11.8702 27.5322 11.1585 28.0614 10.6336C28.5905 10.1087 29.3079 9.81347 30.0563 9.81263H44.1688C44.9171 9.81345 45.6345 10.1087 46.1637 10.6336C46.6928 11.1585 46.9904 11.8702 46.9913 12.6125V19.612ZM34.29 16.1122C34.29 16.5276 34.1658 16.9335 33.9332 17.2789C33.7006 17.6242 33.37 17.8933 32.9832 18.0523C32.5964 18.2112 32.1708 18.2528 31.7601 18.1718C31.3495 18.0907 30.9723 17.8908 30.6763 17.5971C30.3802 17.3034 30.1786 16.9292 30.0969 16.5219C30.0152 16.1146 30.0572 15.6924 30.2174 15.3087C30.3776 14.925 30.6489 14.597 30.9971 14.3663C31.3452 14.1355 31.7544 14.0124 32.1731 14.0124C32.7346 14.0124 33.273 14.2336 33.67 14.6274C34.067 15.0212 34.29 15.5553 34.29 16.1122ZM44.1688 16.1122C44.1688 16.5276 44.0446 16.9335 43.812 17.2789C43.5794 17.6242 43.2488 17.8933 42.862 18.0523C42.4752 18.2112 42.0495 18.2528 41.6389 18.1718C41.2283 18.0907 40.8511 17.8908 40.555 17.5971C40.259 17.3034 40.0574 16.9292 39.9757 16.5219C39.894 16.1146 39.9359 15.6924 40.0961 15.3087C40.2564 14.925 40.5277 14.597 40.8758 14.3663C41.2239 14.1355 41.6332 14.0124 42.0519 14.0124C42.6133 14.0124 43.1517 14.2336 43.5487 14.6274C43.9457 15.0212 44.1688 15.5553 44.1688 16.1122Z" fill="white"/>
</svg>
