<svg width="383" height="274" viewBox="0 0 383 274" fill="none" xmlns="http://www.w3.org/2000/svg">
<path d="M297.523 187.231L297.523 163.364L290.041 160.072L290.041 183.939L297.523 187.231Z" stroke="#E5752C" stroke-width="2.57718"/>
<path d="M297.523 201.223L297.523 192.993L290.041 189.7L290.041 197.931L297.523 201.223Z" stroke="#E5752C" stroke-width="2.57718"/>
<path d="M340.454 98.8992L238.256 40.0873M340.454 98.8992L350.095 92.1503M340.454 98.8992C346.239 102.756 350.095 105.648 350.095 116.254M238.256 40.0873L248.861 33.3384M238.256 40.0873C228.615 34.3016 218.973 36.2299 218.973 42.9797M218.973 42.9797L218.009 186.774C218.009 196.414 219.938 202.2 228.615 208.949L319.243 261.103L333.705 269.689M218.973 42.9797C218.973 36.2299 234.504 24.1402 248.861 33.3384M333.705 269.689C348.167 278.366 361.665 264.869 361.665 255.227M333.705 269.689C340.997 274.065 350.095 269.689 350.095 261.103M361.665 255.227V110.378M361.665 255.227L350.095 261.103M361.665 110.378C361.665 101.792 357.808 96.971 350.095 92.1503M361.665 110.378L350.095 116.254M350.095 92.1503L248.861 33.3384M350.095 116.254V261.103" stroke="#E5752C" stroke-width="2.57718"/>
<path d="M341.065 167.075L290.042 138.062M341.065 167.075V127.057L290.042 98.0435V138.062M341.065 167.075L330.06 140.563L324.057 144.565L313.552 119.053L290.042 138.062" stroke="#E5752C" stroke-width="2.57718"/>
<path d="M230.014 95.0421L278.036 122.605V133.059L230.014 105.497V95.0421Z" stroke="#E5752C" stroke-width="2.57718"/>
<path d="M253.967 114.087L240.932 106.566L267.002 121.609L253.967 114.087Z" stroke="#E5752C" stroke-width="2.57718"/>
<path d="M290.042 216.097L341.065 245.11V256.115L290.042 227.102V216.097Z" stroke="#E5752C" stroke-width="2.57718"/>
<path d="M316.996 237.143L303.961 229.621L330.031 244.665L316.996 237.143Z" stroke="#E5752C" stroke-width="2.57718"/>
<path fill-rule="evenodd" clip-rule="evenodd" d="M279.393 175.14V172.165L228.62 142.947L228.62 142.948V145.921L279.393 175.14ZM228.62 149.752L279.393 178.936V181.91L228.62 152.726V149.752ZM228.62 156.481L264.293 177.01L263.007 179.244L228.62 159.455V156.482L228.62 156.481ZM279.393 195.741L228.62 166.523V163.548L279.393 192.767V195.741ZM279.393 201.954V198.98L228.62 169.761L228.62 169.762V172.736L279.393 201.954ZM228.62 176.31L279.393 205.528V208.503L228.62 179.284V176.311L228.62 176.31ZM279.393 188.674V185.699L270.078 180.339L268.792 182.573L279.393 188.674ZM228.62 183.295L264.293 203.824L263.007 206.059L228.62 186.27V183.296L228.62 183.295ZM228.62 190.362L279.393 219.581V222.556L228.62 193.337V190.362ZM279.393 215.489V212.514L270.078 207.153L268.792 209.388L279.393 215.489Z" fill="#E5752C"/>
<path fill-rule="evenodd" clip-rule="evenodd" d="M228.62 60.9556V63.9325L279.393 93.2309V90.2541L228.62 60.9556ZM279.394 99.4509L279.393 96.4746L228.62 67.2105V70.1864L279.394 99.4509ZM228.62 73.3951L261.24 92.2182L259.951 94.4514L228.62 76.3719V73.3951ZM279.393 112.166L228.62 82.8675V79.8907L279.393 109.189V112.166ZM279.393 105.67V102.693L266.542 95.2779L265.253 97.5111L279.393 105.67Z" fill="#E5752C"/>
<path d="M218.009 43.0186L350.069 119.053" stroke="#E5752C" stroke-width="2.57718"/>
<path fill-rule="evenodd" clip-rule="evenodd" d="M365.254 227.577L363.368 228.136C364.009 228.008 364.638 227.822 365.254 227.577ZM336.802 179.558L338.688 178.999C338.047 179.127 337.417 179.313 336.802 179.558Z" fill="#F7F7F7"/>
<path d="M372.734 201.661C375.694 213.596 372.78 224.572 365.254 227.577L363.368 228.136L356.955 230.04C358.028 229.611 359.006 229.022 359.888 228.29C366.154 223.09 367.504 210.734 362.625 198.513C358.148 187.3 349.792 179.615 342.168 178.845C340.985 178.725 339.819 178.772 338.688 178.999L345.1 177.096C353.797 173.624 365.358 182.11 370.923 196.05C371.672 197.926 372.274 199.805 372.734 201.661Z" fill="#F7F7F7"/>
<path fill-rule="evenodd" clip-rule="evenodd" d="M356.955 230.04C348.259 233.511 336.698 225.025 331.132 211.085C325.567 197.145 328.106 183.03 336.802 179.558L338.688 178.999C339.819 178.772 340.985 178.725 342.168 178.845C349.792 179.615 358.148 187.3 362.625 198.513C367.504 210.734 366.154 223.09 359.888 228.29C359.006 229.022 358.028 229.611 356.955 230.04ZM339.132 210.475L355.292 220.024C357.61 214.362 356.131 210.887 351.619 206.068C355.292 204.599 354.557 196.519 349.415 193.581C341.824 190.189 341.336 199.457 345.1 203.13C339.132 203.13 339.866 205.333 339.132 210.475Z" fill="#F7F7F7"/>
<path d="M355.292 220.024L339.132 210.475C339.866 205.333 339.132 203.13 345.1 203.13C341.336 199.457 341.824 190.189 349.415 193.581C354.557 196.519 355.292 204.599 351.619 206.068C356.131 210.887 357.61 214.362 355.292 220.024Z" fill="#F7F7F7"/>
<path d="M356.955 230.04C348.259 233.511 336.698 225.025 331.132 211.085C325.567 197.145 328.106 183.03 336.802 179.558M356.955 230.04C358.028 229.611 359.006 229.022 359.888 228.29C366.154 223.09 367.504 210.734 362.625 198.513C358.148 187.3 349.792 179.615 342.168 178.845C340.985 178.725 339.819 178.772 338.688 178.999M356.955 230.04L363.368 228.136M336.802 179.558L338.688 178.999M336.802 179.558C337.417 179.313 338.047 179.127 338.688 178.999M365.254 227.577C373.95 224.105 376.489 209.99 370.923 196.05M365.254 227.577L363.368 228.136M365.254 227.577C364.638 227.822 364.009 228.008 363.368 228.136M365.254 227.577C372.78 224.572 375.694 213.596 372.734 201.661M370.923 196.05C365.358 182.11 353.797 173.624 345.1 177.096L338.688 178.999M370.923 196.05C371.672 197.926 372.274 199.805 372.734 201.661M372.734 201.661L364.551 204.599M373.847 211.944L365.663 214.882M355.292 220.024L339.132 210.475C339.866 205.333 339.132 203.13 345.1 203.13C341.336 199.457 341.824 190.189 349.415 193.581C354.557 196.519 355.292 204.599 351.619 206.068C356.131 210.887 357.61 214.362 355.292 220.024Z" stroke="#E5752C" stroke-width="2.57718"/>
<path fill-rule="evenodd" clip-rule="evenodd" d="M242.198 59.5008L240.312 60.0604C240.953 59.9322 241.583 59.7464 242.198 59.5008ZM213.746 11.4824L215.632 10.9227C214.991 11.0509 214.362 11.2367 213.746 11.4824Z" fill="#F7F7F7"/>
<path d="M249.679 33.5845C252.638 45.5199 249.724 56.4961 242.198 59.5008L240.312 60.0604L233.9 61.9635C234.972 61.5354 235.95 60.9455 236.832 60.2141C243.099 55.0136 244.448 42.6578 239.569 30.4366C235.093 19.2236 226.737 11.5394 219.113 10.769C217.929 10.6494 216.763 10.6964 215.632 10.9227L222.045 9.01969C230.741 5.54786 242.302 14.034 247.868 27.9739C248.617 29.8497 249.219 31.7287 249.679 33.5845Z" fill="#F7F7F7"/>
<path fill-rule="evenodd" clip-rule="evenodd" d="M233.9 61.9635C225.203 65.4353 213.642 56.9492 208.077 43.0092C202.511 29.0693 205.05 14.9542 213.746 11.4824L215.632 10.9227C216.763 10.6964 217.929 10.6494 219.113 10.769C226.737 11.5394 235.093 19.2236 239.569 30.4366C244.448 42.6578 243.099 55.0136 236.832 60.2141C235.95 60.9455 234.972 61.5354 233.9 61.9635ZM216.076 42.3988L232.236 51.9477C234.554 46.2862 233.075 42.8108 228.563 37.9916C232.236 36.5226 231.501 28.4427 226.36 25.5046C218.768 22.1125 218.28 31.3809 222.045 35.0535C216.076 35.0535 216.811 37.2571 216.076 42.3988Z" fill="#F7F7F7"/>
<path d="M232.236 51.9477L216.076 42.3988C216.811 37.2571 216.076 35.0535 222.045 35.0535C218.28 31.3809 218.768 22.1125 226.36 25.5046C231.501 28.4427 232.236 36.5226 228.563 37.9916C233.075 42.8108 234.554 46.2862 232.236 51.9477Z" fill="#F7F7F7"/>
<path d="M233.9 61.9635C225.203 65.4353 213.642 56.9492 208.077 43.0092C202.511 29.0693 205.05 14.9542 213.746 11.4824M233.9 61.9635C234.972 61.5354 235.95 60.9455 236.832 60.2141C243.099 55.0136 244.448 42.6578 239.569 30.4366C235.093 19.2236 226.737 11.5394 219.113 10.769C217.929 10.6494 216.763 10.6964 215.632 10.9227M233.9 61.9635L240.312 60.0604M213.746 11.4824L215.632 10.9227M213.746 11.4824C214.362 11.2367 214.991 11.0509 215.632 10.9227M242.198 59.5008C250.894 56.0289 253.433 41.9139 247.868 27.9739M242.198 59.5008L240.312 60.0604M242.198 59.5008C241.583 59.7464 240.953 59.9322 240.312 60.0604M242.198 59.5008C249.724 56.4961 252.638 45.5199 249.679 33.5845M247.868 27.9739C242.302 14.034 230.741 5.54786 222.045 9.01969L215.632 10.9227M247.868 27.9739C248.617 29.8497 249.219 31.7287 249.679 33.5845M249.679 33.5845L241.495 36.5226M250.791 43.8679L242.607 46.806M232.236 51.9477L216.076 42.3988C216.811 37.2571 216.076 35.0535 222.045 35.0535C218.28 31.3809 218.768 22.1125 226.36 25.5046C231.501 28.4427 232.236 36.5226 228.563 37.9916C233.075 42.8108 234.554 46.2862 232.236 51.9477Z" stroke="#E5752C" stroke-width="2.57718"/>
<path d="M23.2013 155.855L125.353 97.07M23.2013 155.855L13.5643 149.11M23.2013 155.855C17.4191 159.71 13.5643 162.601 13.5643 173.202M125.353 97.07L114.752 90.3242M125.353 97.07C134.99 91.287 144.627 93.2144 144.627 99.9611M144.627 99.9611L145.591 133.69C145.591 143.326 143.663 149.11 134.99 155.855L71.386 192.458L44.4026 233.915M144.627 99.9611C144.627 93.2144 129.103 81.1302 114.752 90.3242M29.9471 216.568L44.4026 207.986V233.915M29.9471 216.568V229.096L44.4026 233.915M29.9471 216.568C15.4917 225.241 1.99951 211.75 2 202.113M29.9471 216.568C22.658 220.942 13.5643 216.568 13.5643 207.986M2 202.113V167.329M2 202.113L13.5643 207.986M2 167.329C2 158.746 5.85478 153.928 13.5643 149.11M2 167.329L13.5643 173.202M13.5643 149.11L114.752 90.3242M13.5643 173.202V207.986" stroke="#E5752C" stroke-width="2.57718"/>
<path d="M132.083 122.937L75.2253 155.657M39.5686 176.177L70.1225 158.594M132.083 129.483L39.5686 182.723M132.083 136.465L96.4266 156.985M39.5686 189.705L59.8062 178.059M133.047 142.975L40.5323 196.214M65.5884 174.731L90.6445 160.312" stroke="#E5752C" stroke-width="2.57718"/>
<path d="M162.631 176.149C179.059 165.898 168.792 128.996 153.391 138.571L109.244 164.873C83.576 180.249 96.9214 214.075 115.402 204.849L132.343 194.949V211L149.284 185.048L162.631 176.149Z" fill="#F7F7F7"/>
<path d="M153.391 150.872L141.072 158.211M109.244 177.174L131.317 164.023M153.391 168.298L126.698 184.201M109.244 194.6L117.971 189.4M153.391 159.748L109.244 186.05M153.391 138.571C168.792 128.996 179.059 165.898 162.631 176.149L149.284 185.048L132.343 211V194.949L115.402 204.849C96.9214 214.075 83.576 180.249 109.244 164.873L153.391 138.571Z" stroke="#E5752C" stroke-width="2.57718"/>
<path d="M83.6609 250.576V244.577L77.3634 249.629V255.628L83.6609 250.576Z" stroke="#E5752C" stroke-width="2.57718"/>
<path d="M74.0016 234.703V228.704C74.0016 218.598 91.9492 208.494 91.9492 215.125V221.125L85.6517 226.177V223.177C85.6517 220.178 80.2991 223.651 80.2991 226.651V229.651L80.2979 232.65C80.2979 234.409 82.1384 233.942 83.6609 232.65V239.72L80.5122 242.246L77.3634 244.772V242.717C75.375 243.091 74.0004 242.538 74.0004 240.702L74.0016 234.703Z" stroke="#E5752C" stroke-width="2.57718"/>
</svg>
