<svg width="365" height="60" viewBox="0 0 365 60" fill="none" xmlns="http://www.w3.org/2000/svg">
<path d="M234.786 12.0063C232.434 11.9357 231.935 12.4305 232.006 14.7633V56.401C231.935 58.7339 232.434 59.2287 234.786 59.158H256.736C267.141 59.158 270.775 55.7648 270.775 46.2214C270.775 41.8385 270.063 39.2228 268.352 37.3848C267.283 36.2538 266.642 35.9003 263.506 35.1227C263.364 35.1227 263.007 34.9813 262.651 34.9106C268.21 33.0726 269.635 30.9519 269.635 24.3775C269.635 18.6514 268.21 15.2582 265.074 13.4909C263.079 12.4305 260.513 12.0063 255.453 12.0063H234.786ZM241.128 31.8002V19.4997H254.028C256.593 19.4997 257.591 19.6411 258.446 19.9946C259.943 20.7722 260.584 22.2567 260.584 25.2965C260.584 28.5483 260.014 30.1035 258.517 30.9519C257.377 31.5881 256.023 31.8002 252.175 31.8002H241.128ZM241.128 51.6647V38.5159H252.674C257.021 38.5159 258.161 38.5866 259.23 39.0815C261.083 39.9298 261.724 41.5557 261.724 45.3024C261.724 50.9577 260.513 51.6647 251.035 51.6647H241.128Z" fill="white"/>
<path d="M289.215 25.7206C282.16 25.7206 279.166 26.3569 276.815 28.4069C274.249 30.6691 273.251 34.2037 273.251 41.4143C273.251 49.4732 273.75 52.513 275.389 55.1286C277.385 58.3804 281.162 59.5822 289.001 59.5822C301.972 59.5822 304.68 56.5424 304.68 41.8385C304.68 34.3451 303.753 30.8105 301.259 28.4776C299.05 26.4276 295.985 25.7206 289.215 25.7206ZM288.93 31.9415C295.486 31.9415 296.484 33.2847 296.484 41.9798C296.484 51.9474 295.558 53.3613 288.859 53.3613C282.373 53.3613 281.447 52.0181 281.447 42.3333C281.447 33.2847 282.445 31.9415 288.93 31.9415Z" fill="white"/>
<path d="M318.18 32.1536H328.086C330.438 32.2243 330.937 31.7295 330.866 29.3966V28.9018C330.937 26.5689 330.438 26.0741 328.086 26.1448H318.18V21.5498C318.251 19.217 317.753 18.7221 315.401 18.7928H312.835C310.555 18.7221 310.056 19.217 310.127 21.5498V26.1448H308.559C306.207 26.0741 305.709 26.5689 305.78 28.9018V29.3966C305.709 31.7295 306.207 32.2243 308.559 32.1536H310.127V49.8267C310.127 52.9371 310.27 54.1389 310.982 55.482C312.408 58.3804 315.258 59.5822 320.675 59.5822C325.093 59.5822 327.801 58.946 329.512 57.4614C331.222 56.0476 332.291 52.9371 332.291 49.4732C332.291 46.7162 332.006 46.4334 329.44 46.4334H328.3C325.877 46.3628 325.449 46.7869 325.449 49.3318C325.378 52.3716 324.452 53.432 321.601 53.432C318.822 53.432 318.18 52.513 318.18 48.6956V32.1536Z" fill="white"/>
<path d="M360.114 35.1934C362.395 35.1934 362.894 34.8399 362.894 33.2847C362.894 31.8002 362.466 30.457 361.682 29.2552C359.9 26.6396 356.551 25.7206 348.926 25.7206C337.095 25.7206 333.96 27.7707 333.96 35.5468C333.96 43.7471 336.881 45.3731 351.491 45.5145C355.268 45.5851 356.266 46.4334 356.266 49.6146C356.266 53.1492 354.841 53.9975 348.926 53.9975C343.367 53.9975 342.369 53.432 342.013 50.3922C341.87 49.0491 341.229 48.6956 339.233 48.7663H336.525C334.245 48.7663 333.746 49.1198 333.746 50.8164C333.746 53.2906 334.886 55.9062 336.596 57.1787C338.948 58.946 341.941 59.5822 348.569 59.5822C355.482 59.5822 358.832 58.8753 361.183 56.9666C363.179 55.27 364.248 52.5837 364.248 48.9784C364.248 45.3731 363.25 42.7575 361.255 41.2729C359.473 39.9298 357.691 39.5763 350.422 39.2935C345.077 39.0108 344.507 38.9401 343.723 38.728C342.44 38.3745 341.87 37.2435 341.87 35.1934C341.87 31.8002 342.868 31.2346 348.783 31.2346C353.201 31.2346 354.627 31.7295 354.912 33.2847C355.126 34.9106 355.696 35.2641 357.763 35.1934H360.114Z" fill="white"/>
<path d="M34.4929 26.2091C36.916 26.2091 37.3436 25.8557 37.3436 23.8056C37.3436 19.7761 35.7044 16.1001 33.2101 14.3328C30.6445 12.5655 27.2237 12 19.3844 12C10.6187 12 6.91284 12.7069 3.99092 14.8277C1.42533 16.6657 0.213799 20.1296 0.213799 25.7143C0.213799 32.218 1.71039 35.6112 5.48751 37.4492C7.91056 38.5803 9.62096 38.863 17.7453 39.3579C25.6559 39.8527 25.6559 39.8527 26.7961 40.2769C28.7203 40.9131 29.433 42.3976 29.433 45.5081C29.433 48.7599 28.9341 50.5979 27.7226 51.4462C26.3686 52.5066 24.872 52.7187 19.2419 52.7187C13.5406 52.7187 12.6141 52.648 11.0463 51.8704C9.97729 51.3049 9.19336 49.9617 9.05083 48.6186C8.83703 44.8012 8.76576 44.6598 6.12891 44.6598H2.85065C0.498864 44.6598 0 45.0839 0 47.0633C0 49.8203 0.570131 52.5773 1.63913 54.486C3.99092 58.9396 7.4117 60 19.3132 60C28.9341 60 32.64 59.2224 35.4906 56.4654C37.5574 54.4153 38.4126 51.2342 38.4126 45.3667C38.4126 39.3579 37.4148 36.6009 34.4929 34.6215C32.2124 32.9956 29.6468 32.5007 21.5224 32.0059C13.6831 31.5817 13.6831 31.5817 12.4716 31.2283C10.1911 30.5214 9.33589 28.9661 9.33589 25.5729C9.33589 20.2003 11.0463 19.1399 19.7408 19.1399C25.6559 19.1399 27.9364 20.1296 28.2215 22.7452C28.4353 25.9971 28.6491 26.2798 31.2147 26.2091H34.4929Z" fill="white"/>
<path d="M49.3764 15.1811C49.519 12.8483 48.9488 12.3535 46.5971 12.4242H44.1027C41.7509 12.3535 41.2521 12.8483 41.3233 15.1811V16.4536C41.2521 18.7865 41.7509 19.2813 44.1027 19.2106H46.5971C48.9488 19.2813 49.519 18.7865 49.3764 16.4536V15.1811ZM49.3764 29.3196C49.4477 26.9867 48.9488 26.4919 46.5971 26.5626H44.1027C41.7509 26.4919 41.2521 26.9867 41.3233 29.3196V56.8189C41.2521 59.1517 41.7509 59.6465 44.1027 59.5758H46.5971C48.9488 59.6465 49.4477 59.1517 49.3764 56.8189V29.3196Z" fill="white"/>
<path d="M63.5339 32.5714H73.44C75.7918 32.6421 76.2906 32.1473 76.2194 29.8144V29.3196C76.2906 26.9867 75.7918 26.4919 73.44 26.5626H63.5339V21.9676C63.6052 19.6348 63.1064 19.1399 60.7546 19.2106H58.189C55.9085 19.1399 55.4096 19.6348 55.4809 21.9676V26.5626H53.913C51.5612 26.4919 51.0623 26.9867 51.1336 29.3196V29.8144C51.0623 32.1473 51.5612 32.6421 53.913 32.5714H55.4809V50.2445C55.4809 53.3549 55.6234 54.5567 56.336 55.8999C57.7614 58.7982 60.612 60 66.0283 60C70.4468 60 73.1549 59.3638 74.8653 57.8792C76.5757 56.4654 77.6447 53.3549 77.6447 49.891C77.6447 47.134 77.3596 46.8513 74.794 46.8513H73.6538C71.2307 46.7806 70.8031 47.2047 70.8031 49.7496C70.7318 52.7894 69.8054 53.8498 66.9547 53.8498C64.1753 53.8498 63.5339 52.9308 63.5339 49.1134V32.5714Z" fill="white"/>
<path d="M87.3002 44.5184H107.041C109.321 44.5184 109.82 44.1649 109.82 42.4683C109.82 38.2975 109.535 35.0457 108.965 33.2784C107.255 28.0471 103.478 26.1384 94.8544 26.1384C88.1554 26.1384 84.4495 27.1988 82.0977 29.7437C79.9597 32.1473 79.1758 35.6819 79.1758 42.8925C79.1758 56.8895 82.169 60 95.4245 60C101.411 60 104.76 59.2931 106.97 57.4551C108.609 56.1826 109.749 53.567 109.749 51.1635C109.749 49.3962 109.321 49.0427 106.97 49.0427H104.475C102.551 48.972 101.981 49.3255 101.696 50.5979C101.553 53.2842 99.9856 54.0619 94.8544 54.0619C88.7255 54.0619 87.3002 52.5066 87.3002 45.7909V44.5184ZM101.91 39.57H87.3714C87.4427 36.6716 87.514 35.7526 87.9416 34.6922C88.7968 32.6421 90.3646 32.0766 94.7119 32.0766C100.698 32.0766 101.767 33.0663 101.91 38.2975V39.57Z" fill="white"/>
<path d="M138.885 35.6112C141.166 35.6112 141.665 35.2577 141.665 33.7025C141.665 32.218 141.237 30.8748 140.453 29.673C138.671 27.0574 135.322 26.1384 127.696 26.1384C115.866 26.1384 112.731 28.1885 112.731 35.9647C112.731 44.165 115.652 45.7909 130.262 45.9323C134.039 46.0029 135.037 46.8513 135.037 50.0324C135.037 53.567 133.612 54.4153 127.696 54.4153C122.138 54.4153 121.14 53.8498 120.784 50.81C120.641 49.4669 120 49.1134 118.004 49.1841H115.296C113.016 49.1841 112.517 49.5376 112.517 51.2342C112.517 53.7084 113.657 56.324 115.367 57.5965C117.719 59.3638 120.712 60 127.34 60C134.253 60 137.603 59.2931 139.954 57.3844C141.95 55.6878 143.019 53.0015 143.019 49.3962C143.019 45.7909 142.021 43.1753 140.026 41.6907C138.244 40.3476 136.462 39.9941 129.193 39.7113C123.848 39.4286 123.278 39.3579 122.494 39.1458C121.211 38.7923 120.641 37.6613 120.641 35.6112C120.641 32.218 121.639 31.6524 127.554 31.6524C131.972 31.6524 133.398 32.1473 133.683 33.7025C133.897 35.3284 134.467 35.6819 136.534 35.6112H138.885Z" fill="white"/>
<path d="M217.675 35.3078H215.9V31.7804C215.9 28.9738 214.778 26.2821 212.781 24.2975C210.783 22.313 208.075 21.198 205.25 21.198H191.05V13.1646C192.404 12.3881 193.461 11.1895 194.06 9.7547C194.658 8.31989 194.763 6.72907 194.358 5.22896C193.954 3.72885 193.062 2.40329 191.822 1.45787C190.582 0.51245 189.063 0 187.5 0C185.937 0 184.418 0.51245 183.178 1.45787C181.938 2.40329 181.046 3.72885 180.642 5.22896C180.237 6.72907 180.342 8.31989 180.94 9.7547C181.539 11.1895 182.596 12.3881 183.95 13.1646V21.198H169.75C166.925 21.198 164.217 22.313 162.219 24.2975C160.222 26.2821 159.1 28.9738 159.1 31.7804V35.3078H157.325C155.913 35.3078 154.558 35.8653 153.56 36.8576C152.561 37.8499 152 39.1957 152 40.599C152 42.0023 152.561 43.3482 153.56 44.3405C154.558 45.3327 155.913 45.8902 157.325 45.8902H159.1V49.4176C159.1 52.2243 160.222 54.9159 162.219 56.9005C164.217 58.8851 166.925 60 169.75 60H205.25C208.075 60 210.783 58.8851 212.781 56.9005C214.778 54.9159 215.9 52.2243 215.9 49.4176V45.8902H217.675C219.087 45.8902 220.442 45.3327 221.44 44.3405C222.439 43.3482 223 42.0023 223 40.599C223 39.1957 222.439 37.8499 221.44 36.8576C220.442 35.8653 219.087 35.3078 217.675 35.3078ZM212.35 49.4176C212.348 51.2881 211.599 53.0813 210.268 54.4039C208.937 55.7265 207.132 56.4704 205.25 56.4726H169.75C167.868 56.4704 166.063 55.7264 164.732 54.4039C163.401 53.0813 162.652 51.2881 162.65 49.4176V31.7804C162.652 29.91 163.401 28.1167 164.732 26.7942C166.063 25.4716 167.868 24.7276 169.75 24.7255H205.25C207.132 24.7276 208.937 25.4715 210.268 26.7941C211.599 28.1167 212.348 29.91 212.35 31.7804V49.4176ZM180.4 40.599C180.4 41.6455 180.088 42.6685 179.503 43.5386C178.917 44.4088 178.086 45.087 177.113 45.4874C176.14 45.8879 175.069 45.9927 174.036 45.7885C173.003 45.5844 172.054 45.0804 171.31 44.3405C170.565 43.6005 170.058 42.6577 169.852 41.6313C169.647 40.6049 169.752 39.541 170.155 38.5742C170.558 37.6073 171.241 36.781 172.117 36.1996C172.992 35.6182 174.022 35.3078 175.075 35.3078C176.487 35.3078 177.842 35.8653 178.84 36.8576C179.839 37.8499 180.4 39.1957 180.4 40.599ZM205.25 40.599C205.25 41.6455 204.938 42.6685 204.353 43.5386C203.767 44.4088 202.936 45.087 201.963 45.4874C200.99 45.8879 199.919 45.9927 198.886 45.7885C197.853 45.5844 196.904 45.0804 196.16 44.3405C195.415 43.6005 194.908 42.6577 194.702 41.6313C194.497 40.6049 194.602 39.541 195.005 38.5742C195.408 37.6073 196.091 36.781 196.967 36.1996C197.842 35.6182 198.872 35.3078 199.925 35.3078C201.337 35.3078 202.692 35.8653 203.69 36.8576C204.689 37.8499 205.25 39.1957 205.25 40.599Z" fill="white"/>
</svg>
