<svg width="720" height="440" viewBox="0 0 720 440" fill="none" xmlns="http://www.w3.org/2000/svg">
<path d="M452.196 171.583C451.974 171.212 451.86 170.84 451.86 170.461V164.331C451.86 163.955 451.974 163.7 452.196 163.571C452.421 163.445 452.697 163.476 453.029 163.667L459.049 167.141C459.378 167.328 459.654 167.618 459.879 168.003C460.104 168.392 460.218 168.774 460.218 169.15V175.282C460.218 175.661 460.104 175.903 459.879 176.015C459.654 176.124 459.378 176.085 459.049 175.896L453.029 172.424C452.697 172.233 452.421 171.952 452.196 171.583ZM452.264 158.553C452.087 158.24 451.996 157.951 451.996 157.676C451.996 157.194 452.01 156.843 452.042 156.62C452.252 155.333 452.722 154.334 453.458 153.623C454.189 152.914 455.185 152.216 456.445 151.536C457.372 151.039 458.076 150.581 458.557 150.152C459.035 149.722 459.289 149.177 459.32 148.507C459.409 147.562 459.131 146.596 458.489 145.606C457.843 144.616 457.042 143.845 456.086 143.294C453.868 142.015 452.505 142.448 451.996 144.593C451.847 144.917 451.667 145.122 451.458 145.207C451.245 145.293 450.947 145.223 450.558 144.998L444.718 141.63C444.417 141.455 444.169 141.185 443.977 140.818C443.78 140.446 443.684 140.055 443.684 139.644C443.744 137.822 444.268 136.343 445.255 135.193C446.246 134.046 447.712 133.494 449.657 133.537C451.605 133.577 453.926 134.375 456.624 135.929C459.379 137.519 461.619 139.302 463.341 141.273C465.061 143.244 466.297 145.151 467.046 146.989C467.794 148.828 468.171 150.47 468.171 151.91C468.171 153.666 467.825 154.995 467.135 155.903C466.449 156.809 465.458 157.697 464.169 158.566C463.364 159.132 462.75 159.604 462.329 159.981C461.909 160.352 461.566 160.827 461.295 161.393C461.174 161.632 461.073 162 460.984 162.497C460.741 162.874 460.524 163.108 460.33 163.204C460.132 163.296 459.874 163.248 459.542 163.06L452.894 159.225C452.652 159.086 452.444 158.861 452.264 158.553Z" fill="#E5752C"/>
<path d="M453.959 141.579C454.735 141.579 455.593 141.857 456.585 142.431C457.674 143.056 458.594 143.941 459.325 145.06C460.093 146.242 460.426 147.433 460.315 148.602C460.274 149.495 459.906 150.283 459.225 150.895C458.683 151.375 457.931 151.872 456.92 152.416C455.751 153.045 454.82 153.694 454.153 154.339C453.574 154.901 453.205 155.699 453.027 156.781C453.005 156.952 452.995 157.258 452.995 157.676C452.995 157.769 453.043 157.904 453.133 158.06C453.215 158.203 453.309 158.312 453.388 158.357L459.997 162.17C460.01 162.151 460.023 162.131 460.039 162.11C460.143 161.602 460.26 161.228 460.404 160.941C460.725 160.268 461.153 159.686 461.667 159.233C462.116 158.832 462.766 158.332 463.596 157.75C464.804 156.934 465.723 156.113 466.34 155.301C466.893 154.573 467.172 153.433 467.172 151.91C467.172 150.607 466.818 149.078 466.121 147.365C465.415 145.635 464.227 143.807 462.589 141.929C460.945 140.047 458.769 138.32 456.124 136.794C453.586 135.33 451.404 134.571 449.637 134.535L449.452 134.533C447.9 134.533 446.775 134.962 446.012 135.846C445.17 136.825 444.735 138.08 444.685 139.676C444.685 139.895 444.742 140.127 444.861 140.349C444.967 140.553 445.083 140.687 445.218 140.766L451.057 144.134C451.065 144.138 451.073 144.142 451.08 144.147C451.691 141.918 453.135 141.579 453.959 141.579ZM460.114 164.247C459.776 164.247 459.427 164.144 459.048 163.928L452.395 160.088C452.008 159.869 451.673 159.52 451.401 159.056C451.132 158.581 450.997 158.12 450.997 157.676C450.997 157.131 451.017 156.733 451.052 156.482C451.302 154.961 451.875 153.764 452.762 152.906C453.562 152.133 454.641 151.375 455.971 150.658C456.833 150.195 457.479 149.774 457.893 149.407C458.17 149.158 458.302 148.865 458.322 148.461C458.394 147.694 458.173 146.954 457.651 146.149C457.094 145.297 456.4 144.626 455.586 144.158C454.751 143.676 454.241 143.575 453.959 143.575C453.751 143.575 453.265 143.575 452.967 144.823C452.953 144.889 452.932 144.951 452.904 145.012C452.644 145.571 452.285 145.949 451.835 146.132C451.326 146.338 450.739 146.257 450.057 145.862L444.219 142.493C443.75 142.223 443.37 141.814 443.09 141.277C442.824 140.775 442.687 140.223 442.687 139.644C442.753 137.572 443.362 135.865 444.497 134.543C445.648 133.21 447.314 132.537 449.452 132.537L449.68 132.538C451.814 132.582 454.249 133.409 457.123 135.066C459.959 136.7 462.304 138.568 464.094 140.617C465.879 142.661 467.182 144.678 467.97 146.613C468.767 148.566 469.171 150.348 469.171 151.91C469.171 153.877 468.754 155.424 467.932 156.507C467.182 157.495 466.104 158.466 464.729 159.394C463.978 159.921 463.389 160.372 462.995 160.725C462.679 161.004 462.412 161.371 462.197 161.821C462.155 161.908 462.068 162.119 461.964 162.677C461.943 162.805 461.894 162.927 461.823 163.036C461.474 163.579 461.141 163.917 460.773 164.098C460.557 164.201 460.342 164.247 460.114 164.247ZM452.866 164.726L452.86 170.461C452.86 170.654 452.924 170.852 453.054 171.071C453.189 171.292 453.346 171.454 453.528 171.559L459.213 174.838L459.219 169.15C459.219 168.952 459.152 168.74 459.016 168.503C458.879 168.272 458.723 168.104 458.553 168.006L452.866 164.726ZM459.61 177.073C459.269 177.073 458.912 176.969 458.553 176.763L452.529 173.288C452.058 173.016 451.658 172.617 451.344 172.103C451.024 171.567 450.862 171.017 450.862 170.461V164.331C450.862 163.341 451.384 162.89 451.694 162.709C452.248 162.395 452.881 162.431 453.528 162.802L459.549 166.276C460.025 166.548 460.427 166.961 460.741 167.501C461.058 168.044 461.217 168.598 461.217 169.15V175.281C461.217 176.309 460.659 176.741 460.326 176.908C460.098 177.018 459.86 177.073 459.61 177.073Z" fill="#09203F"/>
<path d="M317.364 35.1185L311.925 38.254C311.599 38.4443 311.323 38.4789 311.098 38.3498C310.873 38.2194 310.761 37.9692 310.761 37.5899V15.8024C310.761 15.4258 310.873 15.0518 311.098 14.6805C311.323 14.3119 311.599 14.0311 311.925 13.8394L317.364 10.7039C317.696 10.5136 317.971 10.4763 318.196 10.5828C318.421 10.6959 318.532 10.9435 318.532 11.3201V33.1075C318.532 33.4842 318.421 33.8675 318.196 34.2548C317.971 34.6434 317.696 34.9268 317.364 35.1185ZM317.544 48.6519L311.748 51.9951C311.419 52.1841 311.148 52.212 310.941 52.0776C310.733 51.9392 310.625 51.701 310.625 51.3576V44.71C310.625 44.3333 310.738 43.95 310.963 43.5628C311.188 43.1768 311.447 42.8987 311.748 42.7243L317.544 39.3812C317.842 39.2095 318.107 39.1869 318.328 39.3133C318.557 39.4424 318.667 39.6953 318.667 40.0719V46.7169C318.667 47.0602 318.557 47.4262 318.328 47.8148C318.107 48.1995 317.842 48.4803 317.544 48.6519Z" fill="#E5752C"/>
<path d="M317.533 11.7513L312.426 14.7031C312.249 14.8069 312.092 14.972 311.95 15.2022C311.823 15.4111 311.76 15.6094 311.76 15.8024V37.1906L316.864 34.2534C317.044 34.1496 317.197 33.9872 317.332 33.7543C317.466 33.5214 317.533 33.3098 317.533 33.1075V11.7513ZM311.392 39.4251C311.11 39.4251 310.843 39.3532 310.601 39.2148C310.287 39.0352 309.762 38.584 309.762 37.5899V15.8024C309.762 15.2421 309.923 14.6911 310.244 14.1628C310.558 13.6491 310.954 13.2511 311.422 12.9783L316.864 9.84016C317.485 9.4835 318.102 9.43559 318.624 9.6818C318.974 9.85614 319.531 10.2873 319.531 11.3201V33.1075C319.531 33.6638 319.373 34.2175 319.061 34.7551C318.75 35.2915 318.347 35.704 317.862 35.9835L312.426 39.1177C312.08 39.3213 311.731 39.4251 311.392 39.4251ZM317.668 40.4379L312.247 43.5893C312.104 43.6718 311.962 43.8329 311.827 44.0645C311.691 44.2987 311.624 44.5103 311.624 44.7099V50.9064L317.044 47.7882C317.188 47.7057 317.332 47.542 317.462 47.3157C317.6 47.0828 317.668 46.8832 317.668 46.7168V40.4379ZM311.232 53.1595C310.933 53.1595 310.644 53.0744 310.396 52.9133C310.104 52.7204 309.626 52.2679 309.626 51.3576V44.7099C309.626 44.1563 309.786 43.6013 310.099 43.061C310.413 42.5233 310.799 42.1201 311.248 41.8606L317.044 38.5161C317.656 38.1635 318.295 38.1461 318.824 38.4469C319.137 38.6239 319.666 39.0724 319.666 40.0719V46.7168C319.666 47.2452 319.506 47.7842 319.19 48.3192C318.882 48.8515 318.495 49.2561 318.042 49.517L312.247 52.8601C311.901 53.0584 311.56 53.1595 311.232 53.1595Z" fill="#09203F"/>
<path d="M533.823 148.063V173.183L521.506 179.112L507.015 132.259L533.823 148.063Z" fill="#E5752C"/>
<path d="M508.733 134.43L522.118 177.709L532.825 172.556V148.632L508.733 134.43ZM521.506 180.11C521.371 180.11 521.235 180.082 521.107 180.026C520.84 179.91 520.637 179.684 520.551 179.406L506.061 132.553C505.94 132.159 506.073 131.732 506.397 131.476C506.721 131.221 507.167 131.189 507.524 131.399L534.331 147.203C534.635 147.383 534.823 147.709 534.823 148.063V173.183C534.823 173.566 534.603 173.916 534.257 174.082L521.939 180.01C521.802 180.077 521.654 180.11 521.506 180.11Z" fill="#09203F"/>
<path d="M507.123 65.9504C506.954 65.9504 506.783 65.9079 506.626 65.8174L462.791 40.6429C462.314 40.3674 462.149 39.7579 462.424 39.2801C462.699 38.801 463.308 38.6386 463.789 38.9114L507.622 64.0859C508.099 64.3614 508.265 64.9709 507.99 65.4487C507.805 65.7708 507.469 65.9504 507.123 65.9504Z" fill="#09203F"/>
<path d="M457.96 37.7135C457.791 37.7135 457.619 37.6709 457.462 37.5791C452.565 34.7563 447.421 34.5208 443.323 36.8538C442.844 37.1266 442.235 36.9589 441.962 36.4811C441.689 36.002 441.855 35.3925 442.335 35.1197C447.045 32.4367 452.945 32.6669 458.461 35.8516C458.938 36.1271 459.101 36.738 458.826 37.2144C458.641 37.5352 458.305 37.7135 457.96 37.7135Z" fill="#09203F"/>
<path d="M542.136 160.565L451.503 108.51C444.293 104.351 438.447 93.1929 438.447 83.5881V54.2734C438.447 49.3998 433.682 49.3026 436.108 47.5446C436.305 47.3995 445.907 41.8924 446.118 41.7726C448.404 40.4711 451.378 40.6028 454.631 42.478L545.263 94.5331C552.474 98.692 558.319 109.85 558.319 119.456V148.769C558.319 154.022 556.571 157.722 553.807 159.318C553.718 159.37 544.01 165.042 543.918 165.088C541.666 166.25 545.275 162.376 542.136 160.565Z" fill="#E5752C"/>
<path d="M436.519 48.4868C436.635 48.6133 436.806 48.777 436.942 48.9074C437.878 49.8031 439.446 51.3016 439.446 54.2734V83.5882C439.446 92.8602 445.079 103.652 452.003 107.646L542.634 159.7C544.49 160.77 544.597 162.437 544.427 163.639C546.898 162.198 553.232 158.497 553.301 158.457C555.859 156.982 557.32 153.451 557.32 148.77V119.455C557.32 110.184 551.688 99.3908 544.764 95.3969L454.133 43.3431C451.322 41.7221 448.668 41.4719 446.612 42.6404C446.21 42.8693 437.099 48.0969 436.659 48.3764C436.602 48.4176 436.555 48.4549 436.519 48.4868ZM543.32 166.301C542.946 166.301 542.606 166.14 542.386 165.859C541.988 165.351 542.132 164.765 542.285 164.145C542.581 162.944 542.707 162.048 541.636 161.429L451.005 109.376C443.53 105.063 437.448 93.4951 437.448 83.5882V54.2734C437.448 52.1547 436.401 51.1539 435.56 50.35C434.974 49.7884 434.367 49.2082 434.425 48.3564C434.477 47.5792 435.075 47.0588 435.522 46.7354C435.796 46.5371 445.525 40.9622 445.622 40.9063C448.296 39.3838 451.687 39.6273 455.131 41.6143L545.762 93.6667C553.237 97.98 559.318 109.548 559.318 119.455V148.77C559.318 154.185 557.492 158.344 554.307 160.182C554.22 160.232 544.507 165.908 544.379 165.975C543.934 166.204 543.618 166.301 543.32 166.301Z" fill="#09203F"/>
<path d="M548.663 155.686L558.011 150.349L548.663 155.686Z" fill="white"/>
<path d="M548.664 156.685C548.318 156.685 547.981 156.504 547.796 156.182C547.523 155.703 547.689 155.094 548.167 154.82L557.516 149.483C557.994 149.209 558.604 149.376 558.878 149.854C559.151 150.333 558.985 150.943 558.507 151.217L549.158 156.554C549.002 156.643 548.832 156.685 548.664 156.685Z" fill="#09203F"/>
<path d="M547.83 117.258L557.189 111.916L547.83 117.258Z" fill="white"/>
<path d="M547.832 118.257C547.485 118.257 547.148 118.076 546.963 117.754C546.69 117.275 546.857 116.665 547.335 116.391L556.694 111.049C557.172 110.774 557.782 110.941 558.057 111.42C558.33 111.898 558.163 112.509 557.685 112.782L548.326 118.125C548.17 118.214 548 118.257 547.832 118.257Z" fill="#09203F"/>
<path d="M538.672 102.119L548.187 96.6878L538.672 102.119Z" fill="white"/>
<path d="M538.674 103.119C538.327 103.119 537.99 102.938 537.805 102.615C537.532 102.136 537.699 101.527 538.177 101.253L547.692 95.8215C548.17 95.546 548.78 95.715 549.054 96.1927C549.328 96.6705 549.161 97.2814 548.683 97.5542L539.168 102.987C539.012 103.076 538.842 103.119 538.674 103.119Z" fill="#09203F"/>
<path d="M449.415 50.6176L458.928 45.185L449.415 50.6176Z" fill="white"/>
<path d="M449.415 51.6144C449.068 51.6144 448.731 51.4347 448.546 51.1113C448.273 50.6335 448.44 50.0227 448.918 49.7498L458.433 44.3173C458.911 44.0432 459.521 44.2108 459.795 44.6899C460.07 45.1677 459.903 45.7786 459.424 46.0514L449.91 51.484C449.753 51.5718 449.583 51.6144 449.415 51.6144Z" fill="#09203F"/>
<path d="M535.604 100.175L444.971 48.1195C437.761 43.9606 431.916 48.3764 431.916 57.9812V87.2946C431.916 96.8994 437.761 108.059 444.971 112.218L497.406 142.248L521.557 179.116V156.173L535.604 164.271C542.815 168.432 548.659 164.016 548.659 154.411V125.098C548.659 115.491 542.815 104.334 535.604 100.175Z" fill="white"/>
<path d="M439.788 47.5526C435.612 47.5526 432.915 51.6463 432.915 57.9812V87.2946C432.915 96.5667 438.547 107.359 445.472 111.354L497.904 141.382C498.04 141.46 498.156 141.57 498.244 141.701L520.558 175.767V156.173C520.558 155.816 520.747 155.486 521.058 155.308C521.367 155.131 521.746 155.131 522.057 155.308L536.104 163.408C537.751 164.357 539.327 164.84 540.788 164.84C542.758 164.84 544.436 163.937 545.646 162.23C546.963 160.367 547.66 157.662 547.66 154.411V125.098C547.66 115.824 542.028 105.032 535.105 101.038L444.474 48.9859C442.825 48.0344 441.249 47.5526 439.788 47.5526ZM521.557 180.114C521.227 180.114 520.908 179.95 520.721 179.663L496.702 142.994L444.476 113.084C436.998 108.771 430.917 97.2015 430.917 87.2946V57.9812C430.917 50.4339 434.399 45.5563 439.788 45.5563C441.605 45.5563 443.517 46.1286 445.472 47.2558L536.103 99.3083C543.578 103.622 549.658 115.189 549.658 125.098V154.411C549.658 158.078 548.835 161.18 547.276 163.382C545.702 165.609 543.396 166.836 540.788 166.836C538.971 166.836 537.058 166.264 535.105 165.136L522.556 157.902V179.116C522.556 179.558 522.266 179.946 521.842 180.073C521.748 180.101 521.652 180.114 521.557 180.114Z" fill="#09203F"/>
<path d="M481.911 106.712L448.252 87.6234V90.7775L481.911 109.867V106.712Z" fill="#09203F"/>
<path d="M500.476 104.312L448.252 74.5145V77.6687L500.476 107.467V104.312Z" fill="#09203F"/>
<path d="M469.506 93.0026L448.252 81.0688V84.223L469.506 96.1567V93.0026Z" fill="#09203F"/>
<path d="M472.615 94.7953V97.9495L514.494 122.136V118.982L472.615 94.7953Z" fill="#09203F"/>
<path d="M485.019 108.504V111.66L509.134 125.57V122.416L485.019 108.504Z" fill="#09203F"/>
<path d="M503.585 109.259L531.32 125.287V122.132L503.585 106.105V109.259Z" fill="#09203F"/>
<path d="M517.604 123.929L531.32 131.842V128.687L517.604 120.775V123.929Z" fill="#09203F"/>
<path d="M448.252 71.1141L531.32 118.732V115.578L448.252 67.9587V71.1141Z" fill="#09203F"/>
<path d="M512.243 127.363L531.32 138.397V135.241L512.243 124.209V127.363Z" fill="#09203F"/>
<path d="M448.252 97.3319L531.32 144.951V141.797L448.252 94.1778V97.3319Z" fill="#09203F"/>
<path d="M169.356 108.137V133.257L181.674 139.186L196.164 92.3332L169.356 108.137Z" fill="#E5752C"/>
<path d="M170.355 132.63L181.061 137.783L194.447 94.5039L170.355 108.707V132.63ZM181.674 140.184C181.524 140.184 181.377 140.151 181.239 140.084L168.922 134.157C168.577 133.99 168.357 133.64 168.357 133.257V108.137C168.357 107.783 168.544 107.457 168.849 107.277L195.656 91.4735C196.01 91.2646 196.459 91.2952 196.783 91.5507C197.107 91.8062 197.24 92.2335 197.119 92.6274L182.627 139.48C182.541 139.758 182.34 139.985 182.072 140.1C181.945 140.156 181.809 140.184 181.674 140.184Z" fill="#09203F"/>
<path d="M196.056 32.679C195.711 32.679 195.374 32.4993 195.189 32.1786C194.914 31.6994 195.078 31.0899 195.556 30.8144L239.39 5.63995C239.87 5.36713 240.48 5.52949 240.755 6.00727C241.03 6.48638 240.865 7.09591 240.386 7.3714L196.553 32.5459C196.396 32.6364 196.225 32.679 196.056 32.679Z" fill="#09203F"/>
<path d="M245.22 4.44214C244.875 4.44214 244.538 4.2638 244.354 3.94307C244.079 3.46662 244.241 2.85576 244.719 2.58027C250.234 -0.601806 256.135 -0.834706 260.845 1.8483C261.325 2.12113 261.491 2.73066 261.218 3.20976C260.945 3.68887 260.334 3.85524 259.855 3.58241C255.761 1.25075 250.614 1.48497 245.718 4.30772C245.561 4.39955 245.389 4.44214 245.22 4.44214Z" fill="#09203F"/>
<path d="M161.044 120.639L251.678 68.5842C258.888 64.4253 264.733 53.2674 264.733 43.6613V21.0034C264.733 16.1285 269.498 16.0314 267.072 14.2733C266.875 14.1283 257.272 8.62115 257.062 8.50137C254.776 7.1998 251.801 7.33156 248.549 9.20673L157.916 61.2618C150.706 65.4208 144.861 76.5787 144.861 86.1848V108.844C144.861 114.097 146.608 117.797 149.372 119.392C149.462 119.444 159.171 125.116 159.262 125.163C161.514 126.325 157.904 122.451 161.044 120.639Z" fill="#E5752C"/>
<path d="M253.732 8.63956C252.271 8.63956 250.695 9.12134 249.048 10.0716L158.413 62.1267C151.492 66.1193 145.859 76.9125 145.859 86.1833V108.844C145.859 113.526 147.321 117.056 149.871 118.527L151.038 119.208C152.995 120.352 156.911 122.639 158.752 123.713C158.583 122.51 158.689 120.844 160.543 119.775L251.178 67.7189C258.1 63.7264 263.733 52.9345 263.733 43.6624V21.0032C263.733 18.0301 265.301 16.5316 266.237 15.6359C266.373 15.5055 266.544 15.3431 266.659 15.2167C266.615 15.1781 266.558 15.1328 266.485 15.0796C266.099 14.8373 257.103 9.67497 256.567 9.36887C255.717 8.88445 254.763 8.63956 253.732 8.63956ZM159.86 126.375C159.559 126.375 159.243 126.278 158.804 126.05C158.753 126.024 158.706 126 150.031 120.932L148.871 120.256C145.687 118.418 143.861 114.259 143.861 108.844V86.1833C143.861 76.2764 149.942 64.7085 157.416 60.3966L248.051 8.34145C251.49 6.35848 254.886 6.11359 257.555 7.63477C257.651 7.68933 267.388 13.2683 267.657 13.4639C268.103 13.7873 268.701 14.3077 268.755 15.0849C268.812 15.9366 268.206 16.5169 267.618 17.0785C266.778 17.8824 265.731 18.8832 265.731 21.0032V43.6624C265.731 53.5693 259.65 65.1371 252.176 69.4491L161.541 121.504C160.471 122.122 160.598 123.019 160.894 124.219C161.047 124.839 161.191 125.425 160.792 125.933C160.573 126.214 160.232 126.375 159.86 126.375Z" fill="#09203F"/>
<path d="M154.516 115.76L145.168 110.424L154.516 115.76Z" fill="white"/>
<path d="M154.515 116.76C154.347 116.76 154.176 116.717 154.021 116.628L144.672 111.291C144.193 111.017 144.026 110.408 144.301 109.929C144.575 109.449 145.186 109.286 145.663 109.557L155.012 114.894C155.491 115.168 155.658 115.778 155.383 116.257C155.199 116.579 154.862 116.76 154.515 116.76Z" fill="#09203F"/>
<path d="M155.348 83.9862L145.99 78.6442L155.348 83.9862Z" fill="white"/>
<path d="M155.347 84.9856C155.179 84.9856 155.009 84.943 154.853 84.8538L145.494 79.5105C145.015 79.2376 144.848 78.6268 145.122 78.149C145.397 77.6699 146.008 77.5062 146.485 77.7764L155.844 83.1197C156.324 83.3939 156.49 84.0034 156.216 84.4825C156.032 84.8046 155.695 84.9856 155.347 84.9856Z" fill="#09203F"/>
<path d="M164.506 68.8477L154.991 63.4165L164.506 68.8477Z" fill="white"/>
<path d="M164.505 69.847C164.337 69.847 164.167 69.8045 164.011 69.7153L154.496 64.2827C154.017 64.0099 153.85 63.399 154.124 62.9213C154.399 62.4422 155.01 62.2785 155.487 62.55L165.002 67.9812C165.481 68.2553 165.648 68.8649 165.374 69.344C165.19 69.666 164.853 69.847 164.505 69.847Z" fill="#09203F"/>
<path d="M253.765 17.3462L244.25 11.9136L253.765 17.3462Z" fill="white"/>
<path d="M253.764 18.3429C253.596 18.3429 253.426 18.3003 253.27 18.2125L243.755 12.7799C243.275 12.5071 243.109 11.8962 243.383 11.4184C243.658 10.9393 244.27 10.7757 244.746 11.0458L254.261 16.4784C254.74 16.7512 254.907 17.3621 254.632 17.8398C254.447 18.1632 254.11 18.3429 253.764 18.3429Z" fill="#09203F"/>
<path d="M167.575 66.9033L258.208 14.8481C265.418 10.6892 271.263 15.105 271.263 24.7098V47.369C271.263 56.9737 265.418 68.1317 258.208 72.2919L205.773 102.323L181.622 139.19V116.247L167.575 124.346C160.365 128.506 154.52 124.09 154.52 114.485V91.8262C154.52 82.2201 160.365 71.0622 167.575 66.9033Z" fill="white"/>
<path d="M181.622 115.249C181.794 115.249 181.967 115.293 182.121 115.382C182.43 115.561 182.621 115.891 182.621 116.247V135.842L204.937 101.776C205.023 101.644 205.139 101.535 205.276 101.456L257.711 71.4256C264.631 67.433 270.264 56.6411 270.264 47.369V24.7098C270.264 18.375 267.565 14.2812 263.391 14.2812C261.929 14.2812 260.354 14.763 258.707 15.7132L168.072 67.7684C161.151 71.7609 155.519 82.5528 155.519 91.8263V114.485C155.519 120.82 158.216 124.914 162.391 124.914C163.852 124.914 165.428 124.432 167.076 123.482L181.122 115.382C181.277 115.293 181.45 115.249 181.622 115.249ZM181.622 140.188C181.527 140.188 181.43 140.175 181.337 140.147C180.913 140.021 180.623 139.632 180.623 139.19V117.976L168.075 125.211C166.119 126.338 164.208 126.91 162.391 126.91C157.003 126.91 153.521 122.033 153.521 114.485V91.8263C153.521 81.918 159.602 70.3502 167.076 66.0382L257.71 13.9831C259.662 12.8572 261.575 12.2849 263.391 12.2849C268.78 12.2849 272.262 17.1625 272.262 24.7098V47.369C272.262 57.2759 266.181 68.845 258.707 73.1557L206.478 103.068L182.457 139.737C182.269 140.025 181.952 140.188 181.622 140.188Z" fill="#09203F"/>
<path d="M221.267 66.7862L254.927 47.6977V50.8518L221.267 69.9403V66.7862Z" fill="#09203F"/>
<path d="M202.703 64.3866L254.927 34.5888V37.7429L202.703 67.5408V64.3866Z" fill="#09203F"/>
<path d="M233.673 53.077L254.927 41.1432V44.2973L233.673 56.2311V53.077Z" fill="#09203F"/>
<path d="M230.564 54.8697V58.0238L188.684 82.2108V79.0567L230.564 54.8697Z" fill="#09203F"/>
<path d="M218.16 68.5787V71.7342L194.045 85.6443V82.4902L218.16 68.5787Z" fill="#09203F"/>
<path d="M199.594 69.3335L171.859 85.361V82.2068L199.594 66.1793V69.3335Z" fill="#09203F"/>
<path d="M185.577 84.0035L171.859 91.9167V88.7613L185.577 80.8494V84.0035Z" fill="#09203F"/>
<path d="M190.935 87.4371L171.859 98.4712V95.3157L190.935 84.2829V87.4371Z" fill="#09203F"/>
<path d="M254.927 57.4062L171.859 105.026V101.872L254.927 54.2521V57.4062Z" fill="#09203F"/>
<path d="M534.385 265.019C533.833 265.019 533.386 264.571 533.386 264.02V258.099C533.386 257.548 533.833 257.101 534.385 257.101C534.936 257.101 535.384 257.548 535.384 258.099V264.02C535.384 264.571 534.936 265.019 534.385 265.019Z" fill="#09203F"/>
<path d="M533.057 251.647C532.616 251.647 532.215 251.356 532.092 250.914C529.627 241.952 524.035 234.043 517.498 230.273L467.873 201.659C467.396 201.384 467.231 200.773 467.508 200.296C467.784 199.819 468.392 199.655 468.872 199.93L518.497 228.544C525.472 232.566 531.42 240.935 534.02 250.384C534.166 250.915 533.853 251.465 533.322 251.613C533.231 251.635 533.143 251.647 533.057 251.647Z" fill="#09203F"/>
<path d="M511.541 301.203L379.724 225.906C372.513 221.747 366.668 210.588 366.668 200.983V171.67C366.668 166.795 361.904 166.697 364.329 164.939C364.526 164.796 374.129 159.289 374.34 159.169C376.625 157.866 379.6 157.998 382.851 159.874L514.669 235.171C521.879 239.33 527.725 250.49 527.725 260.094V289.408C527.725 294.661 525.976 298.362 523.213 299.956C523.124 300.008 513.414 305.68 513.324 305.728C511.071 306.889 514.681 303.014 511.541 301.203Z" fill="#E5752C"/>
<path d="M364.739 165.883C364.855 166.009 365.026 166.172 365.163 166.302C366.099 167.198 367.667 168.696 367.667 171.67V200.983C367.667 210.255 373.3 221.047 380.223 225.042L512.036 300.337C513.895 301.409 514.002 303.077 513.831 304.279C515.656 303.214 519.587 300.918 521.546 299.772L522.712 299.092C525.263 297.62 526.725 294.091 526.725 289.408V260.094C526.725 250.822 521.092 240.03 514.17 236.036L382.357 160.741C379.538 159.117 376.886 158.867 374.834 160.035C374.242 160.372 365.29 165.512 364.881 165.773C364.823 165.814 364.775 165.851 364.739 165.883ZM512.724 306.939C512.353 306.939 512.013 306.778 511.792 306.497C511.394 305.989 511.537 305.403 511.689 304.783C511.985 303.583 512.113 302.686 511.041 302.068L379.228 226.774C371.75 222.458 365.669 210.89 365.669 200.983V171.67C365.669 169.549 364.622 168.55 363.78 167.745C363.194 167.185 362.587 166.604 362.645 165.753C362.697 164.974 363.295 164.455 363.742 164.132C364.011 163.936 373.752 158.354 373.847 158.3C376.513 156.783 379.909 157.025 383.352 159.01L515.165 234.305C522.643 238.618 528.724 250.186 528.724 260.094V289.408C528.724 294.822 526.896 298.982 523.712 300.82L522.556 301.496C513.876 306.567 513.83 306.589 513.781 306.616C513.341 306.842 513.024 306.939 512.724 306.939Z" fill="#09203F"/>
<path d="M518.068 296.326L527.417 290.989L518.068 296.326Z" fill="white"/>
<path d="M518.071 297.322C517.723 297.322 517.386 297.143 517.201 296.819C516.928 296.342 517.095 295.732 517.573 295.458L526.921 290.121C527.399 289.848 528.009 290.015 528.284 290.494C528.558 290.972 528.392 291.581 527.912 291.855L518.565 297.192C518.408 297.28 518.238 297.322 518.071 297.322Z" fill="#09203F"/>
<path d="M517.236 257.897L526.595 252.554L517.236 257.897Z" fill="white"/>
<path d="M517.239 258.894C516.891 258.894 516.554 258.714 516.369 258.391C516.096 257.913 516.262 257.304 516.74 257.029L526.099 251.686C526.578 251.413 527.188 251.58 527.462 252.059C527.735 252.536 527.569 253.146 527.09 253.42L517.733 258.763C517.576 258.851 517.405 258.894 517.239 258.894Z" fill="#09203F"/>
<path d="M508.078 242.759L517.593 237.326L508.078 242.759Z" fill="white"/>
<path d="M508.081 243.755C507.733 243.755 507.396 243.576 507.211 243.252C506.938 242.775 507.104 242.165 507.583 241.891L517.097 236.46C517.576 236.188 518.186 236.353 518.46 236.831C518.734 237.31 518.568 237.92 518.088 238.194L508.575 243.625C508.418 243.713 508.247 243.755 508.081 243.755Z" fill="#09203F"/>
<path d="M377.635 168.012L387.15 162.58L377.635 168.012Z" fill="white"/>
<path d="M377.638 169.01C377.29 169.01 376.953 168.829 376.768 168.507C376.495 168.028 376.661 167.419 377.141 167.145L386.654 161.713C387.134 161.439 387.744 161.606 388.018 162.085C388.291 162.564 388.125 163.173 387.645 163.448L378.132 168.879C377.976 168.968 377.805 169.01 377.638 169.01Z" fill="#09203F"/>
<path d="M505.009 240.813L373.192 165.516C365.982 161.357 360.137 165.771 360.137 175.376V204.69C360.137 214.296 365.982 225.454 373.192 229.612L505.009 304.911C512.219 309.07 518.064 304.655 518.064 295.049V265.736C518.064 256.131 512.219 244.972 505.009 240.813Z" fill="white"/>
<path d="M368.009 164.949C363.834 164.949 361.136 169.042 361.136 175.376V204.689C361.136 213.963 366.769 224.755 373.692 228.749L505.505 304.043C507.155 304.996 508.731 305.477 510.192 305.477C512.162 305.477 513.842 304.576 515.05 302.868C516.369 301.005 517.067 298.302 517.067 295.049V265.736C517.067 256.464 511.433 245.672 504.509 241.678L372.697 166.382C371.047 165.431 369.471 164.949 368.009 164.949ZM510.192 307.473C510.192 307.473 510.192 307.473 510.191 307.473C508.375 307.473 506.464 306.902 504.509 305.775L372.697 230.48C365.219 226.167 359.138 214.598 359.138 204.689V175.376C359.138 167.829 362.62 162.952 368.009 162.952C369.825 162.952 371.738 163.523 373.692 164.651L505.505 239.947C512.983 244.26 519.065 255.829 519.065 265.736V295.049C519.065 298.716 518.24 301.818 516.682 304.022C515.106 306.247 512.8 307.473 510.192 307.473Z" fill="#09203F"/>
<path d="M376.452 184.9V196.704L501.391 267.457V255.651L376.452 184.9Z" fill="#E5752C"/>
<path d="M377.451 196.123L500.392 265.744V256.231L377.451 186.612V196.123ZM501.391 268.455C501.221 268.455 501.052 268.412 500.898 268.324L375.959 197.572C375.647 197.395 375.453 197.064 375.453 196.704V184.9C375.453 184.544 375.642 184.216 375.949 184.037C376.259 183.859 376.636 183.858 376.945 184.031L501.884 254.783C502.197 254.959 502.39 255.29 502.39 255.651V267.457C502.39 267.812 502.201 268.141 501.895 268.319C501.739 268.41 501.566 268.455 501.391 268.455Z" fill="#09203F"/>
<path d="M376.452 216.567L501.391 287.32V275.514L376.452 204.763V216.567Z" fill="#E5752C"/>
<path d="M377.451 215.986L500.392 285.607V276.095L377.451 206.476V215.986ZM501.391 288.318C501.221 288.318 501.052 288.275 500.898 288.187L375.959 217.435C375.647 217.258 375.453 216.927 375.453 216.567V204.763C375.453 204.406 375.642 204.079 375.949 203.9C376.259 203.721 376.636 203.721 376.945 203.894L501.884 274.646C502.197 274.823 502.39 275.154 502.39 275.515V287.32C502.39 287.674 502.201 288.002 501.895 288.182C501.739 288.273 501.566 288.318 501.391 288.318Z" fill="#09203F"/>
<path d="M300.114 250.378L302.027 286.431L290.371 280.109L274.22 265.137L300.114 250.378Z" fill="#E5752C"/>
<path d="M290.959 279.292L300.936 284.702L299.201 252.047L275.899 265.33L290.959 279.292ZM302.028 287.429C301.863 287.429 301.699 287.389 301.551 287.308L289.896 280.986C289.821 280.946 289.753 280.898 289.692 280.841L273.541 265.869C273.308 265.652 273.192 265.338 273.228 265.023C273.265 264.707 273.449 264.428 273.726 264.269L299.618 249.511C299.919 249.34 300.287 249.334 300.592 249.502C300.897 249.668 301.093 249.979 301.112 250.325L303.026 286.377C303.044 286.738 302.866 287.081 302.561 287.274C302.398 287.377 302.213 287.429 302.028 287.429Z" fill="#09203F"/>
<path d="M212.491 306.451L305.321 253.075C312.531 248.916 318.376 237.759 318.376 228.152V198.839C318.376 193.964 323.142 193.868 320.717 192.109C320.518 191.965 310.915 186.458 310.705 186.338C308.419 185.037 305.445 185.168 302.193 187.044L209.362 240.419C202.151 244.578 196.306 255.736 196.306 265.341V294.655C196.306 299.908 198.055 303.608 200.818 305.204C200.908 305.254 210.616 310.928 210.707 310.974C212.959 312.135 209.351 308.261 212.491 306.451Z" fill="#E5752C"/>
<path d="M307.376 186.477C305.915 186.477 304.339 186.958 302.693 187.907L209.861 241.284C202.939 245.277 197.305 256.069 197.305 265.341V294.654C197.305 299.337 198.768 302.867 201.319 304.339L201.577 304.489C205.77 306.939 208.749 308.68 210.2 309.524C210.029 308.322 210.136 306.656 211.991 305.586L304.823 252.21C311.744 248.218 317.377 237.426 317.377 228.154V198.839C317.377 195.866 318.945 194.367 319.883 193.473C320.019 193.343 320.188 193.18 320.304 193.054C320.26 193.015 320.204 192.97 320.129 192.917C319.738 192.672 310.748 187.512 310.211 187.206C309.361 186.722 308.407 186.477 307.376 186.477ZM211.306 312.185C211.007 312.185 210.691 312.088 210.25 311.862C210.21 311.842 210.145 311.807 200.569 306.213L200.314 306.065C197.133 304.23 195.307 300.071 195.307 294.654V265.341C195.307 255.434 201.388 243.865 208.863 239.554L301.695 186.179C305.136 184.193 308.53 183.951 311.201 185.472C311.296 185.525 321.03 191.103 321.303 191.301C321.749 191.624 322.347 192.145 322.399 192.922C322.458 193.774 321.85 194.354 321.263 194.916C320.422 195.72 319.375 196.72 319.375 198.839V228.154C319.375 238.061 313.294 249.629 305.82 253.94L212.989 307.316C211.919 307.932 212.044 308.83 212.34 310.029C212.493 310.65 212.637 311.235 212.239 311.744C212.019 312.024 211.679 312.185 211.306 312.185Z" fill="#09203F"/>
<path d="M219.022 246.06L311.852 192.685C319.062 188.526 324.907 192.941 324.907 202.547V231.86C324.907 241.465 319.062 252.623 311.852 256.783L302.111 262.399V286.513L285.96 271.541L219.022 310.157C211.811 314.316 205.966 309.902 205.966 300.297V270.982C205.966 261.377 211.811 250.219 219.022 246.06Z" fill="white"/>
<path d="M317.036 192.118C315.575 192.118 313.999 192.6 312.353 193.55L219.52 246.926C212.597 250.918 206.965 261.711 206.965 270.982V300.297C206.965 306.632 209.662 310.724 213.838 310.724C215.3 310.724 216.876 310.242 218.522 309.294L285.46 270.677C285.837 270.459 286.316 270.512 286.639 270.809L301.111 284.227V262.399C301.111 262.044 301.302 261.714 301.611 261.536L311.353 255.918C318.276 251.924 323.908 241.132 323.908 231.86V202.547C323.908 196.212 321.211 192.118 317.036 192.118ZM213.838 312.72C208.449 312.72 204.967 307.844 204.967 300.297V270.982C204.967 261.075 211.048 249.507 218.522 245.195L311.353 191.82C313.308 190.694 315.219 190.122 317.036 190.122C322.425 190.122 325.906 195 325.906 202.547V231.86C325.906 241.767 319.825 253.336 312.353 257.647L303.109 262.976V286.513C303.109 286.91 302.874 287.27 302.51 287.429C302.148 287.587 301.724 287.515 301.431 287.245L285.821 272.775L219.521 311.021C217.567 312.148 215.655 312.72 213.838 312.72Z" fill="#09203F"/>
<path d="M254.149 242.878L306.373 213.081V216.235L254.149 246.033V242.878Z" fill="#09203F"/>
<path d="M285.119 231.569L306.373 219.635V222.789L285.119 234.723V231.569Z" fill="#09203F"/>
<path d="M282.011 233.361V236.516L240.131 260.703V257.548L282.011 233.361Z" fill="#09203F"/>
<path d="M306.373 241.621L223.305 289.239V276.769L306.373 229.149V241.621Z" fill="#E5752C"/>
<path d="M224.304 277.348V287.515L305.374 241.042V230.874L224.304 277.348ZM223.305 290.237C223.132 290.237 222.959 290.193 222.804 290.104C222.495 289.924 222.306 289.595 222.306 289.239V276.769C222.306 276.411 222.497 276.081 222.808 275.904L305.876 228.284C306.184 228.109 306.565 228.107 306.874 228.286C307.183 228.465 307.372 228.794 307.372 229.151V241.621C307.372 241.977 307.182 242.307 306.87 242.486L223.802 290.105C223.649 290.193 223.477 290.237 223.305 290.237Z" fill="#09203F"/>
<path d="M205.962 301.572L196.614 296.235L205.962 301.572Z" fill="white"/>
<path d="M205.961 302.57C205.793 302.57 205.623 302.527 205.467 302.438L196.118 297.101C195.639 296.827 195.472 296.218 195.747 295.74C196.021 295.262 196.634 295.096 197.11 295.369L206.458 300.704C206.937 300.978 207.104 301.588 206.829 302.067C206.646 302.389 206.309 302.57 205.961 302.57Z" fill="#09203F"/>
<path d="M206.795 263.143L197.436 257.801L206.795 263.143Z" fill="white"/>
<path d="M206.793 264.141C206.626 264.141 206.455 264.099 206.299 264.01L196.94 258.666C196.462 258.392 196.296 257.783 196.569 257.305C196.844 256.827 197.456 256.665 197.933 256.934L207.29 262.276C207.77 262.55 207.935 263.159 207.662 263.638C207.478 263.96 207.141 264.141 206.793 264.141Z" fill="#09203F"/>
<path d="M215.953 248.005L206.438 242.574L215.953 248.005Z" fill="white"/>
<path d="M215.951 249.003C215.783 249.003 215.613 248.96 215.457 248.871L205.942 243.44C205.463 243.166 205.296 242.556 205.571 242.079C205.845 241.599 206.456 241.432 206.933 241.706L216.448 247.137C216.928 247.411 217.094 248.021 216.82 248.5C216.636 248.822 216.299 249.003 215.951 249.003Z" fill="#09203F"/>
<path d="M307.409 195.182L297.895 189.751L307.409 195.182Z" fill="white"/>
<path d="M307.41 196.18C307.24 196.18 307.07 196.139 306.914 196.05L297.399 190.617C296.921 190.344 296.755 189.733 297.028 189.255C297.302 188.776 297.916 188.613 298.392 188.883L307.905 194.315C308.385 194.59 308.551 195.199 308.277 195.677C308.093 196 307.756 196.18 307.41 196.18Z" fill="#09203F"/>
<path d="M414.068 79.364C413.619 79.364 413.212 79.0606 413.099 78.6054C410.759 69.1217 405.469 59.5223 398.585 52.2691C398.206 51.8685 398.223 51.2377 398.624 50.8571C399.02 50.4791 399.654 50.4951 400.035 50.8957C407.15 58.3924 412.618 68.3192 415.04 78.1276C415.171 78.6626 414.844 79.203 414.309 79.3347C414.227 79.356 414.148 79.364 414.068 79.364Z" fill="#09203F"/>
<path d="M408.769 88.9689C408.769 74.2802 398.381 56.3802 385.57 48.99C379.353 45.4033 373.712 44.9588 369.547 47.1201L362.061 51.3323L363.647 54.2388C362.824 56.4907 362.371 59.1564 362.371 62.2054C362.371 76.894 372.757 94.7927 385.57 102.184C387.499 103.297 389.37 104.102 391.162 104.626L393.478 108.588L401.73 103.982C406.069 101.652 408.769 96.4523 408.769 88.9689Z" fill="#E5752C"/>
<path d="M363.409 51.7181L364.525 53.761C364.663 54.0125 364.685 54.3119 364.586 54.5821C363.779 56.786 363.37 59.3506 363.37 62.2053C363.37 76.5519 373.552 94.0992 386.069 101.319C387.882 102.365 389.691 103.154 391.443 103.669C391.688 103.741 391.896 103.904 392.025 104.123L393.847 107.24L401.241 103.11C405.457 100.848 407.77 95.828 407.77 88.9688C407.77 74.6208 397.586 57.0735 385.07 49.8536C379.403 46.585 374.01 45.9302 370.008 48.005L363.409 51.7181ZM393.48 109.586C393.136 109.586 392.802 109.409 392.616 109.093L390.497 105.469C388.714 104.911 386.89 104.097 385.07 103.048C372.003 95.5113 361.372 77.188 361.372 62.2053C361.372 59.2973 361.772 56.6503 362.557 54.3266L361.183 51.8099C360.922 51.3295 361.094 50.7293 361.569 50.4618L369.057 46.2509C373.751 43.8128 379.785 44.4995 386.069 48.1248C399.135 55.6628 409.768 73.986 409.768 88.9688C409.768 96.5986 407.081 102.241 402.203 104.861L393.967 109.46C393.811 109.547 393.645 109.586 393.48 109.586Z" fill="#09203F"/>
<path d="M400.537 93.5682C400.537 108.258 390.151 114.174 377.338 106.784C364.525 99.3934 354.139 81.4934 354.139 66.8047C354.139 52.1147 364.525 46.1991 377.338 53.5893C390.151 60.9809 400.537 78.8796 400.537 93.5682Z" fill="white"/>
<path d="M366.925 51.4041C359.655 51.4041 355.138 57.3051 355.138 66.8048C355.138 81.1527 365.321 98.7 377.837 105.92C381.346 107.943 384.681 108.969 387.752 108.969C395.022 108.969 399.538 103.068 399.538 93.5683C399.538 79.2203 389.356 61.6743 376.838 54.4544C373.33 52.4302 369.994 51.4041 366.925 51.4041ZM387.752 110.965C384.326 110.965 380.653 109.849 376.838 107.647C363.772 100.111 353.14 81.7889 353.14 66.8048C353.14 56.2364 358.552 49.4078 366.925 49.4078C370.35 49.4078 374.022 50.5244 377.837 52.7256C390.905 60.2636 401.536 78.5855 401.536 93.5683C401.536 104.137 396.125 110.965 387.752 110.965Z" fill="#09203F"/>
<path d="M371.791 51.1926L379.849 46.5918L371.791 51.1926Z" fill="white"/>
<path d="M372.287 52.0588L371.296 50.3247L379.353 45.7253L380.344 47.4594L372.287 52.0588Z" fill="#09203F"/>
<path d="M398.099 79.4731L406.157 74.8724L398.099 79.4731Z" fill="white"/>
<path d="M398.595 80.3396L397.604 78.6055L405.661 74.006L406.652 75.7402L398.595 80.3396Z" fill="#09203F"/>
<path d="M400.43 89.4546L408.488 84.8538L400.43 89.4546Z" fill="white"/>
<path d="M400.926 90.321L399.935 88.5883L407.992 83.9875L408.983 85.7216L400.926 90.321Z" fill="#09203F"/>
<path d="M400.93 94.4453L408.987 89.8445L400.93 94.4453Z" fill="white"/>
<path d="M401.425 95.3118L400.434 93.579L408.492 88.9782L409.483 90.7123L401.425 95.3118Z" fill="#09203F"/>
<path d="M383.907 86.532C382.613 85.4287 381.445 84.026 380.52 82.4795C379.959 81.5426 379.979 80.5258 380.524 80.2091C381.229 79.7992 381.849 79.1471 382.253 78.282C382.847 78.4457 383.584 78.2274 383.584 77.413C383.584 76.5838 383.216 75.6802 382.726 75.2237C382.581 71.6717 381.366 68.0224 377.278 65.6642C373.19 63.3059 371.975 65.5537 371.83 68.9381C371.34 68.8289 370.972 69.3094 370.972 70.1385C370.972 70.953 371.709 72.0203 372.303 72.542C372.708 73.8742 373.327 75.2423 374.032 76.464C374.576 77.4103 374.596 78.4484 374.037 78.7398C373.111 79.2203 371.943 79.2748 370.648 78.8836C368.933 78.3659 367.656 79.3999 367.656 81.512V85.1745C367.656 85.8839 368.159 86.7489 368.778 87.1056L385.779 96.9127C386.397 97.2693 386.899 96.9832 386.899 96.2739V92.6113C386.899 90.4993 385.623 87.9933 383.907 86.532Z" fill="#E5752C"/>
<path d="M369.809 79.7501C368.769 79.7501 368.657 80.9824 368.657 81.5121V85.1746C368.657 85.526 368.97 86.0637 369.276 86.2407L385.896 95.8281L385.9 92.6128C385.9 90.8321 384.789 88.5949 383.259 87.2907C381.891 86.1262 380.648 84.6396 379.662 82.992C379.172 82.1709 378.992 81.2379 379.185 80.4953C379.315 79.9923 379.612 79.5837 380.022 79.3468C380.589 79.0168 381.048 78.503 381.349 77.8589C381.555 77.417 382.055 77.1908 382.521 77.3199C382.521 77.3199 382.547 77.3213 382.579 77.3226C382.547 76.741 382.288 76.1794 382.044 75.9531C381.852 75.7748 381.739 75.5272 381.728 75.2637C381.562 71.2113 379.942 68.3539 376.778 66.528C375.574 65.8346 374.834 65.6882 374.426 65.6882C374.065 65.6882 372.969 65.6882 372.828 68.9808C372.817 69.2749 372.673 69.549 372.439 69.73C372.305 69.8325 372.15 69.8977 371.987 69.9243C371.978 69.9802 371.971 70.0521 371.971 70.1386C371.971 70.5339 372.463 71.3524 372.963 71.7929C373.102 71.9153 373.204 72.075 373.259 72.252C373.624 73.4551 374.192 74.7394 374.898 75.9664C375.401 76.8408 375.572 77.8057 375.354 78.5483C375.212 79.0287 374.908 79.412 374.497 79.6263C373.339 80.2265 371.895 80.3037 370.361 79.8392C370.163 79.7793 369.978 79.7501 369.809 79.7501ZM386.281 98.064C385.947 98.064 385.608 97.9668 385.278 97.7765L368.277 87.9694C367.354 87.4384 366.659 86.2353 366.659 85.1746V81.5121C366.659 79.2643 367.924 77.7538 369.809 77.7538C370.174 77.7538 370.554 77.8123 370.937 77.9281C371.9 78.2209 372.773 78.2156 373.448 77.9148C373.46 77.7524 373.416 77.3958 373.165 76.9619C372.433 75.6909 371.835 74.3574 371.426 73.0865C370.776 72.429 369.973 71.2472 369.973 70.1386C369.973 69.1232 370.371 68.4764 370.883 68.1583C371.238 64.4905 372.981 63.6919 374.426 63.6919C375.388 63.6919 376.485 64.0539 377.777 64.8005C381.433 66.9086 383.425 70.277 383.705 74.8192C384.24 75.4966 384.583 76.4841 384.583 77.4144C384.583 78.4591 383.854 79.235 382.822 79.3228C382.382 80.0229 381.802 80.6018 381.113 81.0197C381.089 81.1594 381.11 81.5214 381.377 81.9673C382.253 83.4312 383.352 84.7474 384.555 85.7722C386.524 87.4491 387.898 90.2612 387.898 92.6128V96.274C387.898 96.7464 387.762 97.1643 387.507 97.4837C387.21 97.8524 386.763 98.064 386.281 98.064Z" fill="#09203F"/>
<path d="M170.511 257.051C170.511 242.362 180.898 224.462 193.71 217.072C199.927 213.485 205.568 213.041 209.733 215.202L217.219 219.414L215.633 222.321C216.456 224.572 216.909 227.237 216.909 230.286C216.909 244.976 206.523 262.875 193.71 270.266C191.781 271.379 189.91 272.184 188.118 272.708L185.802 276.67L177.55 272.064C173.211 269.734 170.511 264.534 170.511 257.051Z" fill="#E5752C"/>
<path d="M204.109 214.892C201.043 214.892 197.711 215.915 194.21 217.936C181.694 225.157 171.51 242.703 171.51 257.051C171.51 263.91 173.823 268.929 178.023 271.186L185.433 275.322L187.255 272.205C187.384 271.984 187.592 271.822 187.837 271.751C189.591 271.236 191.399 270.446 193.211 269.401C205.728 262.181 215.911 244.635 215.911 230.286C215.911 227.435 215.502 224.869 214.694 222.664C214.595 222.394 214.618 222.094 214.755 221.843L215.871 219.799L209.243 216.072C207.743 215.295 206.006 214.892 204.109 214.892ZM185.8 277.67C185.635 277.67 185.469 277.63 185.314 277.542L177.062 272.934C172.199 270.323 169.512 264.679 169.512 257.051C169.512 242.068 180.143 223.745 193.211 216.207C197.02 214.009 200.687 212.896 204.109 212.896C206.33 212.896 208.376 213.373 210.193 214.317L217.709 218.544C218.186 218.811 218.36 219.411 218.097 219.892L216.722 222.409C217.51 224.734 217.909 227.382 217.909 230.286C217.909 245.27 207.277 263.593 194.21 271.13C192.391 272.179 190.568 272.992 188.783 273.549L186.663 277.175C186.478 277.491 186.144 277.67 185.8 277.67Z" fill="#09203F"/>
<path d="M178.743 261.65C178.743 276.34 189.129 282.257 201.942 274.866C214.755 267.475 225.141 249.575 225.141 234.887C225.141 220.198 214.755 214.281 201.942 221.671C189.129 229.063 178.743 246.961 178.743 261.65Z" fill="white"/>
<path d="M212.356 219.486C209.286 219.486 205.95 220.513 202.442 222.536C189.924 229.756 179.742 247.302 179.742 261.651C179.742 271.148 184.258 277.05 191.529 277.051H191.531C194.6 277.051 197.935 276.025 201.443 274.002C213.958 266.781 224.142 249.235 224.142 234.887C224.142 225.388 219.626 219.486 212.356 219.486ZM191.531 279.047C191.529 279.047 191.529 279.047 191.528 279.047C183.155 279.046 177.744 272.217 177.744 261.651C177.744 246.667 188.375 228.344 201.443 220.808C205.259 218.606 208.93 217.49 212.356 217.49C220.729 217.49 226.14 224.32 226.14 234.887C226.14 249.869 215.509 268.193 202.442 275.731C198.627 277.931 194.955 279.047 191.531 279.047Z" fill="#09203F"/>
<path d="M207.489 219.274L199.431 214.674L207.489 219.274Z" fill="white"/>
<path d="M206.992 220.141L198.934 215.541L199.927 213.807L207.983 218.407L206.992 220.141Z" fill="#09203F"/>
<path d="M181.181 247.555L173.123 242.954L181.181 247.555Z" fill="white"/>
<path d="M180.684 248.421L172.627 243.822L173.619 242.088L181.675 246.687L180.684 248.421Z" fill="#09203F"/>
<path d="M178.85 257.536L170.792 252.936L178.85 257.536Z" fill="white"/>
<path d="M178.353 258.403L170.295 253.803L171.288 252.069L179.344 256.669L178.353 258.403Z" fill="#09203F"/>
<path d="M178.35 262.527L170.293 257.926L178.35 262.527Z" fill="white"/>
<path d="M177.853 263.394L169.796 258.794L170.788 257.06L178.844 261.659L177.853 263.394Z" fill="#09203F"/>
<path d="M195.372 254.614C196.667 253.511 197.835 252.108 198.76 250.561C199.321 249.625 199.301 248.608 198.756 248.291C198.051 247.881 197.43 247.229 197.027 246.364C196.433 246.528 195.696 246.309 195.696 245.496C195.696 244.666 196.064 243.762 196.554 243.306C196.699 239.754 197.913 236.104 202.002 233.746C206.09 231.388 207.305 233.636 207.45 237.02C207.94 236.911 208.308 237.391 208.308 238.22C208.308 239.035 207.571 240.102 206.977 240.624C206.572 241.956 205.953 243.324 205.248 244.546C204.703 245.492 204.683 246.53 205.243 246.822C206.169 247.302 207.337 247.357 208.632 246.965C210.347 246.448 211.623 247.482 211.623 249.594V253.256C211.623 253.966 211.121 254.831 210.502 255.187L193.501 264.995C192.883 265.351 192.381 265.065 192.381 264.356V260.693C192.381 258.581 193.657 256.075 195.372 254.614Z" fill="#E5752C"/>
<path d="M196.883 245.372C197.303 245.372 197.766 245.584 197.933 245.941C198.232 246.583 198.691 247.097 199.258 247.427C199.668 247.667 199.964 248.074 200.094 248.576C200.286 249.32 200.108 250.253 199.619 251.072C198.633 252.721 197.389 254.208 196.021 255.374C194.491 256.675 193.38 258.914 193.38 260.695V263.906L210.004 254.324C210.311 254.145 210.624 253.608 210.624 253.256V249.594C210.624 249.064 210.511 247.832 209.471 247.832C209.302 247.832 209.118 247.861 208.921 247.921C207.389 248.387 205.943 248.31 204.783 247.708C204.37 247.494 204.067 247.111 203.925 246.629C203.708 245.886 203.879 244.921 204.382 244.048C205.09 242.822 205.656 241.537 206.021 240.334C206.075 240.155 206.178 239.996 206.318 239.873C206.817 239.434 207.309 238.616 207.309 238.22C207.309 238.142 207.304 238.075 207.296 238.022C207.12 238.005 206.955 237.933 206.801 237.816C206.567 237.636 206.464 237.358 206.452 237.063C206.31 233.769 205.214 233.769 204.854 233.769C204.445 233.769 203.706 233.916 202.502 234.61C199.337 236.436 197.717 239.294 197.552 243.346C197.541 243.608 197.428 243.857 197.236 244.034C196.992 244.261 196.73 244.829 196.699 245.387C196.759 245.376 196.82 245.372 196.883 245.372ZM192.997 266.146C192.194 266.146 191.382 265.531 191.382 264.356V260.695C191.382 258.343 192.756 255.531 194.724 253.854C195.929 252.829 197.028 251.512 197.903 250.049C198.17 249.603 198.191 249.241 198.167 249.101C197.48 248.684 196.898 248.105 196.458 247.405C196.038 247.367 195.652 247.214 195.352 246.964C194.93 246.614 194.697 246.091 194.697 245.496C194.697 244.567 195.039 243.58 195.575 242.901C195.853 238.361 197.846 234.99 201.502 232.881C202.795 232.136 203.891 231.772 204.854 231.772C206.299 231.772 208.04 232.571 208.397 236.24C208.909 236.558 209.307 237.205 209.307 238.22C209.307 239.33 208.504 240.512 207.854 241.168C207.445 242.439 206.845 243.774 206.114 245.044C205.864 245.479 205.82 245.836 205.832 245.998C206.506 246.299 207.379 246.3 208.343 246.011C208.726 245.895 209.106 245.836 209.471 245.836C211.356 245.836 212.622 247.346 212.622 249.594V253.256C212.622 254.317 211.926 255.518 211.003 256.053L194 265.858C193.67 266.049 193.333 266.146 192.997 266.146Z" fill="#09203F"/>
<path d="M434.915 316.105C434.364 316.105 433.916 315.658 433.916 315.107C433.916 309.113 431.432 302.362 427.433 297.491C427.083 297.066 427.146 296.436 427.572 296.087C427.998 295.737 428.627 295.8 428.979 296.226C433.321 301.517 435.915 308.575 435.915 315.107C435.915 315.658 435.467 316.105 434.915 316.105Z" fill="#09203F"/>
<path d="M422.451 292.837C422.28 292.837 422.105 292.793 421.945 292.7L414.141 288.102C413.667 287.821 413.507 287.209 413.787 286.734C414.068 286.26 414.679 286.101 415.156 286.381L422.96 290.98C423.436 291.26 423.594 291.873 423.315 292.346C423.127 292.662 422.794 292.837 422.451 292.837Z" fill="#09203F"/>
<path d="M419.069 297.571L382.518 276.035C377.446 273.109 373.334 276.215 373.334 282.973V293.298C373.334 300.056 377.446 307.907 382.518 310.833L395.201 318.567L412.193 344.507V328.363L419.069 332.369C424.142 335.296 428.255 332.19 428.255 325.431V315.107C428.255 308.349 424.142 300.498 419.069 297.571Z" fill="#E5752C"/>
<path d="M378.872 275.932C376.114 275.932 374.331 278.696 374.331 282.973V293.298C374.331 299.726 378.228 307.204 383.018 309.968L395.721 317.714C395.848 317.791 395.956 317.895 396.037 318.019L411.194 341.158V328.365C411.194 328.007 411.386 327.677 411.695 327.498C412.008 327.321 412.389 327.323 412.697 327.502L419.573 331.508C422.141 332.988 424.496 332.73 425.891 330.762C426.783 329.501 427.256 327.657 427.256 325.43V315.107C427.256 308.677 423.36 301.198 418.57 298.435L382.011 276.896C380.905 276.258 379.846 275.932 378.872 275.932ZM412.193 345.504C411.863 345.504 411.546 345.338 411.357 345.054L394.488 319.3L381.997 311.685C376.679 308.616 372.333 300.362 372.333 293.298V282.973C372.333 277.483 374.9 273.935 378.872 273.935C380.203 273.935 381.596 274.352 383.018 275.172L419.577 296.71C424.909 299.787 429.254 308.041 429.254 315.107V325.43C429.254 328.073 428.656 330.314 427.524 331.914C426.357 333.562 424.651 334.468 422.717 334.468C421.386 334.468 419.991 334.053 418.57 333.234L413.193 330.101V344.505C413.193 344.948 412.902 345.337 412.479 345.462C412.385 345.492 412.288 345.504 412.193 345.504Z" fill="#09203F"/>
<path d="M392.763 293.792C392.591 293.792 392.415 293.748 392.257 293.655L383.176 288.305C382.702 288.024 382.542 287.412 382.822 286.938C383.103 286.463 383.714 286.303 384.191 286.584L393.272 291.934C393.746 292.213 393.906 292.825 393.626 293.301C393.438 293.616 393.105 293.792 392.763 293.792Z" fill="#09203F"/>
<path d="M417.903 308.605C417.731 308.605 417.556 308.562 417.396 308.467L397.06 296.484C396.585 296.205 396.426 295.592 396.706 295.117C396.987 294.643 397.6 294.484 398.075 294.765L418.411 306.746C418.887 307.027 419.046 307.639 418.766 308.114C418.578 308.43 418.245 308.605 417.903 308.605Z" fill="#09203F"/>
<path d="M404.709 307.485C404.537 307.485 404.361 307.441 404.202 307.348L383.176 294.959C382.702 294.678 382.542 294.066 382.822 293.592C383.103 293.117 383.714 292.957 384.191 293.238L405.217 305.627C405.692 305.908 405.85 306.52 405.57 306.994C405.384 307.309 405.051 307.485 404.709 307.485Z" fill="#09203F"/>
<path d="M417.903 315.26C417.731 315.26 417.556 315.216 417.396 315.12L407.984 309.574C407.509 309.294 407.35 308.683 407.63 308.208C407.911 307.732 408.521 307.571 408.999 307.855L418.411 313.401C418.888 313.681 419.045 314.294 418.766 314.769C418.578 315.084 418.245 315.26 417.903 315.26Z" fill="#09203F"/>
<path d="M417.903 321.914C417.731 321.914 417.556 321.87 417.396 321.776L383.176 301.613C382.702 301.332 382.542 300.72 382.822 300.246C383.103 299.771 383.714 299.611 384.191 299.892L418.411 320.055C418.887 320.336 419.045 320.948 418.766 321.423C418.578 321.738 418.245 321.914 417.903 321.914Z" fill="#09203F"/>
<path d="M260.616 125.079C260.517 125.079 260.419 125.064 260.32 125.034C259.793 124.871 259.498 124.312 259.661 123.785C262.104 115.899 267.076 109.165 272.961 105.77C273.44 105.494 274.05 105.655 274.325 106.134C274.601 106.612 274.439 107.223 273.96 107.498C268.582 110.601 263.834 117.067 261.57 124.376C261.437 124.803 261.042 125.079 260.616 125.079Z" fill="#09203F"/>
<path d="M276.758 112.416L312.013 92.3413C318.055 88.8557 322.953 92.5555 322.953 100.605V108.884C322.953 116.933 318.055 126.283 312.013 129.769L306.759 132.778V152.986L293.224 140.438L276.758 149.844C270.716 153.329 265.818 149.629 265.818 141.58V133.301C265.818 125.251 270.716 115.9 276.758 112.416Z" fill="#E5752C"/>
<path d="M293.226 139.442C293.471 139.442 293.715 139.532 293.905 139.708L305.76 150.698V132.778C305.76 132.421 305.952 132.09 306.263 131.912L311.516 128.903C317.271 125.583 321.954 116.601 321.954 108.884V100.605C321.954 95.3943 319.758 92.0272 316.357 92.0272C315.161 92.0272 313.867 92.4238 312.512 93.205L277.253 113.282C271.5 116.6 266.817 125.582 266.817 133.301V141.58C266.817 146.791 269.013 150.156 272.415 150.156C273.61 150.156 274.904 149.76 276.258 148.98L292.73 139.572C292.885 139.484 293.055 139.442 293.226 139.442ZM306.759 153.984C306.513 153.984 306.269 153.892 306.08 153.718L293.085 141.669L277.253 150.71C275.595 151.667 273.966 152.153 272.415 152.153C267.8 152.153 264.819 148.003 264.819 141.58V133.301C264.819 124.946 269.95 115.189 276.258 111.551L311.519 91.4736C313.176 90.518 314.805 90.0309 316.357 90.0309C320.971 90.0309 323.952 94.1819 323.952 100.605V108.884C323.952 117.238 318.82 126.994 312.512 130.633L307.758 133.357V152.986C307.758 153.382 307.524 153.742 307.159 153.9C307.031 153.956 306.895 153.984 306.759 153.984Z" fill="#09203F"/>
<path d="M298.724 113.064C298.382 113.064 298.049 112.888 297.863 112.573C297.583 112.099 297.74 111.487 298.216 111.206L310.849 103.763C311.324 103.484 311.937 103.64 312.217 104.115C312.496 104.59 312.339 105.201 311.864 105.482L299.231 112.926C299.071 113.019 298.896 113.064 298.724 113.064Z" fill="#09203F"/>
<path d="M277.137 125.784C276.795 125.784 276.462 125.609 276.276 125.293C275.996 124.818 276.153 124.206 276.629 123.926L292.908 114.334C293.383 114.057 293.996 114.211 294.276 114.686C294.557 115.161 294.398 115.774 293.923 116.053L277.644 125.646C277.484 125.74 277.309 125.784 277.137 125.784Z" fill="#09203F"/>
<path d="M277.137 132.439C276.795 132.439 276.462 132.263 276.276 131.948C275.996 131.472 276.153 130.86 276.629 130.581L310.849 110.417C311.324 110.139 311.937 110.294 312.217 110.77C312.497 111.245 312.339 111.856 311.864 112.136L277.644 132.3C277.484 132.395 277.309 132.439 277.137 132.439Z" fill="#09203F"/>
<path d="M290.454 131.246C290.112 131.246 289.778 131.071 289.592 130.755C289.312 130.281 289.469 129.669 289.945 129.388L310.849 117.071C311.324 116.794 311.937 116.949 312.217 117.424C312.497 117.899 312.339 118.51 311.864 118.791L290.96 131.108C290.8 131.202 290.626 131.246 290.454 131.246Z" fill="#09203F"/>
<path d="M277.137 139.093C276.795 139.093 276.462 138.917 276.276 138.602C275.996 138.127 276.153 137.515 276.629 137.235L285.436 132.045C285.912 131.767 286.524 131.922 286.804 132.397C287.085 132.871 286.927 133.483 286.451 133.764L277.644 138.955C277.484 139.048 277.309 139.093 277.137 139.093Z" fill="#09203F"/>
<path d="M228.363 222.966L227.873 222.071C226.948 220.382 225.811 218.884 224.491 217.623C224.091 217.242 224.078 216.609 224.459 216.211C224.84 215.81 225.473 215.8 225.872 216.18C227.104 217.358 228.193 218.718 229.116 220.231L255.5 205.061C255.976 204.787 256.589 204.949 256.864 205.428C257.139 205.906 256.974 206.515 256.496 206.791L228.363 222.966Z" fill="#09203F"/>
<path d="M260.917 204.096C260.572 204.096 260.237 203.916 260.051 203.596C259.776 203.118 259.941 202.508 260.419 202.233L270.656 196.346C271.133 196.072 271.745 196.236 272.02 196.714C272.294 197.191 272.13 197.802 271.652 198.076L261.415 203.963C261.258 204.053 261.086 204.096 260.917 204.096Z" fill="#09203F"/>
<path d="M599.045 52.7163C598.648 52.7163 598.271 52.4781 598.115 52.0868C596.12 47.0748 592.694 42.7934 588.952 40.6361L577.696 34.0045C577.222 33.725 577.063 33.1128 577.343 32.6377C577.624 32.1639 578.234 32.0015 578.711 32.285L589.959 38.9113C594.131 41.3175 597.783 45.8517 599.973 51.3495C600.176 51.8606 599.927 52.4421 599.414 52.6458C599.292 52.6937 599.167 52.7163 599.045 52.7163Z" fill="#09203F"/>
<path d="M586.068 45.5031L553.305 26.1977C548.757 23.5745 545.072 26.36 545.072 32.4181V41.6715C545.072 47.7296 548.757 54.7672 553.305 57.3903L564.673 64.3227L579.905 87.5741V73.105L586.068 76.6943C590.615 79.3188 594.303 76.5333 594.303 70.4753V61.2205C594.303 55.1638 590.615 48.1262 586.068 45.5031Z" fill="#E5752C"/>
<path d="M550.036 26.2097C547.626 26.2097 546.071 28.6465 546.071 32.4181V41.6716C546.071 47.4022 549.541 54.0658 553.804 56.5266L565.193 63.471C565.32 63.5482 565.428 63.652 565.51 63.7758L578.905 84.227V73.1051C578.905 72.7471 579.097 72.417 579.406 72.2387C579.719 72.0617 580.099 72.0643 580.408 72.2427L586.571 75.832C587.55 76.3963 588.482 76.6837 589.337 76.6837H589.338C590.472 76.6837 591.4 76.1834 592.101 75.1945C592.887 74.0819 593.304 72.4503 593.304 70.4766V61.2205C593.304 55.4912 589.835 48.8276 585.568 46.3682L552.797 27.0588C551.822 26.4971 550.891 26.2097 550.036 26.2097ZM579.905 88.5723C579.574 88.5723 579.257 88.4086 579.068 88.1211L563.961 65.0574L552.784 58.2421C547.909 55.43 544.073 48.1462 544.073 41.6716V32.4181C544.073 27.4327 546.413 24.2134 550.036 24.2134C551.247 24.2134 552.515 24.59 553.804 25.334L586.575 44.6434C591.384 47.4169 595.302 54.855 595.302 61.2205V70.4766C595.302 72.8655 594.759 74.8951 593.731 76.347C592.665 77.8522 591.107 78.68 589.338 78.68C589.337 78.68 589.337 78.68 589.337 78.68C588.126 78.68 586.858 78.3034 585.568 77.5594L580.904 74.8432V87.5741C580.904 88.016 580.615 88.4046 580.19 88.531C580.096 88.559 580 88.5723 579.905 88.5723Z" fill="#09203F"/>
<path d="M557.473 41.9563C556.589 41.9563 556.494 43.005 556.494 43.4562C556.494 45.2648 557.827 47.5619 559.407 48.4735C559.796 48.6985 560.165 48.8169 560.476 48.8169C561.36 48.8169 561.455 47.7682 561.455 47.317C561.455 45.5084 560.121 43.21 558.54 42.2997C558.151 42.0748 557.782 41.9563 557.473 41.9563ZM560.476 50.547C559.853 50.547 559.202 50.3527 558.54 49.9721C556.422 48.749 554.761 45.8863 554.761 43.4562C554.761 41.5238 555.852 40.2262 557.473 40.2262C558.094 40.2262 558.747 40.4192 559.407 40.8011C561.526 42.0242 563.188 44.8855 563.188 47.317C563.188 49.2481 562.097 50.547 560.476 50.547Z" fill="#09203F"/>
<path d="M568.005 48.0863C567.122 48.0863 567.026 49.1364 567.026 49.5862C567.026 51.3948 568.36 53.6919 569.94 54.6035C570.328 54.8284 570.697 54.9469 571.009 54.9469C571.892 54.9469 571.987 53.8982 571.987 53.447C571.987 51.6384 570.652 49.3413 569.074 48.4297C568.685 48.2048 568.314 48.0863 568.005 48.0863ZM571.009 56.677C570.386 56.677 569.736 56.4827 569.074 56.1021C566.954 54.8803 565.295 52.0177 565.295 49.5862C565.295 47.6538 566.384 46.3562 568.005 46.3562C568.627 46.3562 569.279 46.5492 569.94 46.9311C572.059 48.1542 573.72 51.0155 573.72 53.447C573.72 55.3794 572.629 56.677 571.009 56.677Z" fill="#09203F"/>
<path d="M578.538 54.2162C577.655 54.2162 577.56 55.2649 577.56 55.7174C577.56 57.5247 578.894 59.8218 580.472 60.7334C580.861 60.9583 581.231 61.0768 581.542 61.0768C582.425 61.0768 582.519 60.0281 582.519 59.5769C582.519 57.7683 581.186 55.4699 579.606 54.5596C579.217 54.3347 578.847 54.2162 578.538 54.2162ZM581.542 62.8069C580.918 62.8069 580.268 62.6139 579.606 62.2319C577.487 61.0102 575.827 58.1476 575.827 55.7174C575.827 53.785 576.917 52.4861 578.538 52.4861C579.16 52.4861 579.811 52.6804 580.472 53.061C582.591 54.2841 584.252 57.1454 584.252 59.5769C584.252 61.5093 583.163 62.8069 581.542 62.8069Z" fill="#09203F"/>
<path d="M668.858 387.893C668.858 402.02 662.911 439.002 655.576 439.002C648.242 439.002 642.295 402.02 642.295 387.893C642.295 375.456 648.242 372.459 655.576 372.459C662.911 372.459 668.858 375.456 668.858 387.893Z" fill="#E5752C"/>
<path d="M655.576 373.457C649.859 373.457 643.294 375.097 643.294 387.892C643.294 403.233 649.588 438.004 655.576 438.004C661.565 438.004 667.859 403.233 667.859 387.892C667.859 375.097 661.294 373.457 655.576 373.457ZM655.576 440C646.495 440 641.296 399.048 641.296 387.892C641.296 376.836 645.968 371.461 655.576 371.461C665.185 371.461 669.857 376.836 669.857 387.892C669.857 399.048 664.658 440 655.576 440Z" fill="#09203F"/>
<path d="M662.877 380.943C662.877 388.709 659.608 409.037 655.576 409.037C651.544 409.037 648.275 388.709 648.275 380.943C648.275 374.106 651.544 372.459 655.576 372.459C659.608 372.459 662.877 374.106 662.877 380.943Z" fill="#09203F"/>
<path d="M667.191 368.028H644.096V371.284H644.1C644.1 371.314 644.096 371.345 644.096 371.376C644.096 375.086 649.266 378.095 655.644 378.095C662.022 378.095 667.191 375.086 667.191 371.376C667.191 371.345 667.189 371.314 667.187 371.284H667.191V368.028Z" fill="white"/>
<path d="M645.095 370.286H645.138L645.098 371.325C645.095 374.476 649.925 377.096 655.644 377.096C661.362 377.096 666.192 374.476 666.192 371.376V369.027H645.095V370.286ZM655.644 379.092C649.107 379.092 643.887 376.167 643.18 372.282H643.101L643.098 371.459C643.097 371.431 643.097 371.405 643.097 371.376V367.03H668.19V372.282H668.092C667.336 376.203 662.139 379.092 655.644 379.092Z" fill="#09203F"/>
<path d="M624.358 296.061C622.54 304.231 613.166 332.203 606.868 330.804C600.57 329.406 599.316 299.248 601.552 290.997C603.481 283.885 609.139 280.223 615.437 281.621C621.735 283.019 625.958 288.868 624.358 296.061Z" fill="white"/>
<path d="M612.813 282.325C607.957 282.325 604.011 285.747 602.515 291.258C600.525 298.604 601.422 321.626 605.455 328.289C605.993 329.179 606.558 329.713 607.085 329.829C607.167 329.848 607.247 329.857 607.333 329.857C612.235 329.857 621.127 305.988 623.383 295.843C624.09 292.663 623.619 289.678 622.02 287.21C620.506 284.871 618.091 283.233 615.22 282.595C614.412 282.417 613.603 282.325 612.813 282.325ZM607.333 331.853C607.103 331.853 606.874 331.828 606.651 331.779C605.563 331.538 604.584 330.711 603.743 329.323C599.16 321.747 598.676 297.791 600.588 290.735C602.329 284.316 607.014 280.329 612.813 280.329C613.748 280.329 614.703 280.436 615.655 280.646C619.039 281.399 621.897 283.345 623.699 286.126C625.566 289.01 626.148 292.615 625.333 296.278C624.393 300.502 615.291 331.853 607.333 331.853Z" fill="#09203F"/>
<path d="M707.041 283.783C707.041 312.18 683.999 371.646 655.576 371.646C627.153 371.646 604.111 312.18 604.111 283.783C604.111 258.784 627.153 252.762 655.576 252.762C683.999 252.762 707.041 258.784 707.041 283.783Z" fill="white"/>
<path d="M655.576 253.758C621.146 253.758 605.111 263.299 605.111 283.783C605.111 312.385 628.471 370.648 655.576 370.648C682.682 370.648 706.042 312.385 706.042 283.783C706.042 263.299 690.007 253.758 655.576 253.758ZM655.576 372.644C626.866 372.644 603.113 313.809 603.113 283.783C603.113 255.081 633.055 251.762 655.576 251.762C678.098 251.762 708.04 255.081 708.04 283.783C708.04 313.809 684.287 372.644 655.576 372.644Z" fill="#09203F"/>
<path d="M635.872 353.296C635.582 353.296 635.292 353.169 635.094 352.925C629.131 345.522 623.32 335.068 618.732 323.486C618.529 322.972 618.78 322.393 619.292 322.19C619.809 321.986 620.387 322.239 620.59 322.75C625.105 334.153 630.811 344.423 636.65 351.672C636.997 352.102 636.929 352.73 636.5 353.075C636.316 353.224 636.093 353.296 635.872 353.296Z" fill="#09203F"/>
<path d="M647.237 363.575C647.072 363.575 646.903 363.534 646.748 363.446C644.191 362.008 641.583 359.948 638.997 357.324C638.61 356.93 638.615 356.298 639.008 355.912C639.401 355.522 640.034 355.53 640.421 355.923C642.875 358.414 645.334 360.36 647.729 361.708C648.208 361.978 648.379 362.587 648.108 363.067C647.925 363.392 647.586 363.575 647.237 363.575Z" fill="#09203F"/>
<path d="M706.203 279.717C706.203 295.944 683.591 309.099 655.7 309.099C627.808 309.099 605.197 295.944 605.197 279.717C605.197 263.488 627.808 250.333 655.7 250.333C683.591 250.333 706.203 263.488 706.203 279.717Z" fill="#E5752C"/>
<path d="M655.7 251.331C628.403 251.331 606.196 264.065 606.196 279.717C606.196 295.369 628.403 308.101 655.7 308.101C682.996 308.101 705.204 295.369 705.204 279.717C705.204 264.065 682.996 251.331 655.7 251.331ZM655.7 310.098C627.302 310.098 604.198 296.47 604.198 279.717C604.198 262.964 627.302 249.335 655.7 249.335C684.099 249.335 707.202 262.964 707.202 279.717C707.202 296.47 684.099 310.098 655.7 310.098Z" fill="#09203F"/>
<path d="M719.001 218.455C718.591 218.455 718.207 218.202 718.061 217.795C714.368 207.538 708.096 198.244 699.921 190.921C699.511 190.553 699.476 189.923 699.844 189.511C700.214 189.1 700.845 189.068 701.254 189.434C709.677 196.979 716.137 206.552 719.942 217.12C720.127 217.639 719.858 218.21 719.34 218.396C719.228 218.436 719.113 218.455 719.001 218.455Z" fill="#09203F"/>
<path d="M695.407 186.978C695.203 186.978 694.995 186.915 694.817 186.785C692.255 184.909 689.542 183.209 686.756 181.73C686.267 181.472 686.084 180.868 686.342 180.38C686.6 179.895 687.204 179.711 687.693 179.967C690.563 181.49 693.358 183.242 695.998 185.174C696.443 185.499 696.539 186.124 696.214 186.568C696.018 186.835 695.714 186.978 695.407 186.978Z" fill="#09203F"/>
<path d="M716.273 240.079C716.273 273.419 689.221 300.446 655.85 300.446C622.481 300.446 595.429 273.419 595.429 240.079C595.429 206.738 622.481 179.711 655.85 179.711C689.221 179.711 716.273 206.738 716.273 240.079Z" fill="white"/>
<path d="M655.852 180.709C623.085 180.709 596.428 207.342 596.428 240.079C596.428 272.816 623.085 299.448 655.852 299.448C688.617 299.448 715.274 272.816 715.274 240.079C715.274 207.342 688.617 180.709 655.852 180.709ZM655.852 301.444C621.983 301.444 594.43 273.917 594.43 240.079C594.43 206.242 621.983 178.713 655.852 178.713C689.719 178.713 717.272 206.242 717.272 240.079C717.272 273.917 689.719 301.444 655.852 301.444Z" fill="#09203F"/>
<path d="M598.981 253.064C611.634 269.369 629.421 279.287 649.036 280.973C654.317 281.427 659.111 276.266 659.111 270.127V252.043C659.111 243.97 654.508 237.313 647.777 235.646C633.59 232.133 620.708 224.492 610.308 213.416C607.846 210.796 603.625 211.866 601.985 215.591C598.626 223.219 596.384 231.516 595.522 240.157C595.042 244.973 596.319 249.631 598.981 253.064Z" fill="#E5752C"/>
<path d="M607.027 212.969C605.328 212.969 603.707 214.155 602.9 215.991C599.499 223.717 597.352 231.881 596.517 240.257C596.068 244.763 597.254 249.207 599.771 252.452C612.255 268.54 629.782 278.315 649.122 279.978C651.452 280.172 653.786 279.113 655.527 277.115C657.17 275.231 658.112 272.683 658.112 270.125V252.043C658.112 244.38 653.861 238.181 647.536 236.614C633.205 233.066 620.08 225.281 609.579 214.1C608.885 213.36 608.003 212.969 607.027 212.969ZM649.684 281.998C649.44 281.998 649.195 281.987 648.95 281.967C629.048 280.256 611.022 270.209 598.191 253.675C595.363 250.031 594.029 245.068 594.528 240.059C595.385 231.473 597.585 223.105 601.071 215.189C602.197 212.628 604.536 210.973 607.027 210.973C608.547 210.973 609.969 211.598 611.036 212.734C621.273 223.635 634.061 231.222 648.018 234.677C655.249 236.468 660.11 243.446 660.11 252.043V270.125C660.11 273.204 659.017 276.151 657.033 278.426C655.054 280.698 652.375 281.998 649.684 281.998Z" fill="#09203F"/>
<path d="M652.033 277.422C632.418 275.738 614.631 265.82 601.978 249.514C599.316 246.082 598.039 241.424 598.519 236.608C599.362 228.154 601.533 220.033 604.773 212.542C603.627 213.131 602.615 214.16 601.985 215.591C598.626 223.219 596.384 231.516 595.522 240.158C595.042 244.973 596.319 249.631 598.981 253.064C611.634 269.369 629.421 279.287 649.036 280.973C652.589 281.278 655.914 279.035 657.715 275.67C656.062 276.919 654.087 277.599 652.033 277.422Z" fill="#09203F"/>
<path d="M709.209 318.6C709.209 326.358 702.914 332.648 695.148 332.648C687.382 332.648 681.087 326.358 681.087 318.6C681.087 310.842 687.382 304.552 695.148 304.552C702.914 304.552 709.209 310.842 709.209 318.6Z" fill="#E5752C"/>
<path d="M695.148 305.55C687.946 305.55 682.088 311.405 682.088 318.6C682.088 325.796 687.946 331.651 695.148 331.651C702.351 331.651 708.209 325.796 708.209 318.6C708.209 311.405 702.351 305.55 695.148 305.55ZM695.148 333.647C686.844 333.647 680.089 326.897 680.089 318.6C680.089 310.304 686.844 303.554 695.148 303.554C703.452 303.554 710.207 310.304 710.207 318.6C710.207 326.897 703.452 333.647 695.148 333.647Z" fill="#09203F"/>
<path d="M707.715 324.829C705.928 335.393 691.079 358.606 684.781 357.209C678.484 355.81 684.103 327.219 685.92 319.048C687.52 311.854 693.507 308.273 699.805 309.672C706.102 311.069 708.942 317.564 707.715 324.829Z" fill="white"/>
<path d="M697.129 310.37C692.114 310.37 688.096 313.861 686.895 319.265C683.053 336.538 681.083 355.364 684.998 356.233C685.107 356.258 685.226 356.272 685.351 356.272C691.157 356.272 705.075 334.458 706.729 324.664C707.94 317.496 705.071 311.862 699.588 310.646C698.766 310.464 697.94 310.37 697.129 310.37ZM685.351 358.268C685.081 358.268 684.817 358.239 684.564 358.183C677.364 356.583 682.431 330.13 684.943 318.831C686.357 312.478 691.14 308.374 697.129 308.374C698.085 308.374 699.058 308.483 700.022 308.698C706.509 310.138 710.078 316.84 708.698 324.997C706.98 335.167 692.776 358.268 685.351 358.268Z" fill="#09203F"/>
<path d="M691.019 346.978C690.807 346.978 690.593 346.91 690.41 346.771C689.973 346.434 689.892 345.807 690.229 345.371C692.528 342.391 694.863 338.82 696.805 335.317C697.072 334.834 697.68 334.661 698.163 334.927C698.645 335.195 698.819 335.802 698.553 336.284C696.563 339.871 694.169 343.533 691.811 346.59C691.614 346.845 691.319 346.978 691.019 346.978Z" fill="#09203F"/>
<path d="M655.628 200.889C655.075 200.889 654.629 200.442 654.629 199.891C654.629 199.34 655.075 198.893 655.628 198.893C657.205 198.893 658.738 198.737 660.183 198.431C660.722 198.312 661.254 198.658 661.369 199.199C661.484 199.738 661.14 200.267 660.6 200.382C659.017 200.718 657.345 200.889 655.628 200.889Z" fill="#09203F"/>
<path d="M663.497 199.47C663.101 199.47 662.726 199.233 662.569 198.842C662.364 198.331 662.614 197.749 663.126 197.546C666.164 196.331 668.367 194.388 669.329 192.075C669.54 191.565 670.126 191.323 670.633 191.534C671.143 191.747 671.386 192.33 671.173 192.84C670.005 195.655 667.41 197.984 663.868 199.398C663.747 199.448 663.621 199.47 663.497 199.47Z" fill="#09203F"/>
<path d="M666.873 189.356C666.873 192.969 661.838 195.898 655.626 195.898C649.415 195.898 644.38 192.969 644.38 189.356C644.38 185.741 649.415 182.812 655.626 182.812C661.838 182.812 666.873 185.741 666.873 189.356Z" fill="#E5752C"/>
<path d="M655.628 183.81C650.073 183.81 645.379 186.349 645.379 189.356C645.379 192.361 650.073 194.9 655.628 194.9C661.181 194.9 665.875 192.361 665.875 189.356C665.875 186.349 661.181 183.81 655.628 183.81ZM655.628 196.896C648.76 196.896 643.381 193.584 643.381 189.356C643.381 185.126 648.76 181.814 655.628 181.814C662.494 181.814 667.873 185.126 667.873 189.356C667.873 193.584 662.494 196.896 655.628 196.896Z" fill="#09203F"/>
<path d="M658.329 165.38H652.924V189.189C652.924 190.058 654.135 190.762 655.626 190.762C657.12 190.762 658.329 190.058 658.329 189.189V165.38Z" fill="white"/>
<path d="M653.923 166.378V189.189C653.971 189.338 654.573 189.764 655.628 189.764C656.681 189.764 657.282 189.337 657.333 189.175L657.331 166.378H653.923ZM655.628 191.76C653.518 191.76 651.925 190.655 651.925 189.189V164.382H659.33V189.189C659.33 190.655 657.738 191.76 655.628 191.76Z" fill="#09203F"/>
<path d="M634.274 167.064C633.722 167.064 633.275 166.617 633.275 166.066C633.275 153.751 643.302 143.733 655.628 143.733C656.179 143.733 656.627 144.18 656.627 144.731C656.627 145.283 656.179 145.729 655.628 145.729C644.404 145.729 635.273 154.852 635.273 166.066C635.273 166.617 634.825 167.064 634.274 167.064Z" fill="#09203F"/>
<path d="M640.934 167.064C640.383 167.064 639.935 166.617 639.935 166.066C639.935 157.42 646.973 150.387 655.628 150.387C656.179 150.387 656.627 150.834 656.627 151.385C656.627 151.937 656.179 152.383 655.628 152.383C648.076 152.383 641.933 158.521 641.933 166.066C641.933 166.617 641.485 167.064 640.934 167.064Z" fill="#09203F"/>
<path d="M663.66 166.067C663.66 170.499 660.064 174.092 655.627 174.092C651.191 174.092 647.594 170.499 647.594 166.067C647.594 161.634 651.191 158.041 655.627 158.041C660.064 158.041 663.66 161.634 663.66 166.067Z" fill="white"/>
<path d="M655.628 159.039C651.747 159.039 648.592 162.192 648.592 166.067C648.592 169.941 651.747 173.094 655.628 173.094C659.505 173.094 662.661 169.941 662.661 166.067C662.661 162.192 659.505 159.039 655.628 159.039ZM655.628 175.09C650.646 175.09 646.594 171.042 646.594 166.067C646.594 161.091 650.646 157.042 655.628 157.042C660.607 157.042 664.659 161.091 664.659 166.067C664.659 171.042 660.607 175.09 655.628 175.09Z" fill="#09203F"/>
<path d="M652.921 167.064C652.37 167.064 651.922 166.617 651.922 166.066C651.922 164.025 653.584 162.366 655.628 162.366C656.179 162.366 656.627 162.813 656.627 163.364C656.627 163.915 656.179 164.362 655.628 164.362C654.687 164.362 653.92 165.126 653.92 166.066C653.92 166.617 653.472 167.064 652.921 167.064Z" fill="#09203F"/>
<path d="M667.486 358.595L669.817 360.924L672.148 358.595L669.817 356.266L667.486 358.595ZM660.825 358.595L663.156 360.924L665.488 358.595L663.156 356.266L660.825 358.595ZM674.146 351.941L676.477 354.27L678.808 351.941L676.477 349.612L674.146 351.941ZM667.486 351.941L669.817 354.27L672.148 351.941L669.817 349.612L667.486 351.941ZM660.825 351.941L663.156 354.27L665.488 351.941L663.156 349.612L660.825 351.941ZM674.146 345.287L676.477 347.616L678.808 345.287L676.477 342.958L674.146 345.287ZM667.486 345.287L669.817 347.616L672.148 345.287L669.817 342.958L667.486 345.287ZM674.146 338.632L676.477 340.961L678.808 338.632L676.477 336.303L674.146 338.632ZM667.486 338.632L669.817 340.961L672.148 338.632L669.817 336.303L667.486 338.632ZM674.146 331.978L676.477 334.307L678.808 331.978L676.477 329.649L674.146 331.978ZM660.825 365.25L663.156 367.579L665.488 365.25L663.156 362.921L660.825 365.25ZM654.165 365.25L656.496 367.579L658.827 365.25L656.496 362.921L654.165 365.25Z" fill="#E5752C"/>
<path d="M702.119 259.891L704.45 262.22L706.781 259.891L704.45 257.562L702.119 259.891ZM695.459 259.891L697.79 262.22L700.121 259.891L697.79 257.562L695.459 259.891ZM688.798 259.891L691.129 262.22L693.461 259.891L691.129 257.562L688.798 259.891ZM682.138 259.891L684.469 262.22L686.8 259.891L684.469 257.562L682.138 259.891ZM702.119 253.237L704.45 255.566L706.781 253.237L704.45 250.908L702.119 253.237ZM695.459 253.237L697.79 255.566L700.121 253.237L697.79 250.908L695.459 253.237ZM688.798 253.237L691.129 255.566L693.461 253.237L691.129 250.908L688.798 253.237ZM708.779 246.582L711.11 248.911L713.441 246.582L711.11 244.253L708.779 246.582ZM702.119 246.582L704.45 248.911L706.781 246.582L704.45 244.253L702.119 246.582ZM695.459 246.582L697.79 248.911L700.121 246.582L697.79 244.253L695.459 246.582ZM708.779 239.928L711.11 242.257L713.441 239.928L711.11 237.599L708.779 239.928ZM702.119 239.928L704.45 242.257L706.781 239.928L704.45 237.599L702.119 239.928ZM695.459 239.928L697.79 242.257L700.121 239.928L697.79 237.599L695.459 239.928ZM708.779 233.274L711.11 235.603L713.441 233.274L711.11 230.945L708.779 233.274ZM702.119 233.274L704.45 235.603L706.781 233.274L704.45 230.945L702.119 233.274ZM695.459 233.274L697.79 235.603L700.121 233.274L697.79 230.945L695.459 233.274ZM702.119 226.62L704.45 228.949L706.781 226.62L704.45 224.291L702.119 226.62ZM668.818 293.162L671.149 295.491L673.48 293.162L671.149 290.833L668.818 293.162ZM662.157 293.162L664.489 295.491L666.82 293.162L664.489 290.833L662.157 293.162ZM655.497 293.162L657.828 295.491L660.159 293.162L657.828 290.833L655.497 293.162ZM648.837 293.162L651.168 295.491L653.499 293.162L651.168 290.833L648.837 293.162ZM682.138 286.508L684.469 288.837L686.8 286.508L684.469 284.179L682.138 286.508ZM675.478 286.508L677.809 288.837L680.14 286.508L677.809 284.179L675.478 286.508ZM668.818 286.508L671.149 288.837L673.48 286.508L671.149 284.179L668.818 286.508ZM662.157 286.508L664.489 288.837L666.82 286.508L664.489 284.179L662.157 286.508ZM688.798 279.854L691.129 282.183L693.461 279.854L691.129 277.525L688.798 279.854ZM682.138 279.854L684.469 282.183L686.8 279.854L684.469 277.525L682.138 279.854ZM675.478 279.854L677.809 282.183L680.14 279.854L677.809 277.525L675.478 279.854ZM695.459 273.2L697.79 275.529L700.121 273.2L697.79 270.871L695.459 273.2ZM688.798 273.2L691.129 275.529L693.461 273.2L691.129 270.871L688.798 273.2ZM682.138 273.2L684.469 275.529L686.8 273.2L684.469 270.871L682.138 273.2ZM675.478 273.2L677.809 275.529L680.14 273.2L677.809 270.871L675.478 273.2ZM702.119 266.545L704.45 268.874L706.781 266.545L704.45 264.216L702.119 266.545ZM695.459 266.545L697.79 268.874L700.121 266.545L697.79 264.216L695.459 266.545ZM688.798 266.545L691.129 268.874L693.461 266.545L691.129 264.216L688.798 266.545ZM682.138 266.545L684.469 268.874L686.8 266.545L684.469 264.216L682.138 266.545Z" fill="#E5752C"/>
<path d="M610.053 234.827C611.598 235.719 612.924 237.538 613.531 239.4C613.756 238.97 613.889 238.43 613.889 237.773C613.889 235.345 612.171 232.385 610.053 231.162C607.934 229.94 606.217 230.918 606.217 233.347C606.217 234.004 606.35 234.698 606.575 235.387C607.183 234.227 608.507 233.935 610.053 234.827Z" fill="#09203F"/>
<path d="M641.063 252.715C642.608 253.607 643.932 255.425 644.54 257.287C644.765 256.857 644.898 256.318 644.898 255.66C644.898 253.231 643.181 250.272 641.063 249.05C638.944 247.828 637.227 248.806 637.227 251.235C637.227 251.891 637.36 252.586 637.585 253.274C638.193 252.114 639.517 251.823 641.063 252.715Z" fill="#09203F"/>
<path d="M625.885 258.691C625.885 261.782 624.233 263.335 622.196 262.16C620.159 260.985 618.508 257.527 618.508 254.436C618.508 251.346 620.159 249.793 622.196 250.968C624.233 252.141 625.885 255.6 625.885 258.691Z" fill="#09203F"/>
<path d="M623.528 258.663C623.528 259.779 622.931 260.34 622.196 259.915C621.461 259.492 620.864 258.242 620.864 257.126C620.864 256.01 621.461 255.449 622.196 255.873C622.931 256.298 623.528 257.546 623.528 258.663Z" fill="white"/>
<path d="M50.142 356.937C50.142 369.226 55.3143 401.394 61.6948 401.394C68.0753 401.394 73.2476 369.226 73.2476 356.937C73.2476 346.119 68.0753 343.513 61.6948 343.513C55.3143 343.513 50.142 346.119 50.142 356.937Z" fill="#E5752C"/>
<path d="M61.6949 344.511C56.7824 344.511 51.1425 345.923 51.1425 356.937C51.1425 371.301 56.9462 400.398 61.6949 400.398C66.445 400.398 72.2487 371.301 72.2487 356.937C72.2487 345.923 66.6089 344.511 61.6949 344.511ZM61.6949 402.394C53.7133 402.394 49.1444 366.668 49.1444 356.937C49.1444 347.233 53.2498 342.515 61.6949 342.515C70.1414 342.515 74.2468 347.233 74.2468 356.937C74.2468 366.668 69.6779 402.394 61.6949 402.394Z" fill="#09203F"/>
<path d="M72.5123 403.514C72.4351 403.514 72.3552 403.505 72.2766 403.486C71.7411 403.357 71.4108 402.818 71.54 402.282C72.0435 400.194 72.5337 397.97 72.9972 395.669C73.1051 395.129 73.6339 394.783 74.1734 394.888C74.7142 394.997 75.0646 395.524 74.9567 396.064C74.4878 398.388 73.9909 400.637 73.4821 402.749C73.3728 403.207 72.9626 403.514 72.5123 403.514Z" fill="#09203F"/>
<path d="M61.6947 425.018C61.1432 425.018 60.6957 424.571 60.6957 424.02C60.6957 423.469 61.1432 423.022 61.6947 423.022C62.434 423.022 63.2412 422.53 64.0924 421.555C66.0438 419.329 68.0792 414.706 69.98 408.182C70.1345 407.652 70.69 407.347 71.2188 407.503C71.749 407.656 72.0527 408.21 71.8995 408.739C69.8895 415.639 67.7688 420.392 65.5963 422.872C64.3482 424.296 63.0348 425.018 61.6947 425.018Z" fill="#09203F"/>
<path d="M54.2792 409.084C53.9289 409.084 53.5905 408.902 53.4067 408.573C50.6307 403.628 48.4981 395.346 47.198 389.27C47.0835 388.73 47.4272 388.2 47.9666 388.084C48.5074 387.966 49.0376 388.313 49.1522 388.851C50.9757 397.371 53.0497 403.855 55.149 407.597C55.4194 408.078 55.2476 408.687 54.7667 408.958C54.6122 409.044 54.4444 409.084 54.2792 409.084Z" fill="#09203F"/>
<path d="M55.345 350.892C55.345 357.648 58.1876 375.331 61.6948 375.331C65.2034 375.331 68.046 357.648 68.046 350.892C68.046 344.945 65.2034 343.513 61.6948 343.513C58.1876 343.513 55.345 344.945 55.345 350.892Z" fill="#09203F"/>
<path d="M50.0807 339.082H73.1757V342.336H73.1717C73.1717 342.368 73.1757 342.399 73.1757 342.429C73.1757 346.14 68.0047 349.148 61.6282 349.148C55.2503 349.148 50.0807 346.14 50.0807 342.429C50.0807 342.399 50.0833 342.368 50.0847 342.336H50.0807V339.082Z" fill="white"/>
<path d="M51.0797 341.339H51.101L51.0837 342.359C51.0797 345.53 55.9097 348.149 61.6282 348.149C67.3453 348.149 72.1767 345.53 72.1767 342.429V340.08H51.0797V341.339ZM61.6282 350.146C55.0905 350.146 49.8716 347.221 49.1629 343.336H49.0856L49.0817 342.513C49.0817 342.485 49.0817 342.459 49.0817 342.429V338.084H74.1747V343.336H74.0722C73.3049 347.264 68.1139 350.146 61.6282 350.146Z" fill="#09203F"/>
<path d="M111.848 309.352C111.389 309.352 110.976 309.036 110.873 308.571C110.754 308.033 111.092 307.498 111.632 307.379C113.268 307.017 115.617 305.924 117.517 302.786C117.802 302.313 118.416 302.163 118.889 302.448C119.362 302.733 119.512 303.346 119.227 303.819C116.963 307.561 114.083 308.88 112.065 309.328C111.991 309.344 111.92 309.352 111.848 309.352Z" fill="#09203F"/>
<path d="M120.663 298.775C120.57 298.775 120.474 298.761 120.381 298.733C119.851 298.578 119.548 298.023 119.704 297.494C121.281 292.148 122.262 284.376 122.392 276.17C122.401 275.624 122.846 275.187 123.39 275.187C123.396 275.187 123.402 275.187 123.407 275.187C123.959 275.196 124.398 275.65 124.39 276.201C124.257 284.58 123.247 292.548 121.621 298.059C121.493 298.494 121.095 298.775 120.663 298.775Z" fill="#09203F"/>
<path d="M92.914 267.114C94.7309 275.285 104.106 303.256 110.404 301.858C116.702 300.46 117.956 270.302 115.72 262.051C113.791 254.939 108.131 251.276 101.835 252.674C95.5367 254.073 91.3142 259.92 92.914 267.114Z" fill="white"/>
<path d="M104.457 253.378C103.669 253.378 102.859 253.47 102.05 253.648C95.9163 255.011 92.485 260.583 93.889 266.897C96.1455 277.04 105.037 300.908 109.94 300.911C110.025 300.911 110.105 300.901 110.187 300.883C110.715 300.767 111.279 300.233 111.818 299.343C115.85 292.678 116.747 269.657 114.755 262.312C113.261 256.801 109.315 253.378 104.457 253.378ZM109.94 302.907H109.939C101.98 302.903 92.8779 271.555 91.9389 267.331C90.3098 260.007 94.4697 253.287 101.617 251.7C102.569 251.489 103.524 251.382 104.457 251.382C110.258 251.382 114.943 255.37 116.684 261.789C118.596 268.845 118.112 292.799 113.529 300.376C112.688 301.765 111.709 302.592 110.621 302.832C110.398 302.882 110.169 302.907 109.94 302.907Z" fill="#09203F"/>
<path d="M10.2306 254.836C10.2306 283.234 33.2718 342.7 61.6947 342.7C90.1192 342.7 113.16 283.234 113.16 254.836C113.16 229.838 90.1192 223.814 61.6947 223.814C33.2718 223.814 10.2306 229.838 10.2306 254.836Z" fill="white"/>
<path d="M61.6947 224.812C27.2651 224.812 11.2291 234.353 11.2291 254.835C11.2291 283.439 34.5894 341.701 61.6947 341.701C88.8019 341.701 112.161 283.439 112.161 254.835C112.161 234.353 96.1255 224.812 61.6947 224.812ZM61.6947 343.698C32.9841 343.698 9.23108 284.863 9.23108 254.835C9.23108 226.135 39.1735 222.816 61.6947 222.816C84.217 222.816 114.159 226.135 114.159 254.835C114.159 284.863 90.407 343.698 61.6947 343.698Z" fill="#09203F"/>
<path d="M56.7169 336.161C56.609 336.161 56.4971 336.144 56.3892 336.105C50.8599 334.183 45.208 329.399 39.5918 321.888C39.2619 321.446 39.3525 320.819 39.7947 320.49C40.2375 320.162 40.8634 320.252 41.1934 320.691C46.4908 327.778 51.9721 332.457 57.0459 334.221C57.5667 334.402 57.8411 334.971 57.6613 335.49C57.5174 335.903 57.1311 336.161 56.7169 336.161Z" fill="#09203F"/>
<path d="M11.0688 250.769C11.0688 266.998 33.6798 280.153 61.5721 280.153C89.4638 280.153 112.075 266.998 112.075 250.769C112.075 234.542 89.4638 221.387 61.5721 221.387C33.6798 221.387 11.0688 234.542 11.0688 250.769Z" fill="#E5752C"/>
<path d="M61.5721 222.385C34.2749 222.385 12.0684 235.118 12.0684 250.769C12.0684 266.422 34.2749 279.155 61.5721 279.155C88.8684 279.155 111.076 266.422 111.076 250.769C111.076 235.118 88.8684 222.385 61.5721 222.385ZM61.5721 281.151C33.1734 281.151 10.0703 267.522 10.0703 250.769C10.0703 234.018 33.1734 220.389 61.5721 220.389C89.97 220.389 113.074 234.018 113.074 250.769C113.074 267.522 89.97 281.151 61.5721 281.151Z" fill="#09203F"/>
<path d="M125.373 191.88C124.95 191.88 124.557 191.609 124.421 191.184C119.837 176.763 110.299 164.225 97.5628 155.881C97.1006 155.578 96.9714 154.96 97.2751 154.499C97.5775 154.037 98.1995 153.91 98.6578 154.212C111.777 162.806 121.604 175.724 126.326 190.58C126.494 191.106 126.202 191.666 125.676 191.834C125.576 191.864 125.473 191.88 125.373 191.88Z" fill="#09203F"/>
<path d="M94.7881 154.003C94.6189 154.003 94.4471 153.96 94.2912 153.87C91.8016 152.438 89.1962 151.159 86.548 150.066C86.0379 149.856 85.7955 149.273 86.0059 148.763C86.2164 148.253 86.8011 148.013 87.31 148.22C90.038 149.346 92.7221 150.665 95.2876 152.139C95.7658 152.415 95.9296 153.025 95.6552 153.502C95.4701 153.823 95.1344 154.003 94.7881 154.003Z" fill="#09203F"/>
<path d="M1 211.132C1 244.472 28.052 271.5 61.4215 271.5C94.7919 271.5 121.843 244.472 121.843 211.132C121.843 177.792 94.7919 150.765 61.4215 150.765C28.052 150.765 1 177.792 1 211.132Z" fill="white"/>
<path d="M61.4205 151.763C28.6551 151.763 1.99807 178.396 1.99807 211.132C1.99807 243.869 28.6551 270.502 61.4205 270.502C94.1875 270.502 120.843 243.869 120.843 211.132C120.843 178.396 94.1875 151.763 61.4205 151.763ZM61.4205 272.498C27.5536 272.498 0 244.969 0 211.132C0 177.295 27.5536 149.767 61.4205 149.767C95.2891 149.767 122.841 177.295 122.841 211.132C122.841 244.969 95.2891 272.498 61.4205 272.498Z" fill="#09203F"/>
<path d="M23.8072 250.474C23.5548 250.474 23.3024 250.378 23.1079 250.188C12.5015 239.8 6.66077 225.929 6.66077 211.133C6.66077 205.888 7.40591 200.7 8.87476 195.711C9.03087 195.181 9.58966 194.883 10.1157 195.034C10.6444 195.19 10.9477 195.745 10.7921 196.273C9.3764 201.079 8.65883 206.079 8.65883 211.133C8.65883 225.389 14.2873 238.753 24.5066 248.762C24.9005 249.148 24.9066 249.781 24.5206 250.173C24.3249 250.373 24.0658 250.474 23.8072 250.474Z" fill="#09203F"/>
<path d="M40.5077 261.614C40.3776 261.614 40.2455 261.589 40.118 261.535C36.3211 259.927 32.6976 257.88 29.3476 255.455C28.9018 255.132 28.8024 254.506 29.1254 254.06C29.4496 253.613 30.0725 253.516 30.5215 253.838C33.748 256.175 37.2394 258.148 40.8984 259.697C41.4069 259.912 41.6436 260.498 41.4282 261.006C41.2669 261.386 40.8963 261.614 40.5077 261.614Z" fill="#09203F"/>
<path d="M118.291 224.118C105.638 240.423 87.8507 250.341 68.2364 252.026C62.9548 252.48 58.1608 247.318 58.1608 241.179V223.097C58.1608 215.024 62.763 208.366 69.4952 206.699C83.6814 203.187 96.5636 195.545 106.963 184.47C109.425 181.85 113.647 182.92 115.287 186.643C118.645 194.273 120.888 202.57 121.75 211.211C122.229 216.026 120.953 220.685 118.291 224.118Z" fill="#E5752C"/>
<path d="M110.244 184.022C109.269 184.022 108.387 184.413 107.692 185.153C97.191 196.335 84.0664 204.12 69.7349 207.668C63.4104 209.235 59.1598 215.434 59.1598 223.097V241.179C59.1598 243.737 60.1029 246.286 61.7453 248.169C63.4876 250.166 65.8347 251.234 68.1498 251.032C87.4897 249.369 105.015 239.594 117.501 223.505C120.018 220.261 121.204 215.817 120.755 211.309C119.92 202.933 117.772 194.77 114.372 187.045C113.563 185.209 111.943 184.022 110.244 184.022ZM67.5877 253.053C64.8969 253.053 62.2195 251.75 60.2388 249.48C58.254 247.205 57.1617 244.257 57.1617 241.179V223.097C57.1617 214.501 62.0224 207.522 69.2554 205.73C83.2112 202.276 95.9989 194.687 106.236 183.787C107.301 182.651 108.725 182.025 110.244 182.025C112.735 182.025 115.074 183.681 116.201 186.243C119.687 194.159 121.887 202.526 122.744 211.112C123.243 216.122 121.907 221.085 119.081 224.728C106.249 241.263 88.2237 251.31 68.323 253.021C68.0765 253.042 67.8301 253.053 67.5877 253.053Z" fill="#09203F"/>
<path d="M65.2394 248.476C84.8538 246.791 102.641 236.874 115.294 220.567C117.956 217.136 119.233 212.477 118.753 207.662C117.91 199.207 115.739 191.087 112.499 183.596C113.645 184.184 114.657 185.214 115.287 186.645C118.645 194.273 120.888 202.57 121.75 211.211C122.23 216.027 120.954 220.685 118.291 224.118C105.638 240.423 87.8509 250.341 68.2365 252.027C64.6826 252.332 61.3565 250.089 59.5569 246.723C61.21 247.972 63.1854 248.652 65.2394 248.476Z" fill="#09203F"/>
<path d="M8.06299 289.653C8.06299 297.412 14.358 303.702 22.1234 303.702C29.8888 303.702 36.1842 297.412 36.1842 289.653C36.1842 281.895 29.8888 275.606 22.1234 275.606C14.358 275.606 8.06299 281.895 8.06299 289.653Z" fill="#E5752C"/>
<path d="M22.1239 276.604C14.9214 276.604 9.06203 282.458 9.06203 289.653C9.06203 296.849 14.9214 302.703 22.1239 302.703C29.3258 302.703 35.1848 296.849 35.1848 289.653C35.1848 282.458 29.3258 276.604 22.1239 276.604ZM22.1239 304.7C13.82 304.7 7.06396 297.95 7.06396 289.653C7.06396 281.358 13.82 274.608 22.1239 274.608C30.4279 274.608 37.1828 281.358 37.1828 289.653C37.1828 297.95 30.4279 304.7 22.1239 304.7Z" fill="#09203F"/>
<path d="M9.5579 295.883C11.3426 306.447 26.1929 329.66 32.4904 328.262C38.7879 326.864 33.1695 298.272 31.3519 290.101C29.7518 282.908 23.7644 279.327 17.4669 280.724C11.1694 282.123 8.32989 288.618 9.5579 295.883Z" fill="white"/>
<path d="M20.1419 281.424C19.3318 281.424 18.5044 281.517 17.6834 281.698C12.2012 282.916 9.33158 288.55 10.5428 295.716C12.1969 305.51 26.1143 327.324 31.9212 327.326C32.0455 327.326 32.1642 327.312 32.2739 327.287C36.1899 326.418 34.2194 307.592 30.3768 290.317C29.1748 284.915 25.1573 281.424 20.1419 281.424ZM31.9212 329.322C24.495 329.321 10.291 306.221 8.57231 296.049C7.19404 287.892 10.7625 281.191 17.2505 279.751C18.2126 279.537 19.1855 279.428 20.1419 279.428C26.1309 279.428 30.9143 283.532 32.3265 289.885C34.8408 301.184 39.9097 327.637 32.7074 329.237C32.4555 329.293 32.1907 329.322 31.9212 329.322Z" fill="#09203F"/>
<path d="M26.2523 318.032C25.9531 318.032 25.657 317.899 25.4599 317.644C23.1023 314.585 20.7082 310.924 18.7184 307.336C18.451 306.854 18.6258 306.247 19.1087 305.98C19.591 305.714 20.1983 305.887 20.4667 306.37C22.4087 309.873 24.7444 313.445 27.0431 316.424C27.3799 316.861 27.2982 317.489 26.8605 317.825C26.6795 317.964 26.4646 318.032 26.2523 318.032Z" fill="#09203F"/>
<path d="M61.6442 171.943C59.9272 171.943 58.2542 171.772 56.6717 171.436C56.1309 171.321 55.7872 170.792 55.9018 170.251C56.0163 169.712 56.5478 169.368 57.0873 169.483C58.5326 169.791 60.0658 169.946 61.6442 169.946C62.1957 169.946 62.6433 170.394 62.6433 170.945C62.6433 171.496 62.1957 171.943 61.6442 171.943Z" fill="#09203F"/>
<path d="M53.7743 170.524C53.6505 170.524 53.5239 170.501 53.4027 170.452C49.8608 169.036 47.266 166.707 46.0978 163.892C45.886 163.384 46.1284 162.8 46.6372 162.588C47.1474 162.376 47.7322 162.617 47.944 163.127C48.903 165.44 51.1062 167.383 54.146 168.6C54.6575 168.803 54.9066 169.385 54.7014 169.897C54.5456 170.287 54.17 170.524 53.7743 170.524Z" fill="#09203F"/>
<path d="M50.3978 160.41C50.3978 164.023 55.4329 166.952 61.6443 166.952C67.8556 166.952 72.8907 164.023 72.8907 160.41C72.8907 156.795 67.8556 153.866 61.6443 153.866C55.4329 153.866 50.3978 156.795 50.3978 160.41Z" fill="#E5752C"/>
<path d="M61.6443 154.864C56.0897 154.864 51.3969 157.403 51.3969 160.408C51.3969 163.415 56.0897 165.954 61.6443 165.954C67.1989 165.954 71.8917 163.415 71.8917 160.408C71.8917 157.403 67.1989 154.864 61.6443 154.864ZM61.6443 167.95C54.7776 167.95 49.3988 164.638 49.3988 160.408C49.3988 156.18 54.7776 152.868 61.6443 152.868C68.511 152.868 73.8898 156.18 73.8898 160.408C73.8898 164.638 68.511 167.95 61.6443 167.95Z" fill="#09203F"/>
<path d="M64.347 136.434H58.9415V160.243C58.9415 161.112 60.1524 161.816 61.6443 161.816C63.1375 161.816 64.347 161.112 64.347 160.243V136.434Z" fill="white"/>
<path d="M59.9418 137.432V160.243C59.9897 160.391 60.5905 160.818 61.6442 160.818C62.6978 160.818 63.2999 160.391 63.3505 160.228L63.3478 137.432H59.9418ZM61.6442 162.814C59.5342 162.814 57.9437 161.708 57.9437 160.243V135.436H65.3459V160.243C65.3459 161.708 63.7541 162.814 61.6442 162.814Z" fill="#09203F"/>
<path d="M82.9983 138.118C82.4469 138.118 81.9993 137.67 81.9993 137.119C81.9993 125.907 72.8681 116.783 61.6443 116.783C61.0928 116.783 60.6453 116.337 60.6453 115.784C60.6453 115.233 61.0928 114.786 61.6443 114.786C73.9697 114.786 83.9974 124.805 83.9974 137.119C83.9974 137.67 83.5498 138.118 82.9983 138.118Z" fill="#09203F"/>
<path d="M76.3381 138.118C75.7866 138.118 75.3391 137.67 75.3391 137.119C75.3391 129.575 69.1957 123.437 61.6443 123.437C61.0928 123.437 60.6453 122.991 60.6453 122.439C60.6453 121.888 61.0928 121.441 61.6443 121.441C70.2973 121.441 77.3371 128.474 77.3371 137.119C77.3371 137.67 76.8896 138.118 76.3381 138.118Z" fill="#09203F"/>
<path d="M53.6119 137.119C53.6119 141.553 57.2085 145.146 61.6442 145.146C66.0812 145.146 69.6778 141.553 69.6778 137.119C69.6778 132.686 66.0812 129.093 61.6442 129.093C57.2085 129.093 53.6119 132.686 53.6119 137.119Z" fill="white"/>
<path d="M61.6442 130.091C57.7666 130.091 54.611 133.245 54.611 137.119C54.611 140.995 57.7666 144.148 61.6442 144.148C65.5231 144.148 68.6787 140.995 68.6787 137.119C68.6787 133.245 65.5231 130.091 61.6442 130.091ZM61.6442 146.144C56.665 146.144 52.6129 142.096 52.6129 137.119C52.6129 132.143 56.665 128.095 61.6442 128.095C66.6247 128.095 70.6768 132.143 70.6768 137.119C70.6768 142.096 66.6247 146.144 61.6442 146.144Z" fill="#09203F"/>
<path d="M64.351 138.118C63.7996 138.118 63.352 137.67 63.352 137.119C63.352 136.18 62.5861 135.416 61.6443 135.416C61.0928 135.416 60.6453 134.969 60.6453 134.418C60.6453 133.867 61.0928 133.42 61.6443 133.42C63.6877 133.42 65.3501 135.079 65.3501 137.119C65.3501 137.67 64.9025 138.118 64.351 138.118Z" fill="#09203F"/>
<path d="M104.728 220.399C105.203 220.125 105.8 220.516 105.719 221.059C105.126 225.037 101.952 229.643 98.1261 231.85C94.2379 234.092 91.0237 233.081 90.5055 229.658C90.4176 229.072 90.7066 228.487 91.2195 228.19L104.728 220.399Z" fill="#09203F"/>
<path d="M98.1263 230.282C100.242 229.062 102.106 226.975 103.256 224.775C101.893 224.346 100.099 225.302 98.1263 226.44C96.1522 227.579 94.3579 228.693 92.9952 230.693C94.1448 231.568 96.011 231.502 98.1263 230.282Z" fill="white"/>
<path d="M80.819 221.625C80.819 224.223 78.9822 227.387 76.7164 228.694C74.4505 230.001 72.6136 228.955 72.6136 226.357C72.6136 223.76 74.4505 220.595 76.7164 219.288C78.9822 217.981 80.819 219.027 80.819 221.625Z" fill="#09203F"/>
<path d="M113.98 202.495C113.98 205.093 112.143 208.259 109.877 209.566C107.612 210.873 105.776 209.827 105.776 207.229C105.776 204.631 107.612 201.465 109.877 200.158C112.143 198.851 113.98 199.897 113.98 202.495Z" fill="#09203F"/>
<path d="M79.7093 221.234C79.7093 222.214 79.0153 223.411 78.1588 223.905C77.3036 224.398 76.6083 224.003 76.6083 223.021C76.6083 222.04 77.3036 220.844 78.1588 220.35C79.0153 219.856 79.7093 220.251 79.7093 221.234Z" fill="white"/>
<path d="M112.891 202.379C112.891 203.362 112.197 204.557 111.34 205.05C110.484 205.545 109.79 205.149 109.79 204.168C109.79 203.186 110.484 201.991 111.34 201.497C112.197 201.003 112.891 201.399 112.891 202.379Z" fill="white"/>
<path d="M85.9845 310.13L88.3156 312.459L90.6467 310.13L88.3156 307.801L85.9845 310.13ZM79.3243 310.13L81.6554 312.459L83.9864 310.13L81.6554 307.801L79.3243 310.13ZM92.6447 303.475L94.9758 305.804L97.3069 303.475L94.9758 301.146L92.6447 303.475ZM85.9845 303.475L88.3156 305.804L90.6467 303.475L88.3156 301.146L85.9845 303.475ZM79.3243 303.475L81.6554 305.804L83.9864 303.475L81.6554 301.146L79.3243 303.475ZM92.6447 296.821L94.9758 299.15L97.3069 296.821L94.9758 294.492L92.6447 296.821ZM85.9845 296.821L88.3156 299.15L90.6467 296.821L88.3156 294.492L85.9845 296.821ZM99.305 290.167L101.636 292.496L103.967 290.167L101.636 287.838L99.305 290.167ZM92.6447 290.167L94.9758 292.496L97.3069 290.167L94.9758 287.838L92.6447 290.167ZM85.9845 290.167L88.3156 292.496L90.6467 290.167L88.3156 287.838L85.9845 290.167ZM99.305 283.512L101.636 285.841L103.967 283.512L101.636 281.183L99.305 283.512ZM92.6447 283.512L94.9758 285.841L97.3069 283.512L94.9758 281.183L92.6447 283.512ZM99.305 276.858L101.636 279.187L103.967 276.858L101.636 274.529L99.305 276.858ZM72.6641 330.092L74.9951 332.421L77.3262 330.092L74.9951 327.763L72.6641 330.092ZM79.3243 323.438L81.6554 325.767L83.9864 323.438L81.6554 321.109L79.3243 323.438ZM72.6641 323.438L74.9951 325.767L77.3262 323.438L74.9951 321.109L72.6641 323.438ZM85.9845 316.784L88.3156 319.113L90.6467 316.784L88.3156 314.455L85.9845 316.784ZM79.3243 316.784L81.6554 319.113L83.9864 316.784L81.6554 314.455L79.3243 316.784Z" fill="#E5752C"/>
</svg>
