<svg width="402" height="255" viewBox="0 0 402 255" fill="none" xmlns="http://www.w3.org/2000/svg">
<path d="M27.8819 86.1607L152.586 14.3973M27.8819 86.1607L16.1174 77.9256M27.8819 86.1607C20.8232 90.8665 16.1174 94.3958 16.1174 107.337M152.586 14.3973L139.645 6.16215M152.586 14.3973C164.35 7.33755 176.114 9.69045 176.114 17.9266M176.114 17.9266L177.291 59.1024C177.291 70.8658 174.938 77.9256 164.35 86.1607L86.7043 130.844L53.7638 181.453M176.114 17.9266C176.114 9.69045 157.164 -5.06158 139.645 6.16215M36.117 160.277L53.7638 149.8V181.453M36.117 160.277V175.571L53.7638 181.453M36.117 160.277C18.4703 170.865 1.99941 154.395 2 142.63M36.117 160.277C27.2186 165.616 16.1174 160.277 16.1174 149.8M2 142.63V100.167M2 142.63L16.1174 149.8M2 100.167C2 89.69 6.7058 83.8078 16.1174 77.9256M2 100.167L16.1174 107.337M16.1174 77.9256L139.645 6.16215M16.1174 107.337V149.8" stroke="#E5752C" stroke-width="2.57718"/>
<path d="M160.802 45.9751L91.3919 85.9189M47.8633 110.968L85.1625 89.5037M160.802 53.966L47.8633 118.959M160.802 62.4897L117.274 87.5392M47.8633 127.483L72.5687 113.266M161.979 70.4363L49.0397 135.43M79.6274 109.204L110.215 91.6013" stroke="#E5752C" stroke-width="2.57718"/>
<path d="M374.142 157.268L249.438 85.5051M374.142 157.268L385.907 149.033M374.142 157.268C381.201 161.974 385.907 165.504 385.907 178.445M249.438 85.5051L262.379 77.2699M249.438 85.5051C237.674 78.4453 225.909 80.7982 225.909 89.0344M225.909 89.0344L224.733 130.21C224.733 141.974 227.086 149.033 237.674 157.268L315.32 201.951L348.26 252.561M225.909 89.0344C225.909 80.7982 244.86 66.0462 262.379 77.2699M365.907 231.385L348.26 220.908V252.561M365.907 231.385V246.679L348.26 252.561M365.907 231.385C383.554 241.973 400.025 225.503 400.024 213.738M365.907 231.385C374.805 236.724 385.907 231.385 385.907 220.908M400.024 213.738V171.275M400.024 213.738L385.907 220.908M400.024 171.275C400.024 160.798 395.318 154.916 385.907 149.033M400.024 171.275L385.907 178.445M385.907 149.033L262.379 77.2699M385.907 178.445V220.908" stroke="#E5752C" stroke-width="2.57718"/>
<path d="M249.439 112.518L318.849 152.462M362.378 177.511L325.079 156.047M249.439 120.509L362.378 185.502M249.439 129.033L292.967 154.082M362.378 194.026L337.672 179.809M248.262 136.979L361.201 201.972M330.614 175.746L300.026 158.144" stroke="#E5752C" stroke-width="2.57718"/>
<path d="M257.599 35.1409V6.01708L248.469 2V31.1239L257.599 35.1409Z" stroke="#E5752C" stroke-width="2.57718"/>
<path d="M257.599 52.2136V42.1708L248.469 38.1538V48.1965L257.599 52.2136Z" stroke="#E5752C" stroke-width="2.57718"/>
<path d="M151.652 164.837V157.513L143.965 163.681V171.004L151.652 164.837Z" stroke="#E5752C" stroke-width="2.57718"/>
<path d="M139.861 145.459V138.135C139.861 125.799 161.771 113.464 161.771 121.559V128.883L154.083 135.051V131.389C154.083 127.727 147.548 131.968 147.548 135.63V139.292L147.547 142.953C147.547 145.101 149.794 144.531 151.652 142.953V151.584L147.808 154.668L143.965 157.751V155.243C141.537 155.699 139.859 155.023 139.859 152.783L139.861 145.459Z" stroke="#E5752C" stroke-width="2.57718"/>
<path fill-rule="evenodd" clip-rule="evenodd" d="M258.58 209.109L256.278 209.792C257.06 209.636 257.829 209.409 258.58 209.109ZM223.862 150.517L226.163 149.834C225.381 149.99 224.613 150.217 223.862 150.517Z" fill="#F7F7F7"/>
<path d="M267.708 177.486C271.319 192.05 267.763 205.443 258.58 209.109L256.278 209.792L248.454 212.115C249.762 211.592 250.956 210.872 252.032 209.98C259.679 203.634 261.325 188.557 255.372 173.645C249.909 159.963 239.713 150.586 230.41 149.646C228.966 149.5 227.543 149.558 226.163 149.834L233.988 147.512C244.6 143.275 258.707 153.63 265.498 170.64C266.412 172.929 267.146 175.221 267.708 177.486Z" fill="#F7F7F7"/>
<path fill-rule="evenodd" clip-rule="evenodd" d="M248.454 212.115C237.842 216.351 223.735 205.996 216.944 188.986C210.153 171.976 213.251 154.753 223.862 150.517L226.163 149.834C227.543 149.558 228.966 149.5 230.41 149.646C239.713 150.586 249.909 159.963 255.372 173.645C261.325 188.557 259.679 203.634 252.032 209.98C250.956 210.872 249.762 211.592 248.454 212.115ZM226.705 188.241L246.424 199.893C249.252 192.985 247.447 188.744 241.942 182.864C246.424 181.071 245.527 171.212 239.253 167.627C229.99 163.488 229.394 174.797 233.988 179.279C226.705 179.279 227.602 181.967 226.705 188.241Z" fill="#F7F7F7"/>
<path d="M246.424 199.893L226.705 188.241C227.602 181.967 226.705 179.279 233.988 179.279C229.394 174.797 229.99 163.488 239.253 167.627C245.527 171.212 246.424 181.071 241.942 182.864C247.447 188.744 249.252 192.985 246.424 199.893Z" fill="#F7F7F7"/>
<path d="M248.454 212.115C237.842 216.351 223.735 205.996 216.944 188.986C210.153 171.976 213.251 154.753 223.862 150.517M248.454 212.115C249.762 211.592 250.956 210.872 252.032 209.98C259.679 203.634 261.325 188.557 255.372 173.645C249.909 159.963 239.713 150.586 230.41 149.646C228.966 149.5 227.543 149.558 226.163 149.834M248.454 212.115L256.278 209.792M223.862 150.517L226.163 149.834M223.862 150.517C224.613 150.217 225.381 149.99 226.163 149.834M258.58 209.109C269.191 204.873 272.288 187.65 265.498 170.64M258.58 209.109L256.278 209.792M258.58 209.109C257.829 209.409 257.06 209.636 256.278 209.792M258.58 209.109C267.763 205.443 271.319 192.05 267.708 177.486M265.498 170.64C258.707 153.63 244.6 143.275 233.988 147.512L226.163 149.834M265.498 170.64C266.412 172.929 267.146 175.221 267.708 177.486M267.708 177.486L257.722 181.071M269.065 190.034L259.079 193.619M246.424 199.893L226.705 188.241C227.602 181.967 226.705 179.279 233.988 179.279C229.394 174.797 229.99 163.488 239.253 167.627C245.527 171.212 246.424 181.071 241.942 182.864C247.447 188.744 249.252 192.985 246.424 199.893Z" stroke="#E5752C" stroke-width="2.57718"/>
<path fill-rule="evenodd" clip-rule="evenodd" d="M380.918 110.509L378.617 111.191C379.399 111.035 380.167 110.808 380.918 110.509ZM346.201 51.9157L348.502 51.2327C347.72 51.3892 346.951 51.6159 346.201 51.9157Z" fill="#F7F7F7"/>
<path d="M390.046 78.885C393.657 93.4488 390.102 106.842 380.918 110.509L378.617 111.191L370.792 113.514C372.1 112.991 373.295 112.271 374.37 111.379C382.017 105.033 383.664 89.9564 377.71 75.0439C372.248 61.3617 362.052 51.9853 352.749 51.0452C351.304 50.8993 349.882 50.9566 348.502 51.2327L356.327 48.9106C366.938 44.6743 381.045 55.0291 387.836 72.0389C388.75 74.3278 389.485 76.6205 390.046 78.885Z" fill="#F7F7F7"/>
<path fill-rule="evenodd" clip-rule="evenodd" d="M370.792 113.514C360.181 117.75 346.073 107.395 339.282 90.3853C332.492 73.3755 335.589 56.1521 346.201 51.9157L348.502 51.2327C349.882 50.9566 351.304 50.8993 352.749 51.0452C362.052 51.9853 372.248 61.3617 377.71 75.0439C383.664 89.9564 382.017 105.033 374.37 111.379C373.295 112.271 372.1 112.991 370.792 113.514ZM349.044 89.6404L368.762 101.292C371.591 94.3839 369.786 90.1431 364.281 84.2627C368.762 82.4701 367.866 72.611 361.592 69.0258C352.329 64.8867 351.733 76.1961 356.327 80.6776C349.044 80.6776 349.94 83.3664 349.044 89.6404Z" fill="#F7F7F7"/>
<path d="M368.762 101.292L349.044 89.6404C349.94 83.3664 349.044 80.6776 356.327 80.6776C351.733 76.1961 352.329 64.8867 361.592 69.0258C367.866 72.611 368.762 82.4701 364.281 84.2627C369.786 90.1431 371.591 94.3839 368.762 101.292Z" fill="#F7F7F7"/>
<path d="M370.792 113.514C360.181 117.75 346.073 107.395 339.282 90.3853C332.492 73.3755 335.589 56.1521 346.201 51.9157M370.792 113.514C372.1 112.991 373.295 112.271 374.37 111.379C382.017 105.033 383.664 89.9564 377.71 75.0439C372.248 61.3617 362.052 51.9853 352.749 51.0452C351.304 50.8993 349.882 50.9566 348.502 51.2327M370.792 113.514L378.617 111.191M346.201 51.9157L348.502 51.2327M346.201 51.9157C346.951 51.6159 347.72 51.3892 348.502 51.2327M380.918 110.509C391.53 106.272 394.627 89.0487 387.836 72.0389M380.918 110.509L378.617 111.191M380.918 110.509C380.167 110.808 379.399 111.035 378.617 111.191M380.918 110.509C390.102 106.842 393.657 93.4488 390.046 78.885M387.836 72.0389C381.045 55.0291 366.938 44.6743 356.327 48.9106L348.502 51.2327M387.836 72.0389C388.75 74.3278 389.485 76.6205 390.046 78.885M390.046 78.885L380.06 82.4701M391.403 91.433L381.418 95.0182M368.762 101.292L349.044 89.6404C349.94 83.3664 349.044 80.6776 356.327 80.6776C351.733 76.1961 352.329 64.8867 361.592 69.0258C367.866 72.611 368.762 82.4701 364.281 84.2627C369.786 90.1431 371.591 94.3839 368.762 101.292Z" stroke="#E5752C" stroke-width="2.57718"/>
</svg>
