<svg width="330" height="210" viewBox="0 0 330 210" fill="none" xmlns="http://www.w3.org/2000/svg">
<path d="M23.2013 71.8554L125.353 13.07M23.2013 71.8554L13.5643 65.1095M23.2013 71.8554C17.4191 75.7102 13.5643 78.6012 13.5643 89.2019M125.353 13.07L114.752 6.32415M125.353 13.07C134.99 7.28699 144.627 9.21437 144.627 15.9611M144.627 15.9611L145.591 49.6904C145.591 59.3265 143.663 65.1095 134.99 71.8554L71.386 108.458L44.4026 149.915M144.627 15.9611C144.627 9.21437 129.103 -2.86983 114.752 6.32415M29.9471 132.568L44.4026 123.986V149.915M29.9471 132.568V145.096L44.4026 149.915M29.9471 132.568C15.4917 141.241 1.99951 127.75 2 118.113M29.9471 132.568C22.658 136.942 13.5643 132.568 13.5643 123.986M2 118.113V83.3288M2 118.113L13.5643 123.986M2 83.3288C2 74.7465 5.85478 69.928 13.5643 65.1095M2 83.3288L13.5643 89.2019M13.5643 65.1095L114.752 6.32415M13.5643 89.2019V123.986" stroke="#09203F" stroke-width="2.57718"/>
<path d="M132.083 38.9371L75.2254 71.6573M39.5686 92.1767L70.1225 74.5938M132.083 45.4829L39.5686 98.7225M132.083 52.4652L96.4266 72.9846M39.5686 105.705L59.8062 94.0586M133.047 58.9747L40.5323 112.214M65.5884 90.7311L90.6445 76.3121" stroke="#09203F" stroke-width="2.57718"/>
<path d="M306.842 130.104L204.69 71.3183M306.842 130.104L316.479 123.358M306.842 130.104C312.624 133.958 316.479 136.85 316.479 147.45M204.69 71.3183L215.291 64.5724M204.69 71.3183C195.053 65.5353 185.416 67.4627 185.416 74.2094M185.416 74.2094L184.453 107.939C184.453 117.575 186.38 123.358 195.053 130.104L258.657 166.706L285.641 208.163M185.416 74.2094C185.416 67.4627 200.94 55.3785 215.291 64.5724M300.096 190.816L285.641 182.234V208.163M300.096 190.816V203.344L285.641 208.163M300.096 190.816C314.552 199.49 328.044 185.998 328.043 176.361M300.096 190.816C307.385 195.19 316.479 190.816 316.479 182.234M328.043 176.361V141.577M328.043 176.361L316.479 182.234M328.043 141.577C328.043 132.995 324.188 128.176 316.479 123.358M328.043 141.577L316.479 147.45M316.479 123.358L215.291 64.5724M316.479 147.45V182.234" stroke="#09203F" stroke-width="2.57718"/>
<path d="M204.691 93.446L261.549 126.166M297.205 146.686L266.651 129.103M204.691 99.9918L297.205 153.231M204.691 106.974L240.347 127.493M297.205 160.214L276.968 148.567M203.727 113.484L296.242 166.723M271.186 145.24L246.13 130.821" stroke="#09203F" stroke-width="2.57718"/>
<path d="M211.376 30.0623V6.20529L203.897 2.91467V26.7716L211.376 30.0623Z" stroke="#09203F" stroke-width="2.57718"/>
<path d="M211.376 44.0474V35.8208L203.897 32.5302V40.7568L211.376 44.0474Z" stroke="#09203F" stroke-width="2.57718"/>
<path d="M124.589 136.303V130.304L118.291 135.356V141.355L124.589 136.303Z" stroke="#09203F" stroke-width="2.57718"/>
<path d="M114.929 120.43V114.431C114.929 104.325 132.877 94.2207 132.877 100.852V106.852L126.579 111.904V108.904C126.579 105.905 121.227 109.378 121.227 112.378V115.378L121.226 118.377C121.226 120.136 123.066 119.669 124.589 118.377V125.447L121.44 127.973L118.291 130.499V128.444C116.303 128.818 114.928 128.265 114.928 126.429L114.929 120.43Z" stroke="#09203F" stroke-width="2.57718"/>
<path fill-rule="evenodd" clip-rule="evenodd" d="M212.178 172.569L210.293 173.129C210.934 173.001 211.563 172.815 212.178 172.569ZM183.739 124.573L185.624 124.013C184.984 124.142 184.354 124.327 183.739 124.573Z" fill="#F7F7F7"/>
<path d="M219.655 146.665C222.613 158.595 219.701 169.566 212.178 172.569L210.293 173.129L203.883 175.031C204.955 174.603 205.933 174.014 206.814 173.283C213.078 168.084 214.427 155.734 209.55 143.518C205.076 132.311 196.724 124.63 189.103 123.86C187.92 123.74 186.755 123.787 185.624 124.013L192.034 122.111C200.726 118.641 212.282 127.123 217.845 141.057C218.594 142.932 219.195 144.81 219.655 146.665Z" fill="#F7F7F7"/>
<path fill-rule="evenodd" clip-rule="evenodd" d="M203.883 175.031C195.191 178.501 183.635 170.019 178.072 156.085C172.509 142.152 175.047 128.043 183.739 124.573L185.624 124.013C186.755 123.787 187.92 123.74 189.103 123.86C196.724 124.63 205.076 132.311 209.55 143.518C214.427 155.734 213.078 168.084 206.814 173.283C205.933 174.014 204.955 174.603 203.883 175.031ZM186.068 155.475L202.22 165.02C204.537 159.361 203.059 155.887 198.549 151.07C202.22 149.602 201.486 141.526 196.347 138.589C188.759 135.198 188.271 144.462 192.034 148.133C186.068 148.133 186.802 150.336 186.068 155.475Z" fill="#F7F7F7"/>
<path d="M202.22 165.02L186.068 155.475C186.802 150.336 186.068 148.133 192.034 148.133C188.271 144.462 188.759 135.198 196.347 138.589C201.486 141.526 202.22 149.602 198.549 151.07C203.059 155.887 204.537 159.361 202.22 165.02Z" fill="#F7F7F7"/>
<path d="M203.883 175.031C195.191 178.501 183.635 170.019 178.072 156.085C172.509 142.152 175.047 128.043 183.739 124.573M203.883 175.031C204.955 174.603 205.933 174.014 206.814 173.283C213.078 168.084 214.427 155.734 209.55 143.518C205.076 132.311 196.724 124.63 189.103 123.86C187.92 123.74 186.755 123.787 185.624 124.013M203.883 175.031L210.293 173.129M183.739 124.573L185.624 124.013M183.739 124.573C184.354 124.327 184.984 124.142 185.624 124.013M212.178 172.569C220.871 169.099 223.408 154.991 217.845 141.057M212.178 172.569L210.293 173.129M212.178 172.569C211.563 172.815 210.934 173.001 210.293 173.129M212.178 172.569C219.701 169.566 222.613 158.595 219.655 146.665M217.845 141.057C212.282 127.123 200.726 118.641 192.034 122.111L185.624 124.013M217.845 141.057C218.594 142.932 219.195 144.81 219.655 146.665M219.655 146.665L211.476 149.602M220.767 156.944L212.587 159.88M202.22 165.02L186.068 155.475C186.802 150.336 186.068 148.133 192.034 148.133C188.271 144.462 188.759 135.198 196.347 138.589C201.486 141.526 202.22 149.602 198.549 151.07C203.059 155.887 204.537 159.361 202.22 165.02Z" stroke="#09203F" stroke-width="2.57718"/>
<path fill-rule="evenodd" clip-rule="evenodd" d="M312.393 91.7999L310.508 92.3594C311.148 92.2312 311.778 92.0455 312.393 91.7999ZM283.954 43.8033L285.839 43.2439C285.198 43.372 284.569 43.5577 283.954 43.8033Z" fill="#F7F7F7"/>
<path d="M319.87 65.8954C322.828 77.8254 319.915 88.7966 312.393 91.7999L310.508 92.3594L304.098 94.2615C305.17 93.8337 306.148 93.244 307.029 92.513C313.293 87.3148 314.642 74.9646 309.765 62.7489C305.29 51.541 296.938 43.8603 289.317 43.0903C288.135 42.9707 286.969 43.0177 285.839 43.2439L292.248 41.3417C300.941 37.8715 312.497 46.3537 318.06 60.2874C318.808 62.1623 319.41 64.0404 319.87 65.8954Z" fill="#F7F7F7"/>
<path fill-rule="evenodd" clip-rule="evenodd" d="M304.098 94.2615C295.405 97.7318 283.849 89.2495 278.287 75.3159C272.724 61.3822 275.261 47.2736 283.954 43.8033L285.839 43.2439C286.969 43.0177 288.135 42.9707 289.317 43.0903C296.938 43.8603 305.29 51.541 309.765 62.7489C314.642 74.9646 313.293 87.3148 307.029 92.513C306.148 93.244 305.17 93.8337 304.098 94.2615ZM286.283 74.7057L302.435 84.2503C304.752 78.5913 303.274 75.1175 298.764 70.3006C302.435 68.8322 301.701 60.756 296.561 57.8192C288.973 54.4286 288.485 63.6928 292.248 67.3638C286.283 67.3638 287.017 69.5664 286.283 74.7057Z" fill="#F7F7F7"/>
<path d="M302.435 84.2503L286.283 74.7057C287.017 69.5664 286.283 67.3638 292.248 67.3638C288.485 63.6928 288.973 54.4286 296.561 57.8192C301.701 60.756 302.435 68.8322 298.764 70.3006C303.274 75.1175 304.752 78.5913 302.435 84.2503Z" fill="#F7F7F7"/>
<path d="M304.098 94.2615C295.405 97.7318 283.849 89.2495 278.287 75.3159C272.724 61.3822 275.261 47.2736 283.954 43.8033M304.098 94.2615C305.17 93.8337 306.148 93.244 307.029 92.513C313.293 87.3148 314.642 74.9646 309.765 62.7489C305.29 51.541 296.938 43.8603 289.317 43.0903C288.135 42.9707 286.969 43.0177 285.839 43.2439M304.098 94.2615L310.508 92.3594M283.954 43.8033L285.839 43.2439M283.954 43.8033C284.569 43.5577 285.198 43.372 285.839 43.2439M312.393 91.7999C321.085 88.3297 323.622 74.221 318.06 60.2874M312.393 91.7999L310.508 92.3594M312.393 91.7999C311.778 92.0455 311.148 92.2312 310.508 92.3594M312.393 91.7999C319.915 88.7966 322.828 77.8254 319.87 65.8954M318.06 60.2874C312.497 46.3537 300.941 37.8715 292.248 41.3417L285.839 43.2439M318.06 60.2874C318.808 62.1623 319.41 64.0404 319.87 65.8954M319.87 65.8954L311.69 68.8322M320.982 76.1741L312.802 79.1109M302.435 84.2503L286.283 74.7057C287.017 69.5664 286.283 67.3638 292.248 67.3638C288.485 63.6928 288.973 54.4286 296.561 57.8192C301.701 60.756 302.435 68.8322 298.764 70.3006C303.274 75.1175 304.752 78.5913 302.435 84.2503Z" stroke="#09203F" stroke-width="2.57718"/>
</svg>
