<svg width="402" height="287" viewBox="0 0 402 287" fill="none" xmlns="http://www.w3.org/2000/svg">
<path d="M313.898 195.495L313.898 170.305L306.002 166.83L306.002 192.02L313.898 195.495Z" stroke="#09203F" stroke-width="2.57718"/>
<path d="M313.898 210.262L313.898 201.575L306.002 198.101L306.002 206.787L313.898 210.262Z" stroke="#09203F" stroke-width="2.57718"/>
<path d="M359.207 102.268L251.347 40.1976M359.207 102.268L369.383 95.1454M359.207 102.268C365.313 106.339 369.383 109.391 369.383 120.584M251.347 40.1976L262.54 33.0747M251.347 40.1976C241.171 34.0914 230.996 36.1265 230.996 43.2503M230.996 43.2503L229.978 195.012C229.978 205.187 232.013 211.293 241.171 218.416L336.821 273.46L352.084 282.522M230.996 43.2503C230.996 36.1265 247.387 23.3669 262.54 33.0747M352.084 282.522C367.348 291.68 381.594 277.434 381.593 267.258M352.084 282.522C359.781 287.14 369.383 282.522 369.383 273.46M381.593 267.258V114.383M381.593 267.258L369.383 273.46M381.593 114.383C381.593 105.321 377.523 100.233 369.383 95.1454M381.593 114.383L369.383 120.584M369.383 95.1454L262.54 33.0747M369.383 120.584V273.46" stroke="#09203F" stroke-width="2.57718"/>
<path d="M359.852 174.221L306.002 143.601M359.852 174.221V131.986L306.002 101.365V143.601M359.852 174.221L348.237 146.24L341.902 150.464L330.815 123.539L306.002 143.601" stroke="#09203F" stroke-width="2.57718"/>
<path d="M242.648 98.1974L293.331 127.287V138.321L242.648 109.231V98.1974Z" stroke="#09203F" stroke-width="2.57718"/>
<path d="M267.929 118.298L254.171 110.359L281.686 126.236L267.929 118.298Z" stroke="#09203F" stroke-width="2.57718"/>
<path d="M306.002 225.96L359.852 256.58V268.195L306.002 237.574V225.96Z" stroke="#09203F" stroke-width="2.57718"/>
<path d="M334.45 248.172L320.692 240.233L348.207 256.111L334.45 248.172Z" stroke="#09203F" stroke-width="2.57718"/>
<path fill-rule="evenodd" clip-rule="evenodd" d="M294.763 182.733V179.594L241.177 148.757L241.177 148.758V151.896L294.763 182.733ZM241.177 155.939L294.763 186.74V189.879L241.177 159.077V155.939ZM241.177 163.041L278.827 184.707L277.469 187.065L241.177 166.18V163.042L241.177 163.041ZM294.763 204.476L241.177 173.639V170.499L294.763 201.337V204.476ZM294.763 211.034V207.894L241.177 177.057L241.177 177.058V180.196L294.763 211.034ZM241.177 183.968L294.763 214.806V217.945L241.177 187.108V183.969L241.177 183.968ZM294.763 197.017V193.878L284.932 188.22L283.575 190.579L294.763 197.017ZM241.177 191.341L278.827 213.007L277.469 215.365L241.177 194.48V191.342L241.177 191.341ZM241.177 198.799L294.763 229.637V232.777L241.177 201.939V198.799ZM294.763 225.318V222.178L284.932 216.52L283.575 218.879L294.763 225.318Z" fill="#09203F"/>
<path fill-rule="evenodd" clip-rule="evenodd" d="M241.177 62.2222V65.364L294.763 96.2858V93.1441L241.177 62.2222ZM294.764 102.851L294.763 99.7093L241.177 68.8236V71.9645L294.764 102.851ZM241.177 75.3509L275.604 95.217L274.244 97.5739L241.177 78.4927V75.3509ZM294.763 116.27L241.177 85.3482V82.2065L294.763 113.128V116.27ZM294.763 109.414V106.273L281.2 98.4462L279.84 100.803L294.763 109.414Z" fill="#09203F"/>
<path d="M229.978 43.2913L369.355 123.539" stroke="#09203F" stroke-width="2.57718"/>
<path fill-rule="evenodd" clip-rule="evenodd" d="M385.382 238.076L383.391 238.666C384.068 238.531 384.732 238.335 385.382 238.076ZM355.353 187.397L357.344 186.806C356.667 186.941 356.003 187.137 355.353 187.397Z" fill="#F7F7F7"/>
<path d="M393.277 210.723C396.4 223.32 393.325 234.905 385.382 238.076L383.391 238.666L376.623 240.675C377.755 240.223 378.788 239.601 379.718 238.829C386.332 233.34 387.756 220.3 382.607 207.401C377.882 195.567 369.063 187.457 361.017 186.644C359.768 186.518 358.537 186.567 357.344 186.806L364.111 184.798C373.29 181.133 385.492 190.09 391.365 204.802C392.156 206.782 392.791 208.765 393.277 210.723Z" fill="#F7F7F7"/>
<path fill-rule="evenodd" clip-rule="evenodd" d="M376.623 240.675C367.445 244.339 355.243 235.383 349.369 220.67C343.496 205.958 346.175 191.061 355.353 187.397L357.344 186.806C358.537 186.567 359.768 186.518 361.017 186.644C369.063 187.457 377.882 195.567 382.607 207.401C387.756 220.3 386.332 233.34 379.718 238.829C378.788 239.601 377.755 240.223 376.623 240.675ZM357.812 220.026L374.867 230.104C377.314 224.129 375.753 220.461 370.991 215.375C374.867 213.824 374.092 205.297 368.666 202.196C360.654 198.616 360.138 208.398 364.111 212.274C357.812 212.274 358.588 214.6 357.812 220.026Z" fill="#F7F7F7"/>
<path d="M374.867 230.104L357.812 220.026C358.588 214.6 357.812 212.274 364.111 212.274C360.138 208.398 360.654 198.616 368.666 202.196C374.092 205.297 374.867 213.824 370.991 215.375C375.753 220.461 377.314 224.129 374.867 230.104Z" fill="#F7F7F7"/>
<path d="M376.623 240.675C367.445 244.339 355.243 235.383 349.369 220.67C343.496 205.958 346.175 191.061 355.353 187.397M376.623 240.675C377.755 240.223 378.788 239.601 379.718 238.829C386.332 233.34 387.756 220.3 382.607 207.401C377.882 195.567 369.063 187.457 361.017 186.644C359.768 186.518 358.537 186.567 357.344 186.806M376.623 240.675L383.391 238.666M355.353 187.397L357.344 186.806M355.353 187.397C356.003 187.137 356.667 186.941 357.344 186.806M385.382 238.076C394.56 234.412 397.239 219.514 391.365 204.802M385.382 238.076L383.391 238.666M385.382 238.076C384.732 238.335 384.068 238.531 383.391 238.666M385.382 238.076C393.325 234.905 396.4 223.32 393.277 210.723M391.365 204.802C385.492 190.09 373.29 181.133 364.111 184.798L357.344 186.806M391.365 204.802C392.156 206.782 392.791 208.765 393.277 210.723M393.277 210.723L384.64 213.824M394.45 221.577L385.814 224.678M374.867 230.104L357.812 220.026C358.588 214.6 357.812 212.274 364.111 212.274C360.138 208.398 360.654 198.616 368.666 202.196C374.092 205.297 374.867 213.824 370.991 215.375C375.753 220.461 377.314 224.129 374.867 230.104Z" stroke="#09203F" stroke-width="2.57718"/>
<path fill-rule="evenodd" clip-rule="evenodd" d="M255.507 60.6868L253.517 61.2775C254.193 61.1422 254.858 60.9461 255.507 60.6868ZM225.479 10.0078L227.469 9.41711C226.793 9.55244 226.128 9.74853 225.479 10.0078Z" fill="#F7F7F7"/>
<path d="M263.403 33.3345C266.526 45.9313 263.451 57.5157 255.507 60.6868L253.517 61.2775L246.749 63.286C247.881 62.8342 248.914 62.2116 249.844 61.4397C256.458 55.951 257.882 42.9106 252.733 30.0123C248.008 18.178 239.189 10.068 231.143 9.25491C229.894 9.12869 228.663 9.1783 227.469 9.41711L234.237 7.40865C243.416 3.74445 255.618 12.7007 261.491 27.4131C262.281 29.3928 262.917 31.3759 263.403 33.3345Z" fill="#F7F7F7"/>
<path fill-rule="evenodd" clip-rule="evenodd" d="M246.749 63.286C237.571 66.9502 225.369 57.9939 219.495 43.2815C213.622 28.5692 216.301 13.672 225.479 10.0078L227.469 9.41711C228.663 9.1783 229.894 9.12869 231.143 9.25491C239.189 10.068 248.008 18.178 252.733 30.0123C257.882 42.9106 256.458 55.951 249.844 61.4397C248.914 62.2116 247.881 62.8342 246.749 63.286ZM227.938 42.6373L244.993 52.7153C247.44 46.74 245.879 43.0721 241.117 37.9859C244.993 36.4354 244.218 27.9079 238.791 24.807C230.779 21.2269 230.264 31.0088 234.237 34.885C227.938 34.885 228.713 37.2107 227.938 42.6373Z" fill="#F7F7F7"/>
<path d="M244.993 52.7153L227.938 42.6373C228.713 37.2107 227.938 34.885 234.237 34.885C230.264 31.0088 230.779 21.2269 238.791 24.807C244.218 27.9079 244.993 36.4354 241.117 37.9859C245.879 43.0721 247.44 46.74 244.993 52.7153Z" fill="#F7F7F7"/>
<path d="M246.749 63.286C237.571 66.9502 225.369 57.9939 219.495 43.2815C213.622 28.5692 216.301 13.672 225.479 10.0078M246.749 63.286C247.881 62.8342 248.914 62.2116 249.844 61.4397C256.458 55.951 257.882 42.9106 252.733 30.0123C248.008 18.178 239.189 10.068 231.143 9.25491C229.894 9.12869 228.663 9.1783 227.469 9.41711M246.749 63.286L253.517 61.2775M225.479 10.0078L227.469 9.41711M225.479 10.0078C226.128 9.74853 226.793 9.55244 227.469 9.41711M255.507 60.6868C264.686 57.0226 267.365 42.1255 261.491 27.4131M255.507 60.6868L253.517 61.2775M255.507 60.6868C254.858 60.9461 254.193 61.1422 253.517 61.2775M255.507 60.6868C263.451 57.5157 266.526 45.9313 263.403 33.3345M261.491 27.4131C255.618 12.7007 243.416 3.74444 234.237 7.40865L227.469 9.41711M261.491 27.4131C262.281 29.3928 262.917 31.3759 263.403 33.3345M263.403 33.3345L254.766 36.4354M264.576 44.1877L255.939 47.2887M244.993 52.7153L227.938 42.6373C228.713 37.2107 227.938 34.885 234.237 34.885C230.264 31.0088 230.779 21.2269 238.791 24.807C244.218 27.9079 244.993 36.4354 241.117 37.9859C245.879 43.0721 247.44 46.74 244.993 52.7153Z" stroke="#09203F" stroke-width="2.57718"/>
<path d="M24.376 162.38L132.188 100.338M24.376 162.38L14.2051 155.261M24.376 162.38C18.2735 166.449 14.2051 169.5 14.2051 180.688M132.188 100.338L121 93.2181M132.188 100.338C142.359 94.2342 152.53 96.2684 152.53 103.389M152.53 103.389L153.547 138.987C153.547 149.157 151.513 155.261 142.359 162.38L75.2306 201.011L46.7521 244.765M152.53 103.389C152.53 96.2684 136.146 83.5146 121 93.2181M31.4957 226.457L46.7521 217.399V244.765M31.4957 226.457V239.679L46.7521 244.765M31.4957 226.457C16.2393 235.611 1.99949 221.372 2 211.201M31.4957 226.457C23.8026 231.073 14.2051 226.457 14.2051 217.399M2 211.201V174.489M2 211.201L14.2051 217.399M2 174.489C2 165.432 6.06837 160.346 14.2051 155.261M2 174.489L14.2051 180.688M14.2051 155.261L121 93.2181M14.2051 180.688V217.399" stroke="#09203F" stroke-width="2.57718"/>
<path d="M139.291 127.638L79.2826 162.171M41.6502 183.828L73.897 165.271M139.291 134.547L41.6502 190.736M139.291 141.916L101.659 163.572M41.6502 198.105L63.0091 185.814M140.308 148.786L42.6673 204.976M69.1117 182.302L95.5561 167.084" stroke="#09203F" stroke-width="2.57718"/>
<path d="M171.532 183.798C188.869 172.98 178.033 134.033 161.779 144.138L115.186 171.898C88.0962 188.126 102.181 223.826 121.686 214.089L139.566 203.64V220.581L157.445 193.191L171.532 183.798Z" fill="#F7F7F7"/>
<path d="M161.779 157.121L148.778 164.867M115.186 184.88L138.483 171M161.779 175.512L133.607 192.297M115.186 203.272L124.397 197.784M161.779 166.488L115.186 194.248M161.779 144.138C178.033 134.033 188.869 172.98 171.532 183.798L157.445 193.191L139.566 220.581V203.64L121.686 214.089C102.181 223.826 88.0962 188.126 115.186 171.898L161.779 144.138Z" stroke="#09203F" stroke-width="2.57718"/>
<path d="M88.1856 262.35V256.018L81.5392 261.35V267.682L88.1856 262.35Z" stroke="#09203F" stroke-width="2.57718"/>
<path d="M77.9912 245.597V239.265C77.9912 228.6 96.9332 217.935 96.9332 224.934V231.266L90.2868 236.598V233.433C90.2868 230.267 84.6376 233.933 84.6376 237.099V240.265L84.6363 243.431C84.6363 245.287 86.5788 244.794 88.1856 243.431V250.892L84.8624 253.558L81.5392 256.224V254.055C79.4407 254.45 77.9899 253.866 77.9899 251.929L77.9912 245.597Z" stroke="#09203F" stroke-width="2.57718"/>
</svg>
