<svg width="150" height="49" viewBox="0 0 150 49" fill="none" xmlns="http://www.w3.org/2000/svg">
<path d="M51.47 31C50.33 31 49.44 30.77 48.8 30.31C48.1667 29.85 47.77 29.14 47.61 28.18C47.5833 27.8867 47.6433 27.6667 47.79 27.52C47.9367 27.3733 48.15 27.3 48.43 27.3C48.71 27.3 48.9133 27.3667 49.04 27.5C49.1733 27.6333 49.2633 27.84 49.31 28.12C49.41 28.58 49.6233 28.8967 49.95 29.07C50.2833 29.2367 50.79 29.32 51.47 29.32H54.35C55.21 29.32 55.7933 29.1667 56.1 28.86C56.4133 28.5467 56.57 27.9667 56.57 27.12C56.57 26.26 56.41 25.6733 56.09 25.36C55.77 25.04 55.19 24.88 54.35 24.88H51.87C50.61 24.88 49.6733 24.5733 49.06 23.96C48.4533 23.34 48.15 22.4 48.15 21.14C48.15 19.8867 48.45 18.9567 49.05 18.35C49.6567 17.7433 50.59 17.44 51.85 17.44H54.23C55.29 17.44 56.12 17.6567 56.72 18.09C57.3267 18.5233 57.71 19.1867 57.87 20.08C57.91 20.3667 57.8567 20.5867 57.71 20.74C57.5633 20.8867 57.3433 20.96 57.05 20.96C56.7833 20.96 56.5833 20.89 56.45 20.75C56.3167 20.61 56.23 20.4067 56.19 20.14C56.0833 19.7467 55.88 19.48 55.58 19.34C55.28 19.1933 54.83 19.12 54.23 19.12H51.85C51.05 19.12 50.5133 19.2633 50.24 19.55C49.9667 19.83 49.83 20.36 49.83 21.14C49.83 21.9267 49.97 22.4667 50.25 22.76C50.53 23.0533 51.07 23.2 51.87 23.2H54.35C55.6633 23.2 56.64 23.52 57.28 24.16C57.9267 24.8 58.25 25.7867 58.25 27.12C58.25 28.4467 57.93 29.4267 57.29 30.06C56.65 30.6867 55.67 31 54.35 31H51.47ZM63.9916 31C63.7116 31 63.5016 30.93 63.3616 30.79C63.2216 30.65 63.1516 30.44 63.1516 30.16V19.14H59.2716C58.9916 19.14 58.7816 19.07 58.6416 18.93C58.5016 18.79 58.4316 18.58 58.4316 18.3C58.4316 18.02 58.5016 17.81 58.6416 17.67C58.7816 17.53 58.9916 17.46 59.2716 17.46H68.7116C68.9916 17.46 69.2016 17.53 69.3416 17.67C69.4816 17.81 69.5516 18.02 69.5516 18.3C69.5516 18.58 69.4816 18.79 69.3416 18.93C69.2016 19.07 68.9916 19.14 68.7116 19.14H64.8316V30.16C64.8316 30.4267 64.7582 30.6333 64.6116 30.78C64.4716 30.9267 64.2649 31 63.9916 31ZM68.9752 30.92C68.4418 30.7133 68.2818 30.3467 68.4952 29.82L73.2552 18.1C73.4552 17.66 73.7685 17.44 74.1952 17.44H74.2352C74.6685 17.46 74.9618 17.68 75.1152 18.1L79.9552 29.82C80.1685 30.3467 80.0152 30.7133 79.4952 30.92C78.9685 31.1267 78.6018 30.9733 78.3952 30.46L77.3152 27.84H71.0852L70.0552 30.46C69.8485 30.98 69.4885 31.1333 68.9752 30.92ZM71.7452 26.16H76.6252L74.1352 20.1L71.7452 26.16ZM90.6555 31.04C90.4355 31.18 90.2255 31.2233 90.0255 31.17C89.8255 31.1167 89.6555 30.98 89.5155 30.76L86.4155 25.6H83.6155V30.16C83.6155 30.72 83.3355 31 82.7755 31C82.2155 31 81.9355 30.72 81.9355 30.16V18.28C81.9355 17.72 82.2155 17.44 82.7755 17.44H87.4555C88.6755 17.44 89.6088 17.7667 90.2555 18.42C90.9088 19.0667 91.2355 20 91.2355 21.22V21.82C91.2355 22.88 90.9888 23.7267 90.4955 24.36C90.0021 24.9867 89.2888 25.3767 88.3555 25.53L90.9755 29.9C91.2288 30.3667 91.1221 30.7467 90.6555 31.04ZM83.6155 23.92H87.4555C88.2155 23.92 88.7555 23.76 89.0755 23.44C89.3955 23.12 89.5555 22.58 89.5555 21.82V21.22C89.5555 20.4667 89.3955 19.93 89.0755 19.61C88.7555 19.2833 88.2155 19.12 87.4555 19.12H83.6155V23.92ZM97.1048 31C96.8248 31 96.6148 30.93 96.4748 30.79C96.3348 30.65 96.2648 30.44 96.2648 30.16V19.14H92.3848C92.1048 19.14 91.8948 19.07 91.7548 18.93C91.6148 18.79 91.5448 18.58 91.5448 18.3C91.5448 18.02 91.6148 17.81 91.7548 17.67C91.8948 17.53 92.1048 17.46 92.3848 17.46H101.825C102.105 17.46 102.315 17.53 102.455 17.67C102.595 17.81 102.665 18.02 102.665 18.3C102.665 18.58 102.595 18.79 102.455 18.93C102.315 19.07 102.105 19.14 101.825 19.14H97.9448V30.16C97.9448 30.4267 97.8715 30.6333 97.7248 30.78C97.5848 30.9267 97.3782 31 97.1048 31Z" fill="#2C2D2E"/>
<line x1="150" y1="0.5" x2="-4.37114e-08" y2="0.499987" stroke="#09203F"/>
<line x1="150" y1="48.5" x2="-4.37114e-08" y2="48.5" stroke="#09203F"/>
</svg>
